<?xml version="1.0" standalone="no"?>
<!DOCTYPE svg PUBLIC "-//W3C//DTD SVG 1.1//EN" "http://www.w3.org/Graphics/SVG/1.1/DTD/svg11.dtd" >
<svg>
<metadata>
Created by FontForge 20120731 at Thu Sep 28 11:29:08 2017
 By www-data
(c) 2014 Apple Inc. All rights reserved.
</metadata>
<defs>
<font id="SanFranciscoDisplay-Thin" horiz-adv-x="0" >
  <font-face 
    font-family="San Francisco Display"
    font-weight="200"
    font-stretch="normal"
    units-per-em="2048"
    panose-1="2 11 3 4 3 2 2 6 2 4"
    ascent="1638"
    descent="-410"
    x-height="1035"
    cap-height="1360"
    bbox="-453 -497 2048 1945"
    underline-thickness="50"
    underline-position="-25"
    stemh="76"
    stemv="78"
    unicode-range="U+0020-FB02"
  />
<missing-glyph horiz-adv-x="1293" 
d="M120 0v1365h1053v-1365h-1053zM501 313c0 -63 49 -107 120 -107c74 0 122 43 122 107c0 65 -48 108 -122 108c-72 0 -120 -44 -120 -108zM339 888h169c1 79 49 130 125 130c72 0 120 -43 120 -110c0 -51 -20 -78 -103 -138c-92 -65 -125 -129 -118 -221l1 -18h166v15
c0 64 15 87 107 153c97 70 133 130 133 218c0 151 -117 250 -296 250c-190 0 -310 -109 -304 -279z" />
    <glyph glyph-name=".notdef" horiz-adv-x="1293" 
d="M120 0v1365h1053v-1365h-1053zM501 313c0 -63 49 -107 120 -107c74 0 122 43 122 107c0 65 -48 108 -122 108c-72 0 -120 -44 -120 -108zM339 888h169c1 79 49 130 125 130c72 0 120 -43 120 -110c0 -51 -20 -78 -103 -138c-92 -65 -125 -129 -118 -221l1 -18h166v15
c0 64 15 87 107 153c97 70 133 130 133 218c0 151 -117 250 -296 250c-190 0 -310 -109 -304 -279z" />
    <glyph glyph-name=".null" 
 />
    <glyph glyph-name="nonmarkingreturn" 
 />
    <glyph glyph-name="space" unicode=" " horiz-adv-x="422" 
 />
    <glyph glyph-name="A" unicode="A" horiz-adv-x="1180" 
d="M145 0h-85l487 1360h86l487 -1360h-87l-161 458h-567zM591 1259h-4l-258 -731h519z" />
    <glyph glyph-name="Agrave" unicode="&#xc0;" horiz-adv-x="1180" 
d="M145 0h-85l487 1360h86l487 -1360h-87l-161 458h-567zM591 1259h-4l-258 -731h519zM636 1512h-72l-247 294h90z" />
    <glyph glyph-name="Aacute" unicode="&#xc1;" horiz-adv-x="1180" 
d="M145 0h-85l487 1360h86l487 -1360h-87l-161 458h-567zM591 1259h-4l-258 -731h519zM616 1512h-72l230 294h89z" />
    <glyph glyph-name="Adieresis" unicode="&#xc4;" horiz-adv-x="1180" 
d="M145 0h-85l487 1360h86l487 -1360h-87l-161 458h-567zM591 1259h-4l-258 -731h519zM444 1511c-35 0 -63 28 -63 63c0 37 28 64 63 64s63 -27 63 -64c0 -35 -28 -63 -63 -63zM733 1511c-35 0 -63 28 -63 63c0 37 28 64 63 64c36 0 63 -27 63 -64c0 -35 -27 -63 -63 -63z
" />
    <glyph glyph-name="Adieresismacron" unicode="&#x1de;" horiz-adv-x="1180" 
d="M145 0h-85l487 1360h86l487 -1360h-87l-161 458h-567zM591 1259h-4l-258 -731h519zM446 1511c-35 0 -63 28 -63 63c0 37 28 64 63 64s63 -27 63 -64c0 -35 -28 -63 -63 -63zM735 1511c-35 0 -63 28 -63 63c0 37 28 64 63 64c36 0 63 -27 63 -64c0 -35 -27 -63 -63 -63z
M858 1809h-536v59h536v-59z" />
    <glyph glyph-name="Aring" unicode="&#xc5;" horiz-adv-x="1180" 
d="M145 0h-85l487 1360h86l487 -1360h-87l-161 458h-567zM591 1259h-4l-258 -731h519zM590 1509c-97 0 -174 76 -174 173c0 95 77 169 174 169c94 0 174 -74 174 -169c0 -97 -80 -173 -174 -173zM472 1680c0 -64 54 -118 118 -118c65 0 117 54 117 118
c0 66 -52 118 -117 118c-64 0 -118 -52 -118 -118z" />
    <glyph glyph-name="Aringacute" unicode="&#x1fa;" horiz-adv-x="1180" 
d="M145 0h-85l487 1360h86l487 -1360h-87l-161 458h-567zM591 1259h-4l-258 -731h519zM555 1806l137 139h92l-156 -139h-73zM590 1428c-92 0 -165 73 -165 165c0 90 73 162 165 162c90 0 166 -72 166 -162c0 -92 -76 -165 -166 -165zM480 1591c0 -60 51 -111 110 -111
c62 0 111 51 111 111c0 62 -49 112 -111 112c-59 0 -110 -50 -110 -112z" />
    <glyph glyph-name="Atilde" unicode="&#xc3;" horiz-adv-x="1180" 
d="M145 0h-85l487 1360h86l487 -1360h-87l-161 458h-567zM591 1259h-4l-258 -731h519zM705 1509c-133 0 -156 111 -249 111c-52 0 -89 -41 -89 -111h-61c0 106 60 166 150 166c129 0 150 -111 249 -111c60 0 90 37 91 111h61c0 -98 -51 -166 -152 -166z" />
    <glyph glyph-name="Abrevegrave" unicode="&#x1eb0;" horiz-adv-x="1180" 
d="M145 0h-85l487 1360h86l487 -1360h-87l-161 458h-567zM591 1259h-4l-258 -731h519zM874 1717c0 -120 -115 -222 -283 -222s-276 102 -276 222h68c0 -88 76 -161 208 -161s215 73 215 161h68zM661 1712h-83l-282 233h99z" />
    <glyph glyph-name="Adotmacron" unicode="&#x1e0;" horiz-adv-x="1180" 
d="M145 0h-85l487 1360h86l487 -1360h-87l-161 458h-567zM591 1259h-4l-258 -731h519zM517 1605c0 41 32 72 73 72s73 -31 73 -72c0 -40 -32 -72 -73 -72s-73 32 -73 72zM858 1809h-536v59h536v-59z" />
    <glyph glyph-name="Aringbelow" unicode="&#x1e00;" horiz-adv-x="1180" 
d="M145 0h-85l487 1360h86l487 -1360h-87l-161 458h-567zM591 1259h-4l-258 -731h519zM590 -497c-97 0 -174 76 -174 173c0 95 77 169 174 169c94 0 174 -74 174 -169c0 -97 -80 -173 -174 -173zM472 -326c0 -64 54 -118 118 -118c65 0 117 54 117 118
c0 66 -52 118 -117 118c-64 0 -118 -52 -118 -118z" />
    <glyph glyph-name="Acircumflex" unicode="&#xc2;" horiz-adv-x="1180" 
d="M145 0h-85l487 1360h86l487 -1360h-87l-161 458h-567zM591 1259h-4l-258 -731h519zM307 1512l258 228h44l258 -228h-92l-186 164h-4l-186 -164h-92z" />
    <glyph glyph-name="Acircumflexdotbelow" unicode="&#x1eac;" horiz-adv-x="1180" 
d="M145 0h-85l487 1360h86l487 -1360h-87l-161 458h-567zM591 1259h-4l-258 -731h519zM522 -287c0 40 31 70 67 70c40 0 71 -30 71 -70c0 -39 -31 -69 -71 -69c-36 0 -67 30 -67 69zM307 1512l258 228h44l258 -228h-92l-186 164h-4l-186 -164h-92z" />
    <glyph glyph-name="Acircumflexacute" unicode="&#x1ea4;" horiz-adv-x="1180" 
d="M145 0h-85l487 1360h86l487 -1360h-87l-161 458h-567zM591 1259h-4l-258 -731h519zM293 1512l276 205h42l276 -205h-99l-196 146h-4l-196 -146h-99zM756 1712l246 214h103l-268 -214h-81z" />
    <glyph glyph-name="Acircumflextilde" unicode="&#x1eaa;" horiz-adv-x="1180" 
d="M145 0h-85l487 1360h86l487 -1360h-87l-161 458h-567zM591 1259h-4l-258 -731h519zM293 1512l276 205h42l276 -205h-99l-196 146h-4l-196 -146h-99zM386 1773h-62c0 103 63 157 149 157c121 0 142 -103 242 -103c58 0 90 29 91 102h62c0 -96 -56 -159 -154 -159
c-124 0 -147 104 -239 104c-49 0 -89 -31 -89 -101z" />
    <glyph glyph-name="Acircumflexgrave" unicode="&#x1ea6;" horiz-adv-x="1180" 
d="M145 0h-85l487 1360h86l487 -1360h-87l-161 458h-567zM591 1259h-4l-258 -731h519zM293 1512l276 205h42l276 -205h-99l-196 146h-4l-196 -146h-99zM1005 1693h-80l-298 233h103z" />
    <glyph glyph-name="Acircumflexhookabove" unicode="&#x1ea8;" horiz-adv-x="1180" 
d="M145 0h-85l487 1360h86l487 -1360h-87l-161 458h-567zM591 1259h-4l-258 -731h519zM293 1512l276 205h42l276 -205h-99l-196 146h-4l-196 -146h-99zM695 1869v51c16 11 52 24 87 24c83 0 145 -51 145 -126c0 -65 -48 -103 -91 -125l-34 43c39 21 64 44 64 81
c0 42 -36 74 -92 74c-28 0 -56 -9 -79 -22z" />
    <glyph glyph-name="Abreve" unicode="&#x102;" horiz-adv-x="1180" 
d="M145 0h-85l487 1360h86l487 -1360h-87l-161 458h-567zM591 1259h-4l-258 -731h519zM322 1741h67c0 -103 73 -170 201 -170s194 67 194 170h67c0 -117 -81 -232 -261 -232s-268 112 -268 232z" />
    <glyph glyph-name="Abreveacute" unicode="&#x1eae;" horiz-adv-x="1180" 
d="M145 0h-85l487 1360h86l487 -1360h-87l-161 458h-567zM591 1259h-4l-258 -731h519zM869 1717c0 -120 -115 -222 -283 -222s-275 102 -275 222h68c0 -88 75 -161 207 -161s215 73 215 161h68zM517 1712l266 233h99l-282 -233h-83z" />
    <glyph glyph-name="Abrevetilde" unicode="&#x1eb4;" horiz-adv-x="1180" 
d="M145 0h-85l487 1360h86l487 -1360h-87l-161 458h-567zM591 1259h-4l-258 -731h519zM870 1717c0 -120 -115 -222 -283 -222s-275 102 -275 222h68c0 -88 75 -161 207 -161s215 73 215 161h68zM386 1773h-62c0 103 63 157 149 157c121 0 142 -103 242 -103
c58 0 90 29 91 102h62c0 -96 -56 -159 -154 -159c-124 0 -147 104 -239 104c-49 0 -89 -31 -89 -101z" />
    <glyph glyph-name="Abrevehookabove" unicode="&#x1eb2;" horiz-adv-x="1180" 
d="M145 0h-85l487 1360h86l487 -1360h-87l-161 458h-567zM591 1259h-4l-258 -731h519zM870 1717c0 -120 -115 -222 -283 -222s-275 102 -275 222h68c0 -88 75 -161 207 -161s215 73 215 161h68zM472 1869v51c16 11 52 24 87 24c84 0 145 -51 145 -126
c0 -65 -48 -103 -91 -125l-33 43c38 21 63 44 63 81c0 42 -36 74 -92 74c-28 0 -55 -9 -79 -22z" />
    <glyph glyph-name="Abrevedotbelow" unicode="&#x1eb6;" horiz-adv-x="1180" 
d="M145 0h-85l487 1360h86l487 -1360h-87l-161 458h-567zM591 1259h-4l-258 -731h519zM523 -287c0 40 31 70 67 70c40 0 71 -30 71 -70c0 -39 -31 -69 -71 -69c-36 0 -67 30 -67 69zM322 1741h67c0 -103 73 -170 201 -170s194 67 194 170h67c0 -117 -81 -232 -261 -232
s-268 112 -268 232z" />
    <glyph glyph-name="Ainvertedbreve" unicode="&#x202;" horiz-adv-x="1180" 
d="M145 0h-85l487 1360h86l487 -1360h-87l-161 458h-567zM591 1259h-4l-258 -731h519zM590 1703c-128 0 -201 -77 -201 -181h-67c0 121 88 242 268 242s261 -124 261 -242h-67c0 104 -66 181 -194 181z" />
    <glyph glyph-name="Acaron" unicode="&#x1cd;" horiz-adv-x="1180" 
d="M145 0h-85l487 1360h86l487 -1360h-87l-161 458h-567zM591 1259h-4l-258 -731h519zM306 1737h92l186 -163h4l186 163h92l-258 -228h-44z" />
    <glyph glyph-name="Adotaccent" unicode="&#x226;" horiz-adv-x="1180" 
d="M145 0h-85l487 1360h86l487 -1360h-87l-161 458h-567zM591 1259h-4l-258 -731h519zM517 1650c0 41 32 72 73 72s73 -31 73 -72c0 -40 -32 -72 -73 -72s-73 32 -73 72z" />
    <glyph glyph-name="Adotbelow" unicode="&#x1ea0;" horiz-adv-x="1180" 
d="M145 0h-85l487 1360h86l487 -1360h-87l-161 458h-567zM591 1259h-4l-258 -731h519zM521 -287c0 40 31 70 67 70c40 0 71 -30 71 -70c0 -39 -31 -69 -71 -69c-36 0 -67 30 -67 69z" />
    <glyph glyph-name="Ahookabove" unicode="&#x1ea2;" horiz-adv-x="1180" 
d="M145 0h-85l487 1360h86l487 -1360h-87l-161 458h-567zM591 1259h-4l-258 -731h519zM470 1662v53c13 11 53 25 92 25c88 0 154 -50 154 -129c0 -72 -60 -109 -98 -130l-36 43c37 22 70 47 70 86c0 44 -37 75 -96 75c-33 0 -62 -10 -86 -23z" />
    <glyph glyph-name="Adblgrave" unicode="&#x200;" horiz-adv-x="1180" 
d="M145 0h-85l487 1360h86l487 -1360h-87l-161 458h-567zM591 1259h-4l-258 -731h519zM521 1512h-75l-309 255h102zM785 1512h-76l-308 255h101z" />
    <glyph glyph-name="Amacron" unicode="&#x100;" horiz-adv-x="1180" 
d="M145 0h-85l487 1360h86l487 -1360h-87l-161 458h-567zM591 1259h-4l-258 -731h519zM857 1540h-536v59h536v-59z" />
    <glyph glyph-name="Aogonek" unicode="&#x104;" horiz-adv-x="1165" 
d="M145 0h-85l487 1360h86l486 -1357c-79 -37 -173 -109 -175 -200c-1 -71 46 -111 108 -111c34 0 63 6 85 14v-59c-17 -10 -48 -21 -106 -21c-86 0 -166 53 -166 165c0 106 92 187 160 232l-153 435h-567zM592 1259h-6l-257 -731h519z" />
    <glyph glyph-name="B" unicode="B" horiz-adv-x="1208" 
d="M190 0v1360h441c244 0 395 -124 395 -333c0 -201 -141 -294 -234 -315v-5c163 -17 310 -122 310 -339c0 -225 -160 -368 -448 -368h-464zM272 1284v-548h338c182 0 332 87 332 280c0 176 -124 268 -324 268h-346zM272 661v-586h361c239 0 385 99 385 292
c0 203 -162 294 -359 294h-387z" />
    <glyph glyph-name="Blinebelow" unicode="&#x1e06;" horiz-adv-x="1208" 
d="M190 0v1360h441c244 0 395 -124 395 -333c0 -201 -141 -294 -234 -315v-5c163 -17 310 -122 310 -339c0 -225 -160 -368 -448 -368h-464zM272 1284v-548h338c182 0 332 87 332 280c0 176 -124 268 -324 268h-346zM272 661v-586h361c239 0 385 99 385 292
c0 203 -162 294 -359 294h-387zM870 -303h-553v61h553v-61z" />
    <glyph glyph-name="Bdotbelow" unicode="&#x1e04;" horiz-adv-x="1208" 
d="M526 -287c0 40 31 70 67 70c40 0 71 -30 71 -70c0 -39 -31 -69 -71 -69c-36 0 -67 30 -67 69zM190 0v1360h441c244 0 395 -124 395 -333c0 -201 -141 -294 -234 -315v-5c163 -17 310 -122 310 -339c0 -225 -160 -368 -448 -368h-464zM272 1284v-548h338
c182 0 332 87 332 280c0 176 -124 268 -324 268h-346zM272 661v-586h361c239 0 385 99 385 292c0 203 -162 294 -359 294h-387z" />
    <glyph glyph-name="Bdotaccent" unicode="&#x1e02;" horiz-adv-x="1208" 
d="M520 1650c0 41 32 72 73 72s73 -31 73 -72c0 -40 -32 -72 -73 -72s-73 32 -73 72zM190 0v1360h441c244 0 395 -124 395 -333c0 -201 -141 -294 -234 -315v-5c163 -17 310 -122 310 -339c0 -225 -160 -368 -448 -368h-464zM272 1284v-548h338c182 0 332 87 332 280
c0 176 -124 268 -324 268h-346zM272 661v-586h361c239 0 385 99 385 292c0 203 -162 294 -359 294h-387z" />
    <glyph glyph-name="C" unicode="C" horiz-adv-x="1245" 
d="M217 803v-248c0 -284 132 -512 433 -512c244 0 395 154 395 338h80v-3c0 -206 -172 -409 -476 -409c-358 0 -514 258 -514 594v231c0 334 163 597 510 597c314 0 471 -226 471 -415v-3h-80c0 153 -136 343 -391 343c-291 0 -428 -229 -428 -513z" />
    <glyph glyph-name="Cacute" unicode="&#x106;" horiz-adv-x="1245" 
d="M670 1512h-72l230 294h89zM217 803v-248c0 -284 132 -512 433 -512c244 0 395 154 395 338h80v-3c0 -206 -172 -409 -476 -409c-358 0 -514 258 -514 594v231c0 334 163 597 510 597c314 0 471 -226 471 -415v-3h-80c0 153 -136 343 -391 343c-291 0 -428 -229 -428 -513
z" />
    <glyph glyph-name="Ccaron" unicode="&#x10c;" horiz-adv-x="1245" 
d="M217 803v-248c0 -284 132 -512 433 -512c244 0 395 154 395 338h80v-3c0 -206 -172 -409 -476 -409c-358 0 -514 258 -514 594v231c0 334 163 597 510 597c314 0 471 -226 471 -415v-3h-80c0 153 -136 343 -391 343c-291 0 -428 -229 -428 -513zM364 1737h92l186 -163h4
l186 163h92l-258 -228h-44z" />
    <glyph glyph-name="Ccircumflex" unicode="&#x108;" horiz-adv-x="1245" 
d="M217 803v-248c0 -284 132 -512 433 -512c244 0 395 154 395 338h80v-3c0 -206 -172 -409 -476 -409c-358 0 -514 258 -514 594v231c0 334 163 597 510 597c314 0 471 -226 471 -415v-3h-80c0 153 -136 343 -391 343c-291 0 -428 -229 -428 -513zM364 1512l258 228h44
l258 -228h-92l-186 164h-4l-186 -164h-92z" />
    <glyph glyph-name="Cdotaccent" unicode="&#x10a;" horiz-adv-x="1245" 
d="M571 1650c0 41 32 72 73 72s73 -31 73 -72c0 -40 -32 -72 -73 -72s-73 32 -73 72zM217 803v-248c0 -284 132 -512 433 -512c244 0 395 154 395 338h80v-3c0 -206 -172 -409 -476 -409c-358 0 -514 258 -514 594v231c0 334 163 597 510 597c314 0 471 -226 471 -415v-3
h-80c0 153 -136 343 -391 343c-291 0 -428 -229 -428 -513z" />
    <glyph glyph-name="Ccedilla" unicode="&#xc7;" horiz-adv-x="1245" 
d="M623 -472c-53 -1 -102 9 -124 16v63c26 -9 74 -16 120 -16c73 0 151 30 151 104c0 69 -56 100 -152 100h-51v48l55 127c-341 12 -487 267 -487 593v231c0 334 163 597 510 597c314 0 471 -226 471 -415v-3h-80c0 153 -136 343 -391 343c-291 0 -428 -229 -428 -513v-248
c0 -284 132 -512 433 -512c244 0 395 154 395 338h80v-3c0 -197 -156 -391 -436 -408l-48 -117c106 0 206 -42 206 -154c0 -119 -114 -169 -224 -171z" />
    <glyph glyph-name="Ccedillaacute" unicode="&#x1e08;" horiz-adv-x="1245" 
d="M670 1512h-72l230 294h89zM623 -472c-53 -1 -102 9 -124 16v63c26 -9 74 -16 120 -16c73 0 151 30 151 104c0 69 -56 100 -152 100h-51v48l55 127c-341 12 -487 267 -487 593v231c0 334 163 597 510 597c314 0 471 -226 471 -415v-3h-80c0 153 -136 343 -391 343
c-291 0 -428 -229 -428 -513v-248c0 -284 132 -512 433 -512c244 0 395 154 395 338h80v-3c0 -197 -156 -391 -436 -408l-48 -117c106 0 206 -42 206 -154c0 -119 -114 -169 -224 -171z" />
    <glyph glyph-name="D" unicode="D" horiz-adv-x="1294" 
d="M190 1360h366c433 0 608 -273 608 -680c0 -405 -166 -680 -608 -680h-366v1360zM272 1284v-1209h284c369 0 525 235 525 605c0 366 -157 604 -525 604h-284z" />
    <glyph glyph-name="Ddotaccent" unicode="&#x1e0a;" horiz-adv-x="1294" 
d="M519 1650c0 41 32 72 73 72s73 -31 73 -72c0 -40 -32 -72 -73 -72s-73 32 -73 72zM190 1360h366c433 0 608 -273 608 -680c0 -405 -166 -680 -608 -680h-366v1360zM272 1284v-1209h284c369 0 525 235 525 605c0 366 -157 604 -525 604h-284z" />
    <glyph glyph-name="Dcircumflexbelow" unicode="&#x1e12;" horiz-adv-x="1294" 
d="M190 1360h366c433 0 608 -273 608 -680c0 -405 -166 -680 -608 -680h-366v1360zM272 1284v-1209h284c369 0 525 235 525 605c0 366 -157 604 -525 604h-284zM331 -413l230 280h62l230 -280h-73l-186 229h-4l-186 -229h-73z" />
    <glyph glyph-name="Dcommaaccent" unicode="&#x1e10;" horiz-adv-x="1294" 
d="M530 -481h-60l85 335h89zM190 1360h366c433 0 608 -273 608 -680c0 -405 -166 -680 -608 -680h-366v1360zM272 1284v-1209h284c369 0 525 235 525 605c0 366 -157 604 -525 604h-284z" />
    <glyph glyph-name="Dlinebelow" unicode="&#x1e0e;" horiz-adv-x="1294" 
d="M869 -303h-553v61h553v-61zM190 1360h366c433 0 608 -273 608 -680c0 -405 -166 -680 -608 -680h-366v1360zM272 1284v-1209h284c369 0 525 235 525 605c0 366 -157 604 -525 604h-284z" />
    <glyph glyph-name="Dcaron" unicode="&#x10e;" horiz-adv-x="1294" 
d="M312 1737h92l186 -163h4l186 163h92l-258 -228h-44zM190 1360h366c433 0 608 -273 608 -680c0 -405 -166 -680 -608 -680h-366v1360zM272 1284v-1209h284c369 0 525 235 525 605c0 366 -157 604 -525 604h-284z" />
    <glyph glyph-name="Ddotbelow" unicode="&#x1e0c;" horiz-adv-x="1294" 
d="M525 -287c0 40 31 70 67 70c40 0 71 -30 71 -70c0 -39 -31 -69 -71 -69c-36 0 -67 30 -67 69zM190 1360h366c433 0 608 -273 608 -680c0 -405 -166 -680 -608 -680h-366v1360zM272 1284v-1209h284c369 0 525 235 525 605c0 366 -157 604 -525 604h-284z" />
    <glyph glyph-name="Dcroat" unicode="&#x110;" horiz-adv-x="1353" 
d="M614 0h-365v660h-159v74h159v626h365c434 0 609 -273 609 -680c0 -405 -167 -680 -609 -680zM331 75h283c370 0 526 235 526 605c0 366 -157 604 -526 604h-283v-550h360v-74h-360v-585z" />
    <glyph glyph-name="E" unicode="E" horiz-adv-x="1093" 
d="M966 75v-75h-776v1360h776v-76h-694v-550h660v-75h-660v-584h694z" />
    <glyph glyph-name="Egrave" unicode="&#xc8;" horiz-adv-x="1093" 
d="M622 1512h-72l-247 294h90zM966 75v-75h-776v1360h776v-76h-694v-550h660v-75h-660v-584h694z" />
    <glyph glyph-name="Edblgrave" unicode="&#x204;" horiz-adv-x="1093" 
d="M507 1512h-75l-309 255h102zM771 1512h-76l-308 255h101zM966 75v-75h-776v1360h776v-76h-694v-550h660v-75h-660v-584h694z" />
    <glyph glyph-name="Eacute" unicode="&#xc9;" horiz-adv-x="1093" 
d="M602 1512h-72l230 294h89zM966 75v-75h-776v1360h776v-76h-694v-550h660v-75h-660v-584h694z" />
    <glyph glyph-name="Ecircumflex" unicode="&#xca;" horiz-adv-x="1093" 
d="M296 1512l258 228h44l258 -228h-92l-186 164h-4l-186 -164h-92zM966 75v-75h-776v1360h776v-76h-694v-550h660v-75h-660v-584h694z" />
    <glyph glyph-name="Ecircumflexhookabove" unicode="&#x1ec2;" horiz-adv-x="1093" 
d="M966 75v-75h-776v1360h776v-76h-694v-550h660v-75h-660v-584h694zM279 1512l276 205h42l276 -205h-99l-196 146h-4l-196 -146h-99zM681 1869v51c16 11 52 24 87 24c83 0 145 -51 145 -126c0 -65 -48 -103 -91 -125l-34 43c39 21 64 44 64 81c0 42 -36 74 -92 74
c-28 0 -56 -9 -79 -22z" />
    <glyph glyph-name="Ecircumflexgrave" unicode="&#x1ec0;" horiz-adv-x="1093" 
d="M966 75v-75h-776v1360h776v-76h-694v-550h660v-75h-660v-584h694zM279 1512l276 205h42l276 -205h-99l-196 146h-4l-196 -146h-99zM991 1693h-80l-298 233h103z" />
    <glyph glyph-name="Ecircumflextilde" unicode="&#x1ec4;" horiz-adv-x="1093" 
d="M279 1512l276 205h42l276 -205h-99l-196 146h-4l-196 -146h-99zM372 1773h-62c0 103 63 157 149 157c121 0 142 -103 242 -103c58 0 90 29 91 102h62c0 -96 -56 -159 -154 -159c-124 0 -147 104 -239 104c-49 0 -89 -31 -89 -101zM966 75v-75h-776v1360h776v-76h-694
v-550h660v-75h-660v-584h694z" />
    <glyph glyph-name="Ecircumflexdotbelow" unicode="&#x1ec6;" horiz-adv-x="1093" 
d="M509 -287c0 40 31 70 67 70c40 0 71 -30 71 -70c0 -39 -31 -69 -71 -69c-36 0 -67 30 -67 69zM296 1512l258 228h44l258 -228h-92l-186 164h-4l-186 -164h-92zM966 75v-75h-776v1360h776v-76h-694v-550h660v-75h-660v-584h694z" />
    <glyph glyph-name="Ecircumflexacute" unicode="&#x1ebe;" horiz-adv-x="1093" 
d="M966 75v-75h-776v1360h776v-76h-694v-550h660v-75h-660v-584h694zM279 1512l276 205h42l276 -205h-99l-196 146h-4l-196 -146h-99zM742 1712l246 214h103l-268 -214h-81z" />
    <glyph glyph-name="Edieresis" unicode="&#xcb;" horiz-adv-x="1093" 
d="M432 1511c-35 0 -63 28 -63 63c0 37 28 64 63 64s63 -27 63 -64c0 -35 -28 -63 -63 -63zM721 1511c-35 0 -63 28 -63 63c0 37 28 64 63 64c36 0 63 -27 63 -64c0 -35 -27 -63 -63 -63zM966 75v-75h-776v1360h776v-76h-694v-550h660v-75h-660v-584h694z" />
    <glyph glyph-name="Edotbelow" unicode="&#x1eb8;" horiz-adv-x="1093" 
d="M509 -287c0 40 31 70 67 70c40 0 71 -30 71 -70c0 -39 -31 -69 -71 -69c-36 0 -67 30 -67 69zM966 75v-75h-776v1360h776v-76h-694v-550h660v-75h-660v-584h694z" />
    <glyph glyph-name="Einvertedbreve" unicode="&#x206;" horiz-adv-x="1093" 
d="M966 75v-75h-776v1360h776v-76h-694v-550h660v-75h-660v-584h694zM576 1703c-128 0 -201 -77 -201 -181h-67c0 121 88 242 268 242s261 -124 261 -242h-67c0 104 -66 181 -194 181z" />
    <glyph glyph-name="Ehookabove" unicode="&#x1eba;" horiz-adv-x="1093" 
d="M966 75v-75h-776v1360h776v-76h-694v-550h660v-75h-660v-584h694zM456 1662v53c13 11 53 25 92 25c88 0 154 -50 154 -129c0 -72 -60 -109 -98 -130l-36 43c37 22 70 47 70 86c0 44 -37 75 -96 75c-33 0 -62 -10 -86 -23z" />
    <glyph glyph-name="Ecaron" unicode="&#x11a;" horiz-adv-x="1093" 
d="M296 1737h92l186 -163h4l186 163h92l-258 -228h-44zM966 75v-75h-776v1360h776v-76h-694v-550h660v-75h-660v-584h694z" />
    <glyph glyph-name="Emacron" unicode="&#x112;" horiz-adv-x="1093" 
d="M966 75v-75h-776v1360h776v-76h-694v-550h660v-75h-660v-584h694zM844 1540h-536v59h536v-59z" />
    <glyph glyph-name="Emacrongrave" unicode="&#x1e14;" horiz-adv-x="1093" 
d="M641 1708h-90l-316 230h107zM844 1540h-536v59h536v-59zM966 75v-75h-776v1360h776v-76h-694v-550h660v-75h-660v-584h694z" />
    <glyph glyph-name="Emacronacute" unicode="&#x1e16;" horiz-adv-x="1093" 
d="M511 1708l299 230h107l-316 -230h-90zM844 1540h-536v59h536v-59zM966 75v-75h-776v1360h776v-76h-694v-550h660v-75h-660v-584h694z" />
    <glyph glyph-name="Etilde" unicode="&#x1ebc;" horiz-adv-x="1093" 
d="M966 75v-75h-776v1360h776v-76h-694v-550h660v-75h-660v-584h694zM691 1509c-133 0 -156 111 -249 111c-52 0 -89 -41 -89 -111h-61c0 106 60 166 150 166c129 0 150 -111 249 -111c60 0 90 37 91 111h61c0 -98 -51 -166 -152 -166z" />
    <glyph glyph-name="Ecircumflexbelow" unicode="&#x1e18;" horiz-adv-x="1093" 
d="M966 75v-75h-776v1360h776v-76h-694v-550h660v-75h-660v-584h694zM315 -413l230 280h62l230 -280h-73l-186 229h-4l-186 -229h-73z" />
    <glyph glyph-name="Ebreve" unicode="&#x114;" horiz-adv-x="1093" 
d="M966 75v-75h-776v1360h776v-76h-694v-550h660v-75h-660v-584h694zM308 1741h67c0 -103 73 -170 201 -170s194 67 194 170h67c0 -117 -81 -232 -261 -232s-268 112 -268 232z" />
    <glyph glyph-name="Etildebelow" unicode="&#x1e1a;" horiz-adv-x="1093" 
d="M703 -382c-140 0 -166 157 -262 157c-54 0 -98 -51 -98 -140h-62c0 125 64 198 160 198c138 0 156 -156 261 -156c64 0 99 59 100 145h62c0 -113 -56 -204 -161 -204zM966 75v-75h-776v1360h776v-76h-694v-550h660v-75h-660v-584h694z" />
    <glyph glyph-name="Edotaccent" unicode="&#x116;" horiz-adv-x="1093" 
d="M503 1650c0 41 32 72 73 72s73 -31 73 -72c0 -40 -32 -72 -73 -72s-73 32 -73 72zM966 75v-75h-776v1360h776v-76h-694v-550h660v-75h-660v-584h694z" />
    <glyph glyph-name="Ecedilla" unicode="&#x228;" horiz-adv-x="1093" 
d="M540 -459c-53 -1 -103 8 -125 15v63c26 -9 75 -16 121 -16c72 0 151 31 151 105c0 69 -56 99 -153 99h-50v48l62 145h-356v1360h776v-76h-694v-550h660v-75h-660v-584h694v-75h-353l-56 -134c106 0 207 -43 207 -154c0 -120 -114 -170 -224 -171z" />
    <glyph glyph-name="Ecedillabreve" unicode="&#x1e1c;" horiz-adv-x="1093" 
d="M540 -459c-53 -1 -103 8 -125 15v63c26 -9 75 -16 121 -16c72 0 151 31 151 105c0 69 -56 99 -153 99h-50v48l62 145h-356v1360h776v-76h-694v-550h660v-75h-660v-584h694v-75h-353l-56 -134c106 0 207 -43 207 -154c0 -120 -114 -170 -224 -171zM308 1741h67
c0 -103 73 -170 201 -170s194 67 194 170h67c0 -117 -81 -232 -261 -232s-268 112 -268 232z" />
    <glyph glyph-name="Eogonek" unicode="&#x118;" horiz-adv-x="1093" 
d="M966 -356c-19 -9 -51 -18 -97 -18c-89 0 -170 53 -170 165c0 89 48 158 128 209h-637v1360h776v-76h-694v-550h660v-75h-660v-584h694v-71c-120 -39 -191 -110 -191 -203c0 -69 45 -109 109 -109c35 0 61 6 82 14v-62z" />
    <glyph glyph-name="F" unicode="F" horiz-adv-x="1038" 
d="M272 0h-82v1360h765v-76h-683v-563h627v-76h-627v-645z" />
    <glyph glyph-name="Fdotaccent" unicode="&#x1e1e;" horiz-adv-x="1038" 
d="M443 1650c0 41 32 72 73 72s73 -31 73 -72c0 -40 -32 -72 -73 -72s-73 32 -73 72zM272 0h-82v1360h765v-76h-683v-563h627v-76h-627v-645z" />
    <glyph glyph-name="G" unicode="G" horiz-adv-x="1263" 
d="M1115 1000h-78c-16 144 -140 316 -392 316c-269 0 -428 -193 -428 -515v-228c0 -308 135 -530 436 -530c229 0 397 130 397 354v186h-407v75h485v-261c0 -251 -183 -428 -477 -428c-359 0 -516 259 -516 604v228c0 358 184 590 510 590c308 0 459 -206 470 -391z" />
    <glyph glyph-name="Gacute" unicode="&#x1f4;" horiz-adv-x="1263" 
d="M662 1512h-72l230 294h89zM1115 1000h-78c-16 144 -140 316 -392 316c-269 0 -428 -193 -428 -515v-228c0 -308 135 -530 436 -530c229 0 397 130 397 354v186h-407v75h485v-261c0 -251 -183 -428 -477 -428c-359 0 -516 259 -516 604v228c0 358 184 590 510 590
c308 0 459 -206 470 -391z" />
    <glyph glyph-name="Gcaron" unicode="&#x1e6;" horiz-adv-x="1263" 
d="M356 1737h92l186 -163h4l186 163h92l-258 -228h-44zM1115 1000h-78c-16 144 -140 316 -392 316c-269 0 -428 -193 -428 -515v-228c0 -308 135 -530 436 -530c229 0 397 130 397 354v186h-407v75h485v-261c0 -251 -183 -428 -477 -428c-359 0 -516 259 -516 604v228
c0 358 184 590 510 590c308 0 459 -206 470 -391z" />
    <glyph glyph-name="Gcircumflex" unicode="&#x11c;" horiz-adv-x="1263" 
d="M356 1512l258 228h44l258 -228h-92l-186 164h-4l-186 -164h-92zM1115 1000h-78c-16 144 -140 316 -392 316c-269 0 -428 -193 -428 -515v-228c0 -308 135 -530 436 -530c229 0 397 130 397 354v186h-407v75h485v-261c0 -251 -183 -428 -477 -428
c-359 0 -516 259 -516 604v228c0 358 184 590 510 590c308 0 459 -206 470 -391z" />
    <glyph glyph-name="Gbreve" unicode="&#x11e;" horiz-adv-x="1263" 
d="M1115 1000h-78c-16 144 -140 316 -392 316c-269 0 -428 -193 -428 -515v-228c0 -308 135 -530 436 -530c229 0 397 130 397 354v186h-407v75h485v-261c0 -251 -183 -428 -477 -428c-359 0 -516 259 -516 604v228c0 358 184 590 510 590c308 0 459 -206 470 -391z
M368 1741h67c0 -103 73 -170 201 -170s194 67 194 170h67c0 -117 -81 -232 -261 -232s-268 112 -268 232z" />
    <glyph glyph-name="Gmacron" unicode="&#x1e20;" horiz-adv-x="1263" 
d="M1115 1000h-78c-16 144 -140 316 -392 316c-269 0 -428 -193 -428 -515v-228c0 -308 135 -530 436 -530c229 0 397 130 397 354v186h-407v75h485v-261c0 -251 -183 -428 -477 -428c-359 0 -516 259 -516 604v228c0 358 184 590 510 590c308 0 459 -206 470 -391z
M904 1540h-536v59h536v-59z" />
    <glyph glyph-name="Gdotaccent" unicode="&#x120;" horiz-adv-x="1263" 
d="M563 1650c0 41 32 72 73 72s73 -31 73 -72c0 -40 -32 -72 -73 -72s-73 32 -73 72zM1115 1000h-78c-16 144 -140 316 -392 316c-269 0 -428 -193 -428 -515v-228c0 -308 135 -530 436 -530c229 0 397 130 397 354v186h-407v75h485v-261c0 -251 -183 -428 -477 -428
c-359 0 -516 259 -516 604v228c0 358 184 590 510 590c308 0 459 -206 470 -391z" />
    <glyph glyph-name="Gcommaaccent" unicode="&#x122;" horiz-adv-x="1263" 
d="M574 -481h-60l85 335h89zM1115 1000h-78c-16 144 -140 316 -392 316c-269 0 -428 -193 -428 -515v-228c0 -308 135 -530 436 -530c229 0 397 130 397 354v186h-407v75h485v-261c0 -251 -183 -428 -477 -428c-359 0 -516 259 -516 604v228c0 358 184 590 510 590
c308 0 459 -206 470 -391z" />
    <glyph glyph-name="H" unicode="H" horiz-adv-x="1334" 
d="M1143 0h-82v676h-789v-676h-82v1360h82v-609h789v609h82v-1360z" />
    <glyph glyph-name="Hdieresis" unicode="&#x1e26;" horiz-adv-x="1334" 
d="M1143 0h-82v676h-789v-676h-82v1360h82v-609h789v609h82v-1360zM522 1511c-35 0 -63 28 -63 63c0 37 28 64 63 64s63 -27 63 -64c0 -35 -28 -63 -63 -63zM811 1511c-35 0 -63 28 -63 63c0 37 28 64 63 64c36 0 63 -27 63 -64c0 -35 -27 -63 -63 -63z" />
    <glyph glyph-name="Hcaron" unicode="&#x21e;" horiz-adv-x="1334" 
d="M1143 0h-82v676h-789v-676h-82v1360h82v-609h789v609h82v-1360zM384 1737h92l186 -163h4l186 163h92l-258 -228h-44z" />
    <glyph glyph-name="Hcircumflex" unicode="&#x124;" horiz-adv-x="1334" 
d="M1143 0h-82v676h-789v-676h-82v1360h82v-609h789v609h82v-1360zM384 1512l258 228h44l258 -228h-92l-186 164h-4l-186 -164h-92z" />
    <glyph glyph-name="Hdotbelow" unicode="&#x1e24;" horiz-adv-x="1334" 
d="M1143 0h-82v676h-789v-676h-82v1360h82v-609h789v609h82v-1360zM599 -287c0 40 31 70 67 70c40 0 71 -30 71 -70c0 -39 -31 -69 -71 -69c-36 0 -67 30 -67 69z" />
    <glyph glyph-name="Hdotaccent" unicode="&#x1e22;" horiz-adv-x="1334" 
d="M1143 0h-82v676h-789v-676h-82v1360h82v-609h789v609h82v-1360zM594 1650c0 41 32 72 73 72s73 -31 73 -72c0 -40 -32 -72 -73 -72s-73 32 -73 72z" />
    <glyph glyph-name="Hbrevebelow" unicode="&#x1e2a;" horiz-adv-x="1334" 
d="M394 -159c0 -122 90 -242 273 -242s264 124 264 242h-68c0 -104 -67 -181 -196 -181s-203 77 -203 181h-70zM1143 0h-82v676h-789v-676h-82v1360h82v-609h789v609h82v-1360z" />
    <glyph glyph-name="Hcedilla" unicode="&#x1e28;" horiz-adv-x="1334" 
d="M199 -459c-53 -1 -102 8 -124 15v63c26 -9 74 -16 120 -16c73 0 151 31 151 105c0 69 -56 99 -152 99h-51v48l63 145h-16v1360h82v-609h789v609h82v-1360h-82v676h-789v-676l-55 -134c106 0 206 -43 206 -154c0 -120 -114 -170 -224 -171z" />
    <glyph glyph-name="Hbar" unicode="&#x126;" horiz-adv-x="1340" 
d="M272 743h789v278h-789v-278zM272 669v-669h-82v1021h-134v68h134v271h82v-271h789v271h82v-271h141v-68h-141v-1021h-82v669h-789z" />
    <glyph glyph-name="I" unicode="I" horiz-adv-x="493" 
d="M287 0h-81v1360h81v-1360z" />
    <glyph glyph-name="Idotaccent" unicode="&#x130;" horiz-adv-x="493" 
d="M287 0h-81v1360h81v-1360zM173 1650c0 41 32 72 73 72s73 -31 73 -72c0 -40 -32 -72 -73 -72s-73 32 -73 72z" />
    <glyph glyph-name="Igrave" unicode="&#xcc;" horiz-adv-x="493" 
d="M287 0h-81v1360h81v-1360zM292 1512h-72l-247 294h90z" />
    <glyph glyph-name="Idblgrave" unicode="&#x208;" horiz-adv-x="493" 
d="M287 0h-81v1360h81v-1360zM177 1512h-75l-309 255h102zM441 1512h-76l-308 255h101z" />
    <glyph glyph-name="Iacute" unicode="&#xcd;" horiz-adv-x="493" 
d="M287 0h-81v1360h81v-1360zM272 1512h-72l230 294h89z" />
    <glyph glyph-name="Icircumflex" unicode="&#xce;" horiz-adv-x="502" 
d="M292 0h-81v1360h81v-1360zM-32 1512l258 228h44l258 -228h-92l-186 164h-4l-186 -164h-92z" />
    <glyph glyph-name="Icaron" unicode="&#x1cf;" horiz-adv-x="502" 
d="M292 0h-81v1360h81v-1360zM-32 1737h92l186 -163h4l186 163h92l-258 -228h-44z" />
    <glyph glyph-name="Idieresis" unicode="&#xcf;" horiz-adv-x="494" 
d="M288 0h-81v1360h81v-1360zM102 1511c-35 0 -63 28 -63 63c0 37 28 64 63 64s63 -27 63 -64c0 -35 -28 -63 -63 -63zM391 1511c-35 0 -63 28 -63 63c0 37 28 64 63 64c36 0 63 -27 63 -64c0 -35 -27 -63 -63 -63z" />
    <glyph glyph-name="Idieresisacute" unicode="&#x1e2e;" horiz-adv-x="493" 
d="M287 0h-81v1360h81v-1360zM196 1708l299 230h107l-316 -230h-90zM102 1511c-35 0 -63 28 -63 63c0 37 28 64 63 64s63 -27 63 -64c0 -35 -28 -63 -63 -63zM391 1511c-35 0 -63 28 -63 63c0 37 28 64 63 64c36 0 63 -27 63 -64c0 -35 -27 -63 -63 -63z" />
    <glyph glyph-name="Ibreve" unicode="&#x12c;" horiz-adv-x="493" 
d="M287 0h-81v1360h81v-1360zM-22 1741h67c0 -103 73 -170 201 -170s194 67 194 170h67c0 -117 -81 -232 -261 -232s-268 112 -268 232z" />
    <glyph glyph-name="Idotbelow" unicode="&#x1eca;" horiz-adv-x="495" 
d="M288 0h-81v1360h81v-1360zM179 -287c0 40 31 70 67 70c40 0 71 -30 71 -70c0 -39 -31 -69 -71 -69c-36 0 -67 30 -67 69z" />
    <glyph glyph-name="Iinvertedbreve" unicode="&#x20a;" horiz-adv-x="493" 
d="M287 0h-81v1360h81v-1360zM246 1703c-128 0 -201 -77 -201 -181h-67c0 121 88 242 268 242s261 -124 261 -242h-67c0 104 -66 181 -194 181z" />
    <glyph glyph-name="Imacron" unicode="&#x12a;" horiz-adv-x="494" 
d="M287 0h-81v1360h81v-1360zM515 1540h-536v59h536v-59z" />
    <glyph glyph-name="Itildebelow" unicode="&#x1e2c;" horiz-adv-x="493" 
d="M285 0h-81v1360h81v-1360zM374 -382c-140 0 -166 157 -262 157c-54 0 -98 -51 -98 -140h-62c0 125 64 198 160 198c138 0 156 -156 261 -156c64 0 99 59 100 145h62c0 -113 -56 -204 -161 -204z" />
    <glyph glyph-name="Ihookabove" unicode="&#x1ec8;" horiz-adv-x="493" 
d="M287 0h-81v1360h81v-1360zM126 1662v53c13 11 53 25 92 25c88 0 154 -50 154 -129c0 -72 -60 -109 -98 -130l-36 43c37 22 70 47 70 86c0 44 -37 75 -96 75c-33 0 -62 -10 -86 -23z" />
    <glyph glyph-name="Itilde" unicode="&#x128;" horiz-adv-x="493" 
d="M287 0h-81v1360h81v-1360zM370 1509c-133 0 -156 111 -249 111c-52 0 -89 -41 -89 -111h-61c0 106 60 166 150 166c129 0 150 -111 249 -111c60 0 90 37 91 111h61c0 -98 -51 -166 -152 -166z" />
    <glyph glyph-name="Iogonek" unicode="&#x12e;" horiz-adv-x="493" 
d="M328 -353c-17 -10 -49 -21 -104 -21c-92 0 -165 54 -165 165c0 108 74 182 147 233v1336h81v-1360c-78 -43 -152 -109 -152 -199c0 -69 46 -109 109 -109c34 0 62 6 84 14v-59z" />
    <glyph glyph-name="J" unicode="J" horiz-adv-x="929" 
d="M59 295h81c1 -103 70 -240 263 -240c156 0 272 93 272 301v1004h82v-1000c0 -259 -146 -380 -356 -380c-250 0 -342 177 -342 315z" />
    <glyph glyph-name="Jcircumflex" unicode="&#x134;" horiz-adv-x="929" 
d="M59 295h81c1 -103 70 -240 263 -240c156 0 272 93 272 301v1004h82v-1000c0 -259 -146 -380 -356 -380c-250 0 -342 177 -342 315zM436 1512l258 228h44l258 -228h-92l-186 164h-4l-186 -164h-92z" />
    <glyph glyph-name="K" unicode="K" horiz-adv-x="1134" 
d="M1060 1360l-558 -604l590 -756h-106l-544 700l-170 -179v-521h-82v1360h82v-730h3l681 730h104z" />
    <glyph glyph-name="Kacute" unicode="&#x1e30;" horiz-adv-x="1134" 
d="M575 1512h-72l230 294h89zM1060 1360l-558 -604l590 -756h-106l-544 700l-170 -179v-521h-82v1360h82v-730h3l681 730h104z" />
    <glyph glyph-name="Kcaron" unicode="&#x1e8;" horiz-adv-x="1134" 
d="M1060 1360l-558 -604l590 -756h-106l-544 700l-170 -179v-521h-82v1360h82v-730h3l681 730h104zM269 1737h92l186 -163h4l186 163h92l-258 -228h-44z" />
    <glyph glyph-name="Kdotbelow" unicode="&#x1e32;" horiz-adv-x="1134" 
d="M488 -287c0 40 31 70 67 70c40 0 71 -30 71 -70c0 -39 -31 -69 -71 -69c-36 0 -67 30 -67 69zM1060 1360l-558 -604l590 -756h-106l-544 700l-170 -179v-521h-82v1360h82v-730h3l681 730h104z" />
    <glyph glyph-name="Klinebelow" unicode="&#x1e34;" horiz-adv-x="1134" 
d="M1060 1360l-558 -604l590 -756h-106l-544 700l-170 -179v-521h-82v1360h82v-730h3l681 730h104zM832 -303h-553v61h553v-61z" />
    <glyph glyph-name="Kcommaaccent" unicode="&#x136;" horiz-adv-x="1134" 
d="M1060 1360l-558 -604l590 -756h-106l-544 700l-170 -179v-521h-82v1360h82v-730h3l681 730h104zM493 -481h-60l85 335h89z" />
    <glyph glyph-name="L" unicode="L" horiz-adv-x="1013" 
d="M955 75v-75h-765v1360h82v-1285h683z" />
    <glyph glyph-name="Lacute" unicode="&#x139;" horiz-adv-x="1013" 
d="M257 1512h-72l230 294h89zM955 75v-75h-765v1360h82v-1285h683z" />
    <glyph glyph-name="Lcircumflexbelow" unicode="&#x1e3c;" horiz-adv-x="1013" 
d="M955 75v-75h-765v1360h82v-1285h683zM262 -413l230 280h62l230 -280h-73l-186 229h-4l-186 -229h-73z" />
    <glyph glyph-name="Ldotbelow" unicode="&#x1e36;" horiz-adv-x="1013" 
d="M456 -287c0 40 31 70 67 70c40 0 71 -30 71 -70c0 -39 -31 -69 -71 -69c-36 0 -67 30 -67 69zM955 75v-75h-765v1360h82v-1285h683z" />
    <glyph glyph-name="Ldotbelowmacron" unicode="&#x1e38;" horiz-adv-x="1013" 
d="M456 -287c0 40 31 70 67 70c40 0 71 -30 71 -70c0 -39 -31 -69 -71 -69c-36 0 -67 30 -67 69zM955 75v-75h-765v1360h82v-1285h683zM499 1540h-536v59h536v-59z" />
    <glyph glyph-name="Llinebelow" unicode="&#x1e3a;" horiz-adv-x="1013" 
d="M800 -303h-553v61h553v-61zM955 75v-75h-765v1360h82v-1285h683z" />
    <glyph glyph-name="Lcommaaccent" unicode="&#x13b;" horiz-adv-x="1013" 
d="M461 -481h-60l85 335h89zM955 75v-75h-765v1360h82v-1285h683z" />
    <glyph glyph-name="Lcaron" unicode="&#x13d;" horiz-adv-x="1013" 
d="M615 1436h84l-28 -488h-56v488zM955 75v-75h-765v1360h82v-1285h683z" />
    <glyph glyph-name="Lslash" unicode="&#x141;" horiz-adv-x="1013" 
d="M955 0h-765v585l-149 -88v81l149 88v694h82v-646l446 263v-84l-446 -261v-557h683v-75z" />
    <glyph glyph-name="M" unicode="M" horiz-adv-x="1575" 
d="M267 0h-75v1360h81l512 -1160h4l514 1160h80v-1360h-75v1177h-4l-478 -1072h-77l-478 1072h-4v-1177z" />
    <glyph glyph-name="Macute" unicode="&#x1e3e;" horiz-adv-x="1575" 
d="M813 1512h-72l230 294h89zM267 0h-75v1360h81l512 -1160h4l514 1160h80v-1360h-75v1177h-4l-478 -1072h-77l-478 1072h-4v-1177z" />
    <glyph glyph-name="Mdotaccent" unicode="&#x1e40;" horiz-adv-x="1575" 
d="M714 1650c0 41 32 72 73 72s73 -31 73 -72c0 -40 -32 -72 -73 -72s-73 32 -73 72zM267 0h-75v1360h81l512 -1160h4l514 1160h80v-1360h-75v1177h-4l-478 -1072h-77l-478 1072h-4v-1177z" />
    <glyph glyph-name="Mdotbelow" unicode="&#x1e42;" horiz-adv-x="1575" 
d="M720 -287c0 40 31 70 67 70c40 0 71 -30 71 -70c0 -39 -31 -69 -71 -69c-36 0 -67 30 -67 69zM267 0h-75v1360h81l512 -1160h4l514 1160h80v-1360h-75v1177h-4l-478 -1072h-77l-478 1072h-4v-1177z" />
    <glyph glyph-name="N" unicode="N" horiz-adv-x="1334" 
d="M271 0h-81v1360h85l784 -1216h4v1216h80v-1360h-84l-784 1216h-4v-1216z" />
    <glyph glyph-name="Ngrave" unicode="&#x1f8;" horiz-adv-x="1334" 
d="M713 1512h-72l-247 294h90zM271 0h-81v1360h85l784 -1216h4v1216h80v-1360h-84l-784 1216h-4v-1216z" />
    <glyph glyph-name="Nacute" unicode="&#x143;" horiz-adv-x="1334" 
d="M693 1512h-72l230 294h89zM271 0h-81v1360h85l784 -1216h4v1216h80v-1360h-84l-784 1216h-4v-1216z" />
    <glyph glyph-name="Ntilde" unicode="&#xd1;" horiz-adv-x="1334" 
d="M782 1509c-133 0 -156 111 -249 111c-52 0 -89 -41 -89 -111h-61c0 106 60 166 150 166c129 0 150 -111 249 -111c60 0 90 37 91 111h61c0 -98 -51 -166 -152 -166zM271 0h-81v1360h85l784 -1216h4v1216h80v-1360h-84l-784 1216h-4v-1216z" />
    <glyph glyph-name="Ndotbelow" unicode="&#x1e46;" horiz-adv-x="1334" 
d="M600 -287c0 40 31 70 67 70c40 0 71 -30 71 -70c0 -39 -31 -69 -71 -69c-36 0 -67 30 -67 69zM271 0h-81v1360h85l784 -1216h4v1216h80v-1360h-84l-784 1216h-4v-1216z" />
    <glyph glyph-name="Ndotaccent" unicode="&#x1e44;" horiz-adv-x="1334" 
d="M594 1650c0 41 32 72 73 72s73 -31 73 -72c0 -40 -32 -72 -73 -72s-73 32 -73 72zM271 0h-81v1360h85l784 -1216h4v1216h80v-1360h-84l-784 1216h-4v-1216z" />
    <glyph glyph-name="Ncaron" unicode="&#x147;" horiz-adv-x="1334" 
d="M387 1737h92l186 -163h4l186 163h92l-258 -228h-44zM271 0h-81v1360h85l784 -1216h4v1216h80v-1360h-84l-784 1216h-4v-1216z" />
    <glyph glyph-name="Ncircumflexbelow" unicode="&#x1e4a;" horiz-adv-x="1334" 
d="M271 0h-81v1360h85l784 -1216h4v1216h80v-1360h-84l-784 1216h-4v-1216zM406 -413l230 280h62l230 -280h-73l-186 229h-4l-186 -229h-73z" />
    <glyph glyph-name="Nlinebelow" unicode="&#x1e48;" horiz-adv-x="1334" 
d="M944 -303h-553v61h553v-61zM271 0h-81v1360h85l784 -1216h4v1216h80v-1360h-84l-784 1216h-4v-1216z" />
    <glyph glyph-name="Ncommaaccent" unicode="&#x145;" horiz-adv-x="1334" 
d="M605 -481h-60l85 335h89zM271 0h-81v1360h85l784 -1216h4v1216h80v-1360h-84l-784 1216h-4v-1216z" />
    <glyph glyph-name="O" unicode="O" horiz-adv-x="1310" 
d="M216 806v-256c0 -307 167 -507 439 -507s438 200 438 507v256c0 307 -169 510 -438 510c-270 0 -439 -203 -439 -510zM135 556v244c0 358 191 591 520 591s520 -234 520 -593v-242c0 -358 -192 -587 -521 -587s-519 229 -519 587z" />
    <glyph glyph-name="Odieresis" unicode="&#xd6;" horiz-adv-x="1310" 
d="M510 1511c-35 0 -63 28 -63 63c0 37 28 64 63 64s63 -27 63 -64c0 -35 -28 -63 -63 -63zM799 1511c-35 0 -63 28 -63 63c0 37 28 64 63 64c36 0 63 -27 63 -64c0 -35 -27 -63 -63 -63zM216 806v-256c0 -307 167 -507 439 -507s438 200 438 507v256
c0 307 -169 510 -438 510c-270 0 -439 -203 -439 -510zM135 556v244c0 358 191 591 520 591s520 -234 520 -593v-242c0 -358 -192 -587 -521 -587s-519 229 -519 587z" />
    <glyph glyph-name="Oslash" unicode="&#xd8;" horiz-adv-x="1309" 
d="M654 -31c-181 0 -319 69 -407 192l-112 -133l-50 41l126 147c-50 93 -76 208 -76 341v242c0 359 190 592 520 592c175 0 310 -67 398 -181l118 139l52 -36l-133 -157c55 -96 84 -216 84 -357v-242c0 -358 -190 -588 -520 -588zM216 550c0 -101 18 -190 52 -265l731 860
c-76 108 -194 171 -345 171c-270 0 -438 -203 -438 -510v-256zM654 43c273 0 439 200 439 507v256c0 108 -21 203 -60 281l-732 -862c75 -114 196 -182 353 -182z" />
    <glyph glyph-name="Otilde" unicode="&#xd5;" horiz-adv-x="1310" 
d="M216 806v-256c0 -307 167 -507 439 -507s438 200 438 507v256c0 307 -169 510 -438 510c-270 0 -439 -203 -439 -510zM135 556v244c0 358 191 591 520 591s520 -234 520 -593v-242c0 -358 -192 -587 -521 -587s-519 229 -519 587zM769 1509c-133 0 -156 111 -249 111
c-52 0 -89 -41 -89 -111h-61c0 106 60 166 150 166c129 0 150 -111 249 -111c60 0 90 37 91 111h61c0 -98 -51 -166 -152 -166z" />
    <glyph glyph-name="Oacute" unicode="&#xd3;" horiz-adv-x="1310" 
d="M680 1512h-72l230 294h89zM216 806v-256c0 -307 167 -507 439 -507s438 200 438 507v256c0 307 -169 510 -438 510c-270 0 -439 -203 -439 -510zM135 556v244c0 358 191 591 520 591s520 -234 520 -593v-242c0 -358 -192 -587 -521 -587s-519 229 -519 587z" />
    <glyph glyph-name="Ocircumflex" unicode="&#xd4;" horiz-adv-x="1310" 
d="M372 1512l258 228h44l258 -228h-92l-186 164h-4l-186 -164h-92zM216 806v-256c0 -307 167 -507 439 -507s438 200 438 507v256c0 307 -169 510 -438 510c-270 0 -439 -203 -439 -510zM135 556v244c0 358 191 591 520 591s520 -234 520 -593v-242
c0 -358 -192 -587 -521 -587s-519 229 -519 587z" />
    <glyph glyph-name="Ograve" unicode="&#xd2;" horiz-adv-x="1310" 
d="M700 1512h-72l-247 294h90zM216 806v-256c0 -307 167 -507 439 -507s438 200 438 507v256c0 307 -169 510 -438 510c-270 0 -439 -203 -439 -510zM135 556v244c0 358 191 591 520 591s520 -234 520 -593v-242c0 -358 -192 -587 -521 -587s-519 229 -519 587z" />
    <glyph glyph-name="Ocircumflexhookabove" unicode="&#x1ed4;" horiz-adv-x="1310" 
d="M357 1512l276 205h42l276 -205h-99l-196 146h-4l-196 -146h-99zM759 1869v51c16 11 52 24 87 24c83 0 145 -51 145 -126c0 -65 -48 -103 -91 -125l-34 43c39 21 64 44 64 81c0 42 -36 74 -92 74c-28 0 -56 -9 -79 -22zM216 806v-256c0 -307 167 -507 439 -507
s438 200 438 507v256c0 307 -169 510 -438 510c-270 0 -439 -203 -439 -510zM135 556v244c0 358 191 591 520 591s520 -234 520 -593v-242c0 -358 -192 -587 -521 -587s-519 229 -519 587z" />
    <glyph glyph-name="Ocircumflexgrave" unicode="&#x1ed2;" horiz-adv-x="1310" 
d="M357 1512l276 205h42l276 -205h-99l-196 146h-4l-196 -146h-99zM1069 1693h-80l-298 233h103zM216 806v-256c0 -307 167 -507 439 -507s438 200 438 507v256c0 307 -169 510 -438 510c-270 0 -439 -203 -439 -510zM135 556v244c0 358 191 591 520 591s520 -234 520 -593
v-242c0 -358 -192 -587 -521 -587s-519 229 -519 587z" />
    <glyph glyph-name="Odotbelow" unicode="&#x1ecc;" horiz-adv-x="1310" 
d="M586 -287c0 40 31 70 67 70c40 0 71 -30 71 -70c0 -39 -31 -69 -71 -69c-36 0 -67 30 -67 69zM216 806v-256c0 -307 167 -507 439 -507s438 200 438 507v256c0 307 -169 510 -438 510c-270 0 -439 -203 -439 -510zM135 556v244c0 358 191 591 520 591s520 -234 520 -593
v-242c0 -358 -192 -587 -521 -587s-519 229 -519 587z" />
    <glyph glyph-name="Odblgrave" unicode="&#x20c;" horiz-adv-x="1310" 
d="M585 1512h-75l-309 255h102zM849 1512h-76l-308 255h101zM216 806v-256c0 -307 167 -507 439 -507s438 200 438 507v256c0 307 -169 510 -438 510c-270 0 -439 -203 -439 -510zM135 556v244c0 358 191 591 520 591s520 -234 520 -593v-242c0 -358 -192 -587 -521 -587
s-519 229 -519 587z" />
    <glyph glyph-name="Otildeacute" unicode="&#x1e4c;" horiz-adv-x="1310" 
d="M216 806v-256c0 -307 167 -507 439 -507s438 200 438 507v256c0 307 -169 510 -438 510c-270 0 -439 -203 -439 -510zM135 556v244c0 358 191 591 520 591s520 -234 520 -593v-242c0 -358 -192 -587 -521 -587s-519 229 -519 587zM586 1708l299 230h107l-316 -230h-90z
M769 1509c-133 0 -156 111 -249 111c-52 0 -89 -41 -89 -111h-61c0 106 60 166 150 166c129 0 150 -111 249 -111c60 0 90 37 91 111h61c0 -98 -51 -166 -152 -166z" />
    <glyph glyph-name="Omacronacute" unicode="&#x1e52;" horiz-adv-x="1310" 
d="M589 1708l299 230h107l-316 -230h-90zM922 1540h-536v59h536v-59zM216 806v-256c0 -307 167 -507 439 -507s438 200 438 507v256c0 307 -169 510 -438 510c-270 0 -439 -203 -439 -510zM135 556v244c0 358 191 591 520 591s520 -234 520 -593v-242
c0 -358 -192 -587 -521 -587s-519 229 -519 587z" />
    <glyph glyph-name="Ocircumflextilde" unicode="&#x1ed6;" horiz-adv-x="1310" 
d="M357 1512l276 205h42l276 -205h-99l-196 146h-4l-196 -146h-99zM450 1773h-62c0 103 63 157 149 157c121 0 142 -103 242 -103c58 0 90 29 91 102h62c0 -96 -56 -159 -154 -159c-124 0 -147 104 -239 104c-49 0 -89 -31 -89 -101zM216 806v-256c0 -307 167 -507 439 -507
s438 200 438 507v256c0 307 -169 510 -438 510c-270 0 -439 -203 -439 -510zM135 556v244c0 358 191 591 520 591s520 -234 520 -593v-242c0 -358 -192 -587 -521 -587s-519 229 -519 587z" />
    <glyph glyph-name="Odotaccentmacron" unicode="&#x230;" horiz-adv-x="1310" 
d="M581 1605c0 41 32 72 73 72s73 -31 73 -72c0 -40 -32 -72 -73 -72s-73 32 -73 72zM922 1809h-536v59h536v-59zM216 806v-256c0 -307 167 -507 439 -507s438 200 438 507v256c0 307 -169 510 -438 510c-270 0 -439 -203 -439 -510zM135 556v244c0 358 191 591 520 591
s520 -234 520 -593v-242c0 -358 -192 -587 -521 -587s-519 229 -519 587z" />
    <glyph glyph-name="Omacrongrave" unicode="&#x1e50;" horiz-adv-x="1310" 
d="M719 1708h-90l-316 230h107zM922 1540h-536v59h536v-59zM216 806v-256c0 -307 167 -507 439 -507s438 200 438 507v256c0 307 -169 510 -438 510c-270 0 -439 -203 -439 -510zM135 556v244c0 358 191 591 520 591s520 -234 520 -593v-242c0 -358 -192 -587 -521 -587
s-519 229 -519 587z" />
    <glyph glyph-name="Ocaron" unicode="&#x1d1;" horiz-adv-x="1310" 
d="M372 1737h92l186 -163h4l186 163h92l-258 -228h-44zM216 806v-256c0 -307 167 -507 439 -507s438 200 438 507v256c0 307 -169 510 -438 510c-270 0 -439 -203 -439 -510zM135 556v244c0 358 191 591 520 591s520 -234 520 -593v-242c0 -358 -192 -587 -521 -587
s-519 229 -519 587z" />
    <glyph glyph-name="Oslashacute" unicode="&#x1fe;" horiz-adv-x="1309" 
d="M654 -31c-181 0 -319 69 -407 192l-112 -133l-50 41l126 147c-50 93 -76 208 -76 341v242c0 359 190 592 520 592c175 0 310 -67 398 -181l118 139l52 -36l-133 -157c55 -96 84 -216 84 -357v-242c0 -358 -190 -588 -520 -588zM216 550c0 -101 18 -190 52 -265l731 860
c-76 108 -194 171 -345 171c-270 0 -438 -203 -438 -510v-256zM654 43c273 0 439 200 439 507v256c0 108 -21 203 -60 281l-732 -862c75 -114 196 -182 353 -182zM680 1512h-72l230 294h89z" />
    <glyph glyph-name="Ohungarumlaut" unicode="&#x150;" horiz-adv-x="1310" 
d="M449 1512l282 255h102l-301 -255h-83zM713 1512l282 255h102l-301 -255h-83zM216 806v-256c0 -307 167 -507 439 -507s438 200 438 507v256c0 307 -169 510 -438 510c-270 0 -439 -203 -439 -510zM135 556v244c0 358 191 591 520 591s520 -234 520 -593v-242
c0 -358 -192 -587 -521 -587s-519 229 -519 587z" />
    <glyph glyph-name="Obreve" unicode="&#x14e;" horiz-adv-x="1310" 
d="M216 806v-256c0 -307 167 -507 439 -507s438 200 438 507v256c0 307 -169 510 -438 510c-270 0 -439 -203 -439 -510zM135 556v244c0 358 191 591 520 591s520 -234 520 -593v-242c0 -358 -192 -587 -521 -587s-519 229 -519 587zM386 1741h67c0 -103 73 -170 201 -170
s194 67 194 170h67c0 -117 -81 -232 -261 -232s-268 112 -268 232z" />
    <glyph glyph-name="Oinvertedbreve" unicode="&#x20e;" horiz-adv-x="1310" 
d="M654 1703c-128 0 -201 -77 -201 -181h-67c0 121 88 242 268 242s261 -124 261 -242h-67c0 104 -66 181 -194 181zM216 806v-256c0 -307 167 -507 439 -507s438 200 438 507v256c0 307 -169 510 -438 510c-270 0 -439 -203 -439 -510zM135 556v244c0 358 191 591 520 591
s520 -234 520 -593v-242c0 -358 -192 -587 -521 -587s-519 229 -519 587z" />
    <glyph glyph-name="Ohookabove" unicode="&#x1ece;" horiz-adv-x="1310" 
d="M534 1662v53c13 11 53 25 92 25c88 0 154 -50 154 -129c0 -72 -60 -109 -98 -130l-36 43c37 22 70 47 70 86c0 44 -37 75 -96 75c-33 0 -62 -10 -86 -23zM216 806v-256c0 -307 167 -507 439 -507s438 200 438 507v256c0 307 -169 510 -438 510
c-270 0 -439 -203 -439 -510zM135 556v244c0 358 191 591 520 591s520 -234 520 -593v-242c0 -358 -192 -587 -521 -587s-519 229 -519 587z" />
    <glyph glyph-name="Odieresismacron" unicode="&#x22a;" horiz-adv-x="1310" 
d="M216 806v-256c0 -307 167 -507 439 -507s438 200 438 507v256c0 307 -169 510 -438 510c-270 0 -439 -203 -439 -510zM135 556v244c0 358 191 591 520 591s520 -234 520 -593v-242c0 -358 -192 -587 -521 -587s-519 229 -519 587zM510 1511c-35 0 -63 28 -63 63
c0 37 28 64 63 64s63 -27 63 -64c0 -35 -28 -63 -63 -63zM799 1511c-35 0 -63 28 -63 63c0 37 28 64 63 64c36 0 63 -27 63 -64c0 -35 -27 -63 -63 -63zM922 1809h-536v59h536v-59z" />
    <glyph glyph-name="Otildemacron" unicode="&#x22c;" horiz-adv-x="1310" 
d="M769 1509c-133 0 -156 111 -249 111c-52 0 -89 -41 -89 -111h-61c0 106 60 166 150 166c129 0 150 -111 249 -111c60 0 90 37 91 111h61c0 -98 -51 -166 -152 -166zM922 1809h-536v59h536v-59zM216 806v-256c0 -307 167 -507 439 -507s438 200 438 507v256
c0 307 -169 510 -438 510c-270 0 -439 -203 -439 -510zM135 556v244c0 358 191 591 520 591s520 -234 520 -593v-242c0 -358 -192 -587 -521 -587s-519 229 -519 587z" />
    <glyph glyph-name="Odotaccent" unicode="&#x22e;" horiz-adv-x="1310" 
d="M581 1650c0 41 32 72 73 72s73 -31 73 -72c0 -40 -32 -72 -73 -72s-73 32 -73 72zM216 806v-256c0 -307 167 -507 439 -507s438 200 438 507v256c0 307 -169 510 -438 510c-270 0 -439 -203 -439 -510zM135 556v244c0 358 191 591 520 591s520 -234 520 -593v-242
c0 -358 -192 -587 -521 -587s-519 229 -519 587z" />
    <glyph glyph-name="Ocircumflexdotbelow" unicode="&#x1ed8;" horiz-adv-x="1310" 
d="M586 -287c0 40 31 70 67 70c40 0 71 -30 71 -70c0 -39 -31 -69 -71 -69c-36 0 -67 30 -67 69zM372 1512l258 228h44l258 -228h-92l-186 164h-4l-186 -164h-92zM216 806v-256c0 -307 167 -507 439 -507s438 200 438 507v256c0 307 -169 510 -438 510
c-270 0 -439 -203 -439 -510zM135 556v244c0 358 191 591 520 591s520 -234 520 -593v-242c0 -358 -192 -587 -521 -587s-519 229 -519 587z" />
    <glyph glyph-name="Ocircumflexacute" unicode="&#x1ed0;" horiz-adv-x="1310" 
d="M357 1512l276 205h42l276 -205h-99l-196 146h-4l-196 -146h-99zM820 1712l246 214h103l-268 -214h-81zM216 806v-256c0 -307 167 -507 439 -507s438 200 438 507v256c0 307 -169 510 -438 510c-270 0 -439 -203 -439 -510zM135 556v244c0 358 191 591 520 591
s520 -234 520 -593v-242c0 -358 -192 -587 -521 -587s-519 229 -519 587z" />
    <glyph glyph-name="Otildedieresis" unicode="&#x1e4e;" horiz-adv-x="1310" 
d="M510 1765c-35 0 -63 28 -63 63c0 37 28 64 63 64s63 -27 63 -64c0 -35 -28 -63 -63 -63zM799 1765c-35 0 -63 28 -63 63c0 37 28 64 63 64c36 0 63 -27 63 -64c0 -35 -27 -63 -63 -63zM769 1509c-133 0 -156 111 -249 111c-52 0 -89 -41 -89 -111h-61
c0 106 60 166 150 166c129 0 150 -111 249 -111c60 0 90 37 91 111h61c0 -98 -51 -166 -152 -166zM216 806v-256c0 -307 167 -507 439 -507s438 200 438 507v256c0 307 -169 510 -438 510c-270 0 -439 -203 -439 -510zM135 556v244c0 358 191 591 520 591s520 -234 520 -593
v-242c0 -358 -192 -587 -521 -587s-519 229 -519 587z" />
    <glyph glyph-name="Omacron" unicode="&#x14c;" horiz-adv-x="1310" 
d="M216 806v-256c0 -307 167 -507 439 -507s438 200 438 507v256c0 307 -169 510 -438 510c-270 0 -439 -203 -439 -510zM135 556v244c0 358 191 591 520 591s520 -234 520 -593v-242c0 -358 -192 -587 -521 -587s-519 229 -519 587zM923 1540h-536v59h536v-59z" />
    <glyph glyph-name="Oogonek" unicode="&#x1ea;" horiz-adv-x="1310" 
d="M216 806v-256c0 -307 167 -507 439 -507c271 0 438 200 438 507v256c0 307 -169 510 -438 510c-270 0 -439 -203 -439 -510zM651 -31c-325 0 -516 229 -516 587v244c0 358 191 591 520 591s520 -234 520 -593v-242c0 -236 -83 -389 -206 -499
c-81 -74 -163 -156 -163 -247c0 -74 55 -116 130 -116c31 0 61 5 85 14v-61c-18 -10 -49 -21 -104 -21c-98 0 -187 57 -187 173c0 77 37 144 108 208l-1 2c-56 -27 -117 -40 -186 -40z" />
    <glyph glyph-name="Oogonekmacron" unicode="&#x1ec;" horiz-adv-x="1309" 
d="M216 806v-256c0 -307 167 -507 439 -507c271 0 438 200 438 507v256c0 307 -169 510 -438 510c-270 0 -439 -203 -439 -510zM651 -31c-325 0 -516 229 -516 587v244c0 358 191 591 520 591s520 -234 520 -593v-242c0 -236 -83 -389 -206 -499
c-81 -74 -163 -156 -163 -247c0 -74 55 -116 130 -116c31 0 61 5 85 14v-61c-18 -10 -49 -21 -104 -21c-98 0 -187 57 -187 173c0 77 37 144 108 208l-1 2c-56 -27 -117 -40 -186 -40zM922 1540h-536v59h536v-59z" />
    <glyph glyph-name="Ohorn" unicode="&#x1a0;" horiz-adv-x="1309" 
d="M1174 556c0 -358 -191 -587 -520 -587s-519 229 -519 587v244c0 358 191 591 520 591c164 0 269 -73 404 -73c101 0 150 56 150 150v101h76v-99c0 -183 -123 -237 -276 -210l-3 -5c100 -96 168 -253 168 -457v-242zM216 806v-256c0 -307 167 -507 438 -507
c272 0 439 200 439 507v256c0 307 -169 510 -439 510c-269 0 -438 -203 -438 -510z" />
    <glyph glyph-name="Ohorndotbelow" unicode="&#x1ee2;" horiz-adv-x="1309" 
d="M587 -287c0 40 31 70 67 70c40 0 71 -30 71 -70c0 -39 -31 -69 -71 -69c-36 0 -67 30 -67 69zM1174 556c0 -358 -191 -587 -520 -587s-519 229 -519 587v244c0 358 191 591 520 591c164 0 269 -73 404 -73c101 0 150 56 150 150v101h76v-99c0 -183 -123 -237 -276 -210
l-3 -5c100 -96 168 -253 168 -457v-242zM216 806v-256c0 -307 167 -507 438 -507c272 0 439 200 439 507v256c0 307 -169 510 -439 510c-269 0 -438 -203 -438 -510z" />
    <glyph glyph-name="Ohornhookabove" unicode="&#x1ede;" horiz-adv-x="1309" 
d="M534 1662v53c13 11 53 25 92 25c88 0 154 -50 154 -129c0 -72 -60 -109 -98 -130l-36 43c37 22 70 47 70 86c0 44 -37 75 -96 75c-33 0 -62 -10 -86 -23zM1174 556c0 -358 -191 -587 -520 -587s-519 229 -519 587v244c0 358 191 591 520 591c164 0 269 -73 404 -73
c101 0 150 56 150 150v101h76v-99c0 -183 -123 -237 -276 -210l-3 -5c100 -96 168 -253 168 -457v-242zM216 806v-256c0 -307 167 -507 438 -507c272 0 439 200 439 507v256c0 307 -169 510 -439 510c-269 0 -438 -203 -438 -510z" />
    <glyph glyph-name="Ohorntilde" unicode="&#x1ee0;" horiz-adv-x="1309" 
d="M1174 556c0 -358 -191 -587 -520 -587s-519 229 -519 587v244c0 358 191 591 520 591c164 0 269 -73 404 -73c101 0 150 56 150 150v101h76v-99c0 -183 -123 -237 -276 -210l-3 -5c100 -96 168 -253 168 -457v-242zM216 806v-256c0 -307 167 -507 438 -507
c272 0 439 200 439 507v256c0 307 -169 510 -439 510c-269 0 -438 -203 -438 -510zM769 1509c-133 0 -156 111 -249 111c-52 0 -89 -41 -89 -111h-61c0 106 60 166 150 166c129 0 150 -111 249 -111c60 0 90 37 91 111h61c0 -98 -51 -166 -152 -166z" />
    <glyph glyph-name="Ohorngrave" unicode="&#x1edc;" horiz-adv-x="1309" 
d="M700 1512h-72l-247 294h90zM1174 556c0 -358 -191 -587 -520 -587s-519 229 -519 587v244c0 358 191 591 520 591c164 0 269 -73 404 -73c101 0 150 56 150 150v101h76v-99c0 -183 -123 -237 -276 -210l-3 -5c100 -96 168 -253 168 -457v-242zM216 806v-256
c0 -307 167 -507 438 -507c272 0 439 200 439 507v256c0 307 -169 510 -439 510c-269 0 -438 -203 -438 -510z" />
    <glyph glyph-name="Ohornacute" unicode="&#x1eda;" horiz-adv-x="1309" 
d="M680 1512h-72l230 294h89zM1174 556c0 -358 -191 -587 -520 -587s-519 229 -519 587v244c0 358 191 591 520 591c164 0 269 -73 404 -73c101 0 150 56 150 150v101h76v-99c0 -183 -123 -237 -276 -210l-3 -5c100 -96 168 -253 168 -457v-242zM216 806v-256
c0 -307 167 -507 438 -507c272 0 439 200 439 507v256c0 307 -169 510 -439 510c-269 0 -438 -203 -438 -510z" />
    <glyph glyph-name="P" unicode="P" horiz-adv-x="1141" 
d="M190 1360h439c270 0 423 -156 423 -401s-153 -399 -423 -399h-357v-560h-82v1360zM272 1284v-650h327c234 0 369 107 369 325c0 205 -125 325 -342 325h-354z" />
    <glyph glyph-name="Pdotaccent" unicode="&#x1e56;" horiz-adv-x="1141" 
d="M190 1360h439c270 0 423 -156 423 -401s-153 -399 -423 -399h-357v-560h-82v1360zM272 1284v-650h327c234 0 369 107 369 325c0 205 -125 325 -342 325h-354zM482 1650c0 41 32 72 73 72s73 -31 73 -72c0 -40 -32 -72 -73 -72s-73 32 -73 72z" />
    <glyph glyph-name="Pacute" unicode="&#x1e54;" horiz-adv-x="1141" 
d="M581 1512h-72l230 294h89zM190 1360h439c270 0 423 -156 423 -401s-153 -399 -423 -399h-357v-560h-82v1360zM272 1284v-650h327c234 0 369 107 369 325c0 205 -125 325 -342 325h-354z" />
    <glyph glyph-name="Q" unicode="Q" horiz-adv-x="1310" 
d="M135 568v233c0 358 189 590 519 590s520 -232 520 -590v-233c0 -217 -70 -388 -199 -488l182 -248h-93l-152 206c-72 -39 -159 -60 -258 -60c-330 0 -519 231 -519 590zM216 807v-245c0 -308 166 -510 438 -510c80 0 151 18 210 50l-184 250h98l150 -206
c106 87 165 233 165 416v245c0 307 -168 509 -439 509c-270 0 -438 -202 -438 -509z" />
    <glyph glyph-name="R" unicode="R" horiz-adv-x="1187" 
d="M637 1360c259 0 411 -159 411 -382c0 -213 -128 -329 -289 -368l312 -610h-95l-302 594h-402v-594h-82v1360h447zM272 668h351c211 0 342 116 342 307c0 195 -132 311 -340 311h-353v-618z" />
    <glyph glyph-name="Rcaron" unicode="&#x158;" horiz-adv-x="1187" 
d="M637 1360c259 0 411 -159 411 -382c0 -213 -128 -329 -289 -368l312 -610h-95l-302 594h-402v-594h-82v1360h447zM272 668h351c211 0 342 116 342 307c0 195 -132 311 -340 311h-353v-618zM304 1737h92l186 -163h4l186 163h92l-258 -228h-44z" />
    <glyph glyph-name="Rlinebelow" unicode="&#x1e5e;" horiz-adv-x="1187" 
d="M637 1360c259 0 411 -159 411 -382c0 -213 -128 -329 -289 -368l312 -610h-95l-302 594h-402v-594h-82v1360h447zM272 668h351c211 0 342 116 342 307c0 195 -132 311 -340 311h-353v-618zM861 -303h-553v61h553v-61z" />
    <glyph glyph-name="Rdotbelowmacron" unicode="&#x1e5c;" horiz-adv-x="1187" 
d="M517 -287c0 40 31 70 67 70c40 0 71 -30 71 -70c0 -39 -31 -69 -71 -69c-36 0 -67 30 -67 69zM637 1360c259 0 411 -159 411 -382c0 -213 -128 -329 -289 -368l312 -610h-95l-302 594h-402v-594h-82v1360h447zM272 668h351c211 0 342 116 342 307
c0 195 -132 311 -340 311h-353v-618zM852 1540h-536v59h536v-59z" />
    <glyph glyph-name="Rdblgrave" unicode="&#x210;" horiz-adv-x="1187" 
d="M515 1512h-75l-309 255h102zM779 1512h-76l-308 255h101zM637 1360c259 0 411 -159 411 -382c0 -213 -128 -329 -289 -368l312 -610h-95l-302 594h-402v-594h-82v1360h447zM272 668h351c211 0 342 116 342 307c0 195 -132 311 -340 311h-353v-618z" />
    <glyph glyph-name="Rinvertedbreve" unicode="&#x212;" horiz-adv-x="1187" 
d="M637 1360c259 0 411 -159 411 -382c0 -213 -128 -329 -289 -368l312 -610h-95l-302 594h-402v-594h-82v1360h447zM272 668h351c211 0 342 116 342 307c0 195 -132 311 -340 311h-353v-618zM584 1703c-128 0 -201 -77 -201 -181h-67c0 121 88 242 268 242
s261 -124 261 -242h-67c0 104 -66 181 -194 181z" />
    <glyph glyph-name="Racute" unicode="&#x154;" horiz-adv-x="1187" 
d="M610 1512h-72l230 294h89zM637 1360c259 0 411 -159 411 -382c0 -213 -128 -329 -289 -368l312 -610h-95l-302 594h-402v-594h-82v1360h447zM272 668h351c211 0 342 116 342 307c0 195 -132 311 -340 311h-353v-618z" />
    <glyph glyph-name="Rdotbelow" unicode="&#x1e5a;" horiz-adv-x="1187" 
d="M517 -287c0 40 31 70 67 70c40 0 71 -30 71 -70c0 -39 -31 -69 -71 -69c-36 0 -67 30 -67 69zM637 1360c259 0 411 -159 411 -382c0 -213 -128 -329 -289 -368l312 -610h-95l-302 594h-402v-594h-82v1360h447zM272 668h351c211 0 342 116 342 307
c0 195 -132 311 -340 311h-353v-618z" />
    <glyph glyph-name="Rdotaccent" unicode="&#x1e58;" horiz-adv-x="1187" 
d="M511 1650c0 41 32 72 73 72s73 -31 73 -72c0 -40 -32 -72 -73 -72s-73 32 -73 72zM637 1360c259 0 411 -159 411 -382c0 -213 -128 -329 -289 -368l312 -610h-95l-302 594h-402v-594h-82v1360h447zM272 668h351c211 0 342 116 342 307c0 195 -132 311 -340 311h-353v-618
z" />
    <glyph glyph-name="Rcommaaccent" unicode="&#x156;" horiz-adv-x="1187" 
d="M637 1360c259 0 411 -159 411 -382c0 -213 -128 -329 -289 -368l312 -610h-95l-302 594h-402v-594h-82v1360h447zM272 668h351c211 0 342 116 342 307c0 195 -132 311 -340 311h-353v-618zM522 -481h-60l85 335h89z" />
    <glyph glyph-name="S" unicode="S" horiz-adv-x="1155" 
d="M106 345h83c5 -125 106 -301 390 -301c227 0 378 124 378 298c0 168 -111 236 -317 291l-178 48c-187 50 -311 150 -311 345c0 222 176 366 436 366c265 0 427 -150 429 -344h-84c-4 125 -103 269 -346 269c-217 0 -350 -115 -350 -289c0 -152 92 -226 263 -272l172 -47
c235 -64 370 -146 370 -362c0 -236 -197 -378 -471 -378c-345 0 -463 222 -464 376z" />
    <glyph glyph-name="Scaron" unicode="&#x160;" horiz-adv-x="1155" 
d="M106 345h83c5 -125 106 -301 390 -301c227 0 378 124 378 298c0 168 -111 236 -317 291l-178 48c-187 50 -311 150 -311 345c0 222 176 366 436 366c265 0 427 -150 429 -344h-84c-4 125 -103 269 -346 269c-217 0 -350 -115 -350 -289c0 -152 92 -226 263 -272l172 -47
c235 -64 370 -146 370 -362c0 -236 -197 -378 -471 -378c-345 0 -463 222 -464 376zM290 1737h92l186 -163h4l186 163h92l-258 -228h-44z" />
    <glyph glyph-name="Scedilla" unicode="&#x15e;" horiz-adv-x="1155" 
d="M559 -459c-53 -1 -102 8 -125 16v62c27 -9 75 -15 121 -15c73 0 151 30 151 104c0 69 -54 99 -150 99h-51v48l51 114c-335 6 -449 224 -450 376h83c5 -125 106 -301 390 -301c227 0 378 124 378 298c0 168 -111 236 -317 291l-178 48c-187 50 -311 150 -311 345
c0 222 176 366 436 366c265 0 427 -150 429 -344h-84c-4 125 -103 269 -346 269c-217 0 -350 -115 -350 -289c0 -152 92 -226 263 -272l172 -47c235 -64 370 -146 370 -362c0 -220 -171 -359 -417 -377l-45 -104c106 0 204 -43 204 -154c0 -119 -114 -170 -224 -171z" />
    <glyph glyph-name="Sdotaccent" unicode="&#x1e60;" horiz-adv-x="1155" 
d="M503 1650c0 41 32 72 73 72s73 -31 73 -72c0 -40 -32 -72 -73 -72s-73 32 -73 72zM106 345h83c5 -125 106 -301 390 -301c227 0 378 124 378 298c0 168 -111 236 -317 291l-178 48c-187 50 -311 150 -311 345c0 222 176 366 436 366c265 0 427 -150 429 -344h-84
c-4 125 -103 269 -346 269c-217 0 -350 -115 -350 -289c0 -152 92 -226 263 -272l172 -47c235 -64 370 -146 370 -362c0 -236 -197 -378 -471 -378c-345 0 -463 222 -464 376z" />
    <glyph glyph-name="Sdotbelow" unicode="&#x1e62;" horiz-adv-x="1155" 
d="M497 -287c0 40 31 70 67 70c40 0 71 -30 71 -70c0 -39 -31 -69 -71 -69c-36 0 -67 30 -67 69zM106 345h83c5 -125 106 -301 390 -301c227 0 378 124 378 298c0 168 -111 236 -317 291l-178 48c-187 50 -311 150 -311 345c0 222 176 366 436 366c265 0 427 -150 429 -344
h-84c-4 125 -103 269 -346 269c-217 0 -350 -115 -350 -289c0 -152 92 -226 263 -272l172 -47c235 -64 370 -146 370 -362c0 -236 -197 -378 -471 -378c-345 0 -463 222 -464 376z" />
    <glyph glyph-name="Scommaaccent" unicode="&#x218;" horiz-adv-x="1155" 
d="M106 345h83c5 -125 106 -301 390 -301c227 0 378 124 378 298c0 168 -111 236 -317 291l-178 48c-187 50 -311 150 -311 345c0 222 176 366 436 366c265 0 427 -150 429 -344h-84c-4 125 -103 269 -346 269c-217 0 -350 -115 -350 -289c0 -152 92 -226 263 -272l172 -47
c235 -64 370 -146 370 -362c0 -236 -197 -378 -471 -378c-345 0 -463 222 -464 376zM502 -481h-60l85 335h89z" />
    <glyph glyph-name="Sdotbelowdotaccent" unicode="&#x1e68;" horiz-adv-x="1155" 
d="M503 -287c0 40 31 70 67 70c40 0 71 -30 71 -70c0 -39 -31 -69 -71 -69c-36 0 -67 30 -67 69zM106 345h83c5 -125 106 -301 390 -301c227 0 378 124 378 298c0 168 -111 236 -317 291l-178 48c-187 50 -311 150 -311 345c0 222 176 366 436 366c265 0 427 -150 429 -344
h-84c-4 125 -103 269 -346 269c-217 0 -350 -115 -350 -289c0 -152 92 -226 263 -272l172 -47c235 -64 370 -146 370 -362c0 -236 -197 -378 -471 -378c-345 0 -463 222 -464 376zM503 1650c0 41 32 72 73 72s73 -31 73 -72c0 -40 -32 -72 -73 -72s-73 32 -73 72z" />
    <glyph glyph-name="Scarondotaccent" unicode="&#x1e66;" horiz-adv-x="1155" 
d="M279 1714h99l196 -145h4l196 145h99l-276 -205h-42zM505 1835c0 39 32 70 71 70s71 -31 71 -70c0 -38 -32 -69 -71 -69s-71 31 -71 69zM106 345h83c5 -125 106 -301 390 -301c227 0 378 124 378 298c0 168 -111 236 -317 291l-178 48c-187 50 -311 150 -311 345
c0 222 176 366 436 366c265 0 427 -150 429 -344h-84c-4 125 -103 269 -346 269c-217 0 -350 -115 -350 -289c0 -152 92 -226 263 -272l172 -47c235 -64 370 -146 370 -362c0 -236 -197 -378 -471 -378c-345 0 -463 222 -464 376z" />
    <glyph glyph-name="Scircumflex" unicode="&#x15c;" horiz-adv-x="1155" 
d="M106 345h83c5 -125 106 -301 390 -301c227 0 378 124 378 298c0 168 -111 236 -317 291l-178 48c-187 50 -311 150 -311 345c0 222 176 366 436 366c265 0 427 -150 429 -344h-84c-4 125 -103 269 -346 269c-217 0 -350 -115 -350 -289c0 -152 92 -226 263 -272l172 -47
c235 -64 370 -146 370 -362c0 -236 -197 -378 -471 -378c-345 0 -463 222 -464 376zM290 1512l258 228h44l258 -228h-92l-186 164h-4l-186 -164h-92z" />
    <glyph glyph-name="Sacutedotaccent" unicode="&#x1e64;" horiz-adv-x="1155" 
d="M622 1512h-72l230 294h89zM309 1702c0 41 32 72 73 72s73 -31 73 -72c0 -40 -32 -72 -73 -72s-73 32 -73 72zM106 345h83c5 -125 106 -301 390 -301c227 0 378 124 378 298c0 168 -111 236 -317 291l-178 48c-187 50 -311 150 -311 345c0 222 176 366 436 366
c265 0 427 -150 429 -344h-84c-4 125 -103 269 -346 269c-217 0 -350 -115 -350 -289c0 -152 92 -226 263 -272l172 -47c235 -64 370 -146 370 -362c0 -236 -197 -378 -471 -378c-345 0 -463 222 -464 376z" />
    <glyph glyph-name="Sacute" unicode="&#x15a;" horiz-adv-x="1155" 
d="M596 1512h-72l230 294h89zM106 345h83c5 -125 106 -301 390 -301c227 0 378 124 378 298c0 168 -111 236 -317 291l-178 48c-187 50 -311 150 -311 345c0 222 176 366 436 366c265 0 427 -150 429 -344h-84c-4 125 -103 269 -346 269c-217 0 -350 -115 -350 -289
c0 -152 92 -226 263 -272l172 -47c235 -64 370 -146 370 -362c0 -236 -197 -378 -471 -378c-345 0 -463 222 -464 376z" />
    <glyph glyph-name="T" unicode="T" horiz-adv-x="1067" 
d="M575 0h-81v1285h-444v75h967v-75h-442v-1285z" />
    <glyph glyph-name="Tcircumflexbelow" unicode="&#x1e70;" horiz-adv-x="1067" 
d="M575 0h-81v1285h-444v75h967v-75h-442v-1285zM274 -413l230 280h62l230 -280h-73l-186 229h-4l-186 -229h-73z" />
    <glyph glyph-name="Tdotbelow" unicode="&#x1e6c;" horiz-adv-x="1067" 
d="M465 -287c0 40 31 70 67 70c40 0 71 -30 71 -70c0 -39 -31 -69 -71 -69c-36 0 -67 30 -67 69zM575 0h-81v1285h-444v75h967v-75h-442v-1285z" />
    <glyph glyph-name="Tcommaaccent" unicode="&#x21a;" horiz-adv-x="1067" 
d="M472 -481h-60l85 335h89zM575 0h-81v1285h-444v75h967v-75h-442v-1285z" />
    <glyph glyph-name="Tdotaccent" unicode="&#x1e6a;" horiz-adv-x="1067" 
d="M461 1650c0 41 32 72 73 72s73 -31 73 -72c0 -40 -32 -72 -73 -72s-73 32 -73 72zM575 0h-81v1285h-444v75h967v-75h-442v-1285z" />
    <glyph glyph-name="Tcedilla" unicode="&#x162;" horiz-adv-x="1067" 
d="M500 -464c-54 -1 -103 8 -125 15v63c26 -9 75 -15 121 -15c72 0 151 30 151 104c0 69 -56 99 -153 99h-50v48l64 150h-14v1285h-444v75h967v-75h-442v-1285l-58 -139c106 0 207 -43 207 -154c0 -119 -114 -170 -224 -171z" />
    <glyph glyph-name="Tlinebelow" unicode="&#x1e6e;" horiz-adv-x="1067" 
d="M817 -303h-553v61h553v-61zM575 0h-81v1285h-444v75h967v-75h-442v-1285z" />
    <glyph glyph-name="Tcaron" unicode="&#x164;" horiz-adv-x="1067" 
d="M251 1737h92l186 -163h4l186 163h92l-258 -228h-44zM575 0h-81v1285h-444v75h967v-75h-442v-1285z" />
    <glyph glyph-name="Tbar" unicode="&#x166;" horiz-adv-x="1067" 
d="M841 691h-266v-691h-81v691h-268v68h268v526h-444v75h967v-75h-442v-526h266v-68z" />
    <glyph glyph-name="U" unicode="U" horiz-adv-x="1327" 
d="M258 1360v-891c0 -257 146 -423 405 -423c261 0 405 165 405 423v891h82v-896c0 -297 -177 -495 -487 -495s-486 198 -486 495v896h81z" />
    <glyph glyph-name="Ugrave" unicode="&#xd9;" horiz-adv-x="1327" 
d="M710 1512h-72l-247 294h90zM258 1360v-891c0 -257 146 -423 405 -423c261 0 405 165 405 423v891h82v-896c0 -297 -177 -495 -487 -495s-486 198 -486 495v896h81z" />
    <glyph glyph-name="Udblgrave" unicode="&#x214;" horiz-adv-x="1327" 
d="M595 1512h-75l-309 255h102zM859 1512h-76l-308 255h101zM258 1360v-891c0 -257 146 -423 405 -423c261 0 405 165 405 423v891h82v-896c0 -297 -177 -495 -487 -495s-486 198 -486 495v896h81z" />
    <glyph glyph-name="Uacute" unicode="&#xda;" horiz-adv-x="1327" 
d="M690 1512h-72l230 294h89zM258 1360v-891c0 -257 146 -423 405 -423c261 0 405 165 405 423v891h82v-896c0 -297 -177 -495 -487 -495s-486 198 -486 495v896h81z" />
    <glyph glyph-name="Uhungarumlaut" unicode="&#x170;" horiz-adv-x="1327" 
d="M258 1360v-891c0 -257 146 -423 405 -423c261 0 405 165 405 423v891h82v-896c0 -297 -177 -495 -487 -495s-486 198 -486 495v896h81zM459 1512l282 255h102l-301 -255h-83zM723 1512l282 255h102l-301 -255h-83z" />
    <glyph glyph-name="Ucircumflex" unicode="&#xdb;" horiz-adv-x="1327" 
d="M380 1512l258 228h44l258 -228h-92l-186 164h-4l-186 -164h-92zM258 1360v-891c0 -257 146 -423 405 -423c261 0 405 165 405 423v891h82v-896c0 -297 -177 -495 -487 -495s-486 198 -486 495v896h81z" />
    <glyph glyph-name="Ucaron" unicode="&#x1d3;" horiz-adv-x="1327" 
d="M380 1737h92l186 -163h4l186 163h92l-258 -228h-44zM258 1360v-891c0 -257 146 -423 405 -423c261 0 405 165 405 423v891h82v-896c0 -297 -177 -495 -487 -495s-486 198 -486 495v896h81z" />
    <glyph glyph-name="Ucircumflexbelow" unicode="&#x1e76;" horiz-adv-x="1327" 
d="M258 1360v-891c0 -257 146 -423 405 -423c261 0 405 165 405 423v891h82v-896c0 -297 -177 -495 -487 -495s-486 198 -486 495v896h81zM403 -413l230 280h62l230 -280h-73l-186 229h-4l-186 -229h-73z" />
    <glyph glyph-name="Udieresis" unicode="&#xdc;" horiz-adv-x="1327" 
d="M518 1511c-35 0 -63 28 -63 63c0 37 28 64 63 64s63 -27 63 -64c0 -35 -28 -63 -63 -63zM807 1511c-35 0 -63 28 -63 63c0 37 28 64 63 64c36 0 63 -27 63 -64c0 -35 -27 -63 -63 -63zM258 1360v-891c0 -257 146 -423 405 -423c261 0 405 165 405 423v891h82v-896
c0 -297 -177 -495 -487 -495s-486 198 -486 495v896h81z" />
    <glyph glyph-name="Udieresisgrave" unicode="&#x1db;" horiz-adv-x="1327" 
d="M714 1708h-90l-316 230h107zM520 1511c-35 0 -63 28 -63 63c0 37 28 64 63 64s63 -27 63 -64c0 -35 -28 -63 -63 -63zM809 1511c-35 0 -63 28 -63 63c0 37 28 64 63 64c36 0 63 -27 63 -64c0 -35 -27 -63 -63 -63zM258 1360v-891c0 -257 146 -423 405 -423
c261 0 405 165 405 423v891h82v-896c0 -297 -177 -495 -487 -495s-486 198 -486 495v896h81z" />
    <glyph glyph-name="Udieresisacute" unicode="&#x1d7;" horiz-adv-x="1327" 
d="M614 1708l299 230h107l-316 -230h-90zM520 1511c-35 0 -63 28 -63 63c0 37 28 64 63 64s63 -27 63 -64c0 -35 -28 -63 -63 -63zM809 1511c-35 0 -63 28 -63 63c0 37 28 64 63 64c36 0 63 -27 63 -64c0 -35 -27 -63 -63 -63zM258 1360v-891c0 -257 146 -423 405 -423
c261 0 405 165 405 423v891h82v-896c0 -297 -177 -495 -487 -495s-486 198 -486 495v896h81z" />
    <glyph glyph-name="Udieresismacron" unicode="&#x1d5;" horiz-adv-x="1327" 
d="M258 1360v-891c0 -257 146 -423 405 -423c261 0 405 165 405 423v891h82v-896c0 -297 -177 -495 -487 -495s-486 198 -486 495v896h81zM520 1511c-35 0 -63 28 -63 63c0 37 28 64 63 64s63 -27 63 -64c0 -35 -28 -63 -63 -63zM809 1511c-35 0 -63 28 -63 63
c0 37 28 64 63 64c36 0 63 -27 63 -64c0 -35 -27 -63 -63 -63zM932 1809h-536v59h536v-59z" />
    <glyph glyph-name="Udieresiscaron" unicode="&#x1d9;" horiz-adv-x="1327" 
d="M460 1571c0 37 30 67 66 67c37 0 67 -30 67 -67c0 -38 -30 -68 -67 -68c-36 0 -66 30 -66 68zM741 1571c0 37 30 67 66 67c38 0 68 -30 68 -67c0 -38 -30 -68 -68 -68c-36 0 -66 30 -66 68zM367 1936h99l196 -146h4l196 146h99l-276 -205h-42zM258 1360v-891
c0 -257 146 -423 405 -423c261 0 405 165 405 423v891h82v-896c0 -297 -177 -495 -487 -495s-486 198 -486 495v896h81z" />
    <glyph glyph-name="Udieresisbelow" unicode="&#x1e72;" horiz-adv-x="1327" 
d="M258 1360v-891c0 -257 146 -423 405 -423c261 0 405 165 405 423v891h82v-896c0 -297 -177 -495 -487 -495s-486 198 -486 495v896h81zM511 -359c-36 0 -64 29 -64 65s28 65 64 65s64 -29 64 -65s-28 -65 -64 -65zM810 -359c-36 0 -64 29 -64 65s28 65 64 65
s64 -29 64 -65s-28 -65 -64 -65z" />
    <glyph glyph-name="Utildebelow" unicode="&#x1e74;" horiz-adv-x="1327" 
d="M791 -382c-140 0 -166 157 -262 157c-54 0 -98 -51 -98 -140h-62c0 125 64 198 160 198c138 0 156 -156 261 -156c64 0 99 59 100 145h62c0 -113 -56 -204 -161 -204zM258 1360v-891c0 -257 146 -423 405 -423c261 0 405 165 405 423v891h82v-896
c0 -297 -177 -495 -487 -495s-486 198 -486 495v896h81z" />
    <glyph glyph-name="Uhookabove" unicode="&#x1ee6;" horiz-adv-x="1327" 
d="M258 1360v-891c0 -257 146 -423 405 -423c261 0 405 165 405 423v891h82v-896c0 -297 -177 -495 -487 -495s-486 198 -486 495v896h81zM544 1662v53c13 11 53 25 92 25c88 0 154 -50 154 -129c0 -72 -60 -109 -98 -130l-36 43c37 22 70 47 70 86c0 44 -37 75 -96 75
c-33 0 -62 -10 -86 -23z" />
    <glyph glyph-name="Ubreve" unicode="&#x16c;" horiz-adv-x="1327" 
d="M258 1360v-891c0 -257 146 -423 405 -423c261 0 405 165 405 423v891h82v-896c0 -297 -177 -495 -487 -495s-486 198 -486 495v896h81zM396 1741h67c0 -103 73 -170 201 -170s194 67 194 170h67c0 -117 -81 -232 -261 -232s-268 112 -268 232z" />
    <glyph glyph-name="Uinvertedbreve" unicode="&#x216;" horiz-adv-x="1327" 
d="M258 1360v-891c0 -257 146 -423 405 -423c261 0 405 165 405 423v891h82v-896c0 -297 -177 -495 -487 -495s-486 198 -486 495v896h81zM664 1703c-128 0 -201 -77 -201 -181h-67c0 121 88 242 268 242s261 -124 261 -242h-67c0 104 -66 181 -194 181z" />
    <glyph glyph-name="Utildeacute" unicode="&#x1e78;" horiz-adv-x="1327" 
d="M258 1360v-891c0 -257 146 -423 405 -423c261 0 405 165 405 423v891h82v-896c0 -297 -177 -495 -487 -495s-486 198 -486 495v896h81zM596 1708l299 230h107l-316 -230h-90zM779 1509c-133 0 -156 111 -249 111c-52 0 -89 -41 -89 -111h-61c0 106 60 166 150 166
c129 0 150 -111 249 -111c60 0 90 37 91 111h61c0 -98 -51 -166 -152 -166z" />
    <glyph glyph-name="Udotbelow" unicode="&#x1ee4;" horiz-adv-x="1327" 
d="M595 -287c0 40 31 70 67 70c40 0 71 -30 71 -70c0 -39 -31 -69 -71 -69c-36 0 -67 30 -67 69zM258 1360v-891c0 -257 146 -423 405 -423c261 0 405 165 405 423v891h82v-896c0 -297 -177 -495 -487 -495s-486 198 -486 495v896h81z" />
    <glyph glyph-name="Utilde" unicode="&#x168;" horiz-adv-x="1327" 
d="M258 1360v-891c0 -257 146 -423 405 -423c261 0 405 165 405 423v891h82v-896c0 -297 -177 -495 -487 -495s-486 198 -486 495v896h81zM779 1509c-133 0 -156 111 -249 111c-52 0 -89 -41 -89 -111h-61c0 106 60 166 150 166c129 0 150 -111 249 -111c60 0 90 37 91 111
h61c0 -98 -51 -166 -152 -166z" />
    <glyph glyph-name="Umacron" unicode="&#x16a;" horiz-adv-x="1327" 
d="M258 1360v-891c0 -257 146 -423 405 -423c261 0 405 165 405 423v891h82v-896c0 -297 -177 -495 -487 -495s-486 198 -486 495v896h81zM931 1540h-536v59h536v-59z" />
    <glyph glyph-name="Umacrondieresis" unicode="&#x1e7a;" horiz-adv-x="1327" 
d="M519 1765c-35 0 -63 28 -63 63c0 37 28 64 63 64s63 -27 63 -64c0 -35 -28 -63 -63 -63zM808 1765c-35 0 -63 28 -63 63c0 37 28 64 63 64c36 0 63 -27 63 -64c0 -35 -27 -63 -63 -63zM932 1540h-536v59h536v-59zM258 1360v-891c0 -257 146 -423 405 -423
c261 0 405 165 405 423v891h82v-896c0 -297 -177 -495 -487 -495s-486 198 -486 495v896h81z" />
    <glyph glyph-name="Uring" unicode="&#x16e;" horiz-adv-x="1327" 
d="M664 1509c-97 0 -174 76 -174 173c0 95 77 169 174 169c94 0 174 -74 174 -169c0 -97 -80 -173 -174 -173zM546 1680c0 -64 54 -118 118 -118c65 0 117 54 117 118c0 66 -52 118 -117 118c-64 0 -118 -52 -118 -118zM258 1360v-891c0 -257 146 -423 405 -423
c261 0 405 165 405 423v891h82v-896c0 -297 -177 -495 -487 -495s-486 198 -486 495v896h81z" />
    <glyph glyph-name="Uogonek" unicode="&#x172;" horiz-adv-x="1327" 
d="M928 -374c-97 0 -187 56 -187 173c0 73 39 148 107 205l-2 4c-51 -20 -109 -39 -187 -39c-300 0 -482 199 -482 501v890h82v-891c0 -257 145 -423 404 -423c261 0 405 165 405 423v891h82v-891c0 -190 -71 -317 -173 -413c-87 -83 -160 -154 -160 -246
c0 -75 56 -116 130 -116c29 0 60 5 85 14v-61c-19 -10 -52 -21 -104 -21z" />
    <glyph glyph-name="Uhorn" unicode="&#x1af;" horiz-adv-x="1352" 
d="M663 -31c-306 0 -486 199 -486 501v890h82v-891c0 -257 145 -423 404 -423c261 0 405 165 405 423v891h81c101 0 158 58 158 152v103h75v-101c0 -143 -92 -224 -210 -224h-22v-821c0 -302 -181 -500 -487 -500z" />
    <glyph glyph-name="Uhorngrave" unicode="&#x1eea;" horiz-adv-x="1352" 
d="M709 1512h-72l-247 294h90zM663 -31c-306 0 -486 199 -486 501v890h82v-891c0 -257 145 -423 404 -423c261 0 405 165 405 423v891h81c101 0 158 58 158 152v103h75v-101c0 -143 -92 -224 -210 -224h-22v-821c0 -302 -181 -500 -487 -500z" />
    <glyph glyph-name="Uhornacute" unicode="&#x1ee8;" horiz-adv-x="1352" 
d="M689 1512h-72l230 294h89zM663 -31c-306 0 -486 199 -486 501v890h82v-891c0 -257 145 -423 404 -423c261 0 405 165 405 423v891h81c101 0 158 58 158 152v103h75v-101c0 -143 -92 -224 -210 -224h-22v-821c0 -302 -181 -500 -487 -500z" />
    <glyph glyph-name="Uhorndotbelow" unicode="&#x1ef0;" horiz-adv-x="1352" 
d="M596 -287c0 40 31 70 67 70c40 0 71 -30 71 -70c0 -39 -31 -69 -71 -69c-36 0 -67 30 -67 69zM663 -31c-306 0 -486 199 -486 501v890h82v-891c0 -257 145 -423 404 -423c261 0 405 165 405 423v891h81c101 0 158 58 158 152v103h75v-101c0 -143 -92 -224 -210 -224h-22
v-821c0 -302 -181 -500 -487 -500z" />
    <glyph glyph-name="Uhornhookabove" unicode="&#x1eec;" horiz-adv-x="1352" 
d="M543 1662v53c13 11 53 25 92 25c88 0 154 -50 154 -129c0 -72 -60 -109 -98 -130l-36 43c37 22 70 47 70 86c0 44 -37 75 -96 75c-33 0 -62 -10 -86 -23zM663 -31c-306 0 -486 199 -486 501v890h82v-891c0 -257 145 -423 404 -423c261 0 405 165 405 423v891h81
c101 0 158 58 158 152v103h75v-101c0 -143 -92 -224 -210 -224h-22v-821c0 -302 -181 -500 -487 -500z" />
    <glyph glyph-name="Uhorntilde" unicode="&#x1eee;" horiz-adv-x="1352" 
d="M778 1509c-133 0 -156 111 -249 111c-52 0 -89 -41 -89 -111h-61c0 106 60 166 150 166c129 0 150 -111 249 -111c60 0 90 37 91 111h61c0 -98 -51 -166 -152 -166zM663 -31c-306 0 -486 199 -486 501v890h82v-891c0 -257 145 -423 404 -423c261 0 405 165 405 423v891
h81c101 0 158 58 158 152v103h75v-101c0 -143 -92 -224 -210 -224h-22v-821c0 -302 -181 -500 -487 -500z" />
    <glyph glyph-name="V" unicode="V" horiz-adv-x="1200" 
d="M641 0h-90l-494 1360h91l448 -1258h4l453 1258h90z" />
    <glyph glyph-name="Vtilde" unicode="&#x1e7c;" horiz-adv-x="1200" 
d="M696 1509c-133 0 -156 111 -249 111c-52 0 -89 -41 -89 -111h-61c0 106 60 166 150 166c129 0 150 -111 249 -111c60 0 90 37 91 111h61c0 -98 -51 -166 -152 -166zM641 0h-90l-494 1360h91l448 -1258h4l453 1258h90z" />
    <glyph glyph-name="Vdotbelow" unicode="&#x1e7e;" horiz-adv-x="1200" 
d="M532 -287c0 40 31 70 67 70c40 0 71 -30 71 -70c0 -39 -31 -69 -71 -69c-36 0 -67 30 -67 69zM641 0h-90l-494 1360h91l448 -1258h4l453 1258h90z" />
    <glyph glyph-name="W" unicode="W" horiz-adv-x="1715" 
d="M505 0h-87l-361 1360h89l315 -1233h4l349 1233h87l348 -1233h4l316 1233h89l-361 -1360h-87l-350 1226h-5z" />
    <glyph glyph-name="Wgrave" unicode="&#x1e80;" horiz-adv-x="1715" 
d="M882 1512h-72l-247 294h90zM505 0h-87l-361 1360h89l315 -1233h4l349 1233h87l348 -1233h4l316 1233h89l-361 -1360h-87l-350 1226h-5z" />
    <glyph glyph-name="Wacute" unicode="&#x1e82;" horiz-adv-x="1715" 
d="M862 1512h-72l230 294h89zM505 0h-87l-361 1360h89l315 -1233h4l349 1233h87l348 -1233h4l316 1233h89l-361 -1360h-87l-350 1226h-5z" />
    <glyph glyph-name="Wdotaccent" unicode="&#x1e86;" horiz-adv-x="1715" 
d="M785 1650c0 41 32 72 73 72s73 -31 73 -72c0 -40 -32 -72 -73 -72s-73 32 -73 72zM505 0h-87l-361 1360h89l315 -1233h4l349 1233h87l348 -1233h4l316 1233h89l-361 -1360h-87l-350 1226h-5z" />
    <glyph glyph-name="Wdotbelow" unicode="&#x1e88;" horiz-adv-x="1715" 
d="M789 -287c0 40 31 70 67 70c40 0 71 -30 71 -70c0 -39 -31 -69 -71 -69c-36 0 -67 30 -67 69zM505 0h-87l-361 1360h89l315 -1233h4l349 1233h87l348 -1233h4l316 1233h89l-361 -1360h-87l-350 1226h-5z" />
    <glyph glyph-name="Wdieresis" unicode="&#x1e84;" horiz-adv-x="1715" 
d="M712 1511c-35 0 -63 28 -63 63c0 37 28 64 63 64s63 -27 63 -64c0 -35 -28 -63 -63 -63zM1001 1511c-35 0 -63 28 -63 63c0 37 28 64 63 64c36 0 63 -27 63 -64c0 -35 -27 -63 -63 -63zM505 0h-87l-361 1360h89l315 -1233h4l349 1233h87l348 -1233h4l316 1233h89
l-361 -1360h-87l-350 1226h-5z" />
    <glyph glyph-name="Wcircumflex" unicode="&#x174;" horiz-adv-x="1715" 
d="M575 1512l258 228h44l258 -228h-92l-186 164h-4l-186 -164h-92zM505 0h-87l-361 1360h89l315 -1233h4l349 1233h87l348 -1233h4l316 1233h89l-361 -1360h-87l-350 1226h-5z" />
    <glyph glyph-name="X" unicode="X" horiz-adv-x="1144" 
d="M1089 1360l-469 -683l464 -677h-98l-414 611h-6l-414 -611h-95l465 680l-465 680h98l417 -613h5l417 613h95z" />
    <glyph glyph-name="Xdotaccent" unicode="&#x1e8a;" horiz-adv-x="1144" 
d="M1089 1360l-469 -683l464 -677h-98l-414 611h-6l-414 -611h-95l465 680l-465 680h98l417 -613h5l417 613h95zM499 1650c0 41 32 72 73 72s73 -31 73 -72c0 -40 -32 -72 -73 -72s-73 32 -73 72z" />
    <glyph glyph-name="Xdieresis" unicode="&#x1e8c;" horiz-adv-x="1144" 
d="M1089 1360l-469 -683l464 -677h-98l-414 611h-6l-414 -611h-95l465 680l-465 680h98l417 -613h5l417 613h95zM427 1511c-35 0 -63 28 -63 63c0 37 28 64 63 64s63 -27 63 -64c0 -35 -28 -63 -63 -63zM716 1511c-35 0 -63 28 -63 63c0 37 28 64 63 64c36 0 63 -27 63 -64
c0 -35 -27 -63 -63 -63z" />
    <glyph glyph-name="Y" unicode="Y" horiz-adv-x="1097" 
d="M590 0h-81v607l-470 753h96l412 -668h5l413 668h94l-469 -751v-609z" />
    <glyph glyph-name="Ygrave" unicode="&#x1ef2;" horiz-adv-x="1097" 
d="M590 0h-81v607l-470 753h96l412 -668h5l413 668h94l-469 -751v-609zM576 1512h-72l-247 294h90z" />
    <glyph glyph-name="Yacute" unicode="&#xdd;" horiz-adv-x="1097" 
d="M590 0h-81v607l-470 753h96l412 -668h5l413 668h94l-469 -751v-609zM556 1512h-72l230 294h89z" />
    <glyph glyph-name="Ydotaccent" unicode="&#x1e8e;" horiz-adv-x="1097" 
d="M590 0h-81v607l-470 753h96l412 -668h5l413 668h94l-469 -751v-609zM476 1650c0 41 32 72 73 72s73 -31 73 -72c0 -40 -32 -72 -73 -72s-73 32 -73 72z" />
    <glyph glyph-name="Ydotbelow" unicode="&#x1ef4;" horiz-adv-x="1097" 
d="M590 0h-81v607l-470 753h96l412 -668h5l413 668h94l-469 -751v-609zM480 -287c0 40 31 70 67 70c40 0 71 -30 71 -70c0 -39 -31 -69 -71 -69c-36 0 -67 30 -67 69z" />
    <glyph glyph-name="Ydieresis" unicode="&#x178;" horiz-adv-x="1097" 
d="M590 0h-81v607l-470 753h96l412 -668h5l413 668h94l-469 -751v-609zM403 1511c-35 0 -63 28 -63 63c0 37 28 64 63 64s63 -27 63 -64c0 -35 -28 -63 -63 -63zM692 1511c-35 0 -63 28 -63 63c0 37 28 64 63 64c36 0 63 -27 63 -64c0 -35 -27 -63 -63 -63z" />
    <glyph glyph-name="Ytilde" unicode="&#x1ef8;" horiz-adv-x="1097" 
d="M590 0h-81v607l-470 753h96l412 -668h5l413 668h94l-469 -751v-609zM645 1509c-133 0 -156 111 -249 111c-52 0 -89 -41 -89 -111h-61c0 106 60 166 150 166c129 0 150 -111 249 -111c60 0 90 37 91 111h61c0 -98 -51 -166 -152 -166z" />
    <glyph glyph-name="Ycircumflex" unicode="&#x176;" horiz-adv-x="1097" 
d="M590 0h-81v607l-470 753h96l412 -668h5l413 668h94l-469 -751v-609zM250 1512l258 228h44l258 -228h-92l-186 164h-4l-186 -164h-92z" />
    <glyph glyph-name="Ymacron" unicode="&#x232;" horiz-adv-x="1097" 
d="M590 0h-81v607l-470 753h96l412 -668h5l413 668h94l-469 -751v-609zM817 1540h-536v59h536v-59z" />
    <glyph glyph-name="Yhookabove" unicode="&#x1ef6;" horiz-adv-x="1097" 
d="M590 0h-81v607l-470 753h96l412 -668h5l413 668h94l-469 -751v-609zM410 1662v53c13 11 53 25 92 25c88 0 154 -50 154 -129c0 -72 -60 -109 -98 -130l-36 43c37 22 70 47 70 86c0 44 -37 75 -96 75c-33 0 -62 -10 -86 -23z" />
    <glyph glyph-name="Z" unicode="Z" horiz-adv-x="1152" 
d="M96 0v65l850 1217v4h-823v74h924v-65l-849 -1217v-5h853v-73h-955z" />
    <glyph glyph-name="Zacute" unicode="&#x179;" horiz-adv-x="1152" 
d="M602 1512h-72l230 294h89zM96 0v65l850 1217v4h-823v74h924v-65l-849 -1217v-5h853v-73h-955z" />
    <glyph glyph-name="Zcaron" unicode="&#x17d;" horiz-adv-x="1152" 
d="M96 0v65l850 1217v4h-823v74h924v-65l-849 -1217v-5h853v-73h-955zM296 1737h92l186 -163h4l186 163h92l-258 -228h-44z" />
    <glyph glyph-name="Zcircumflex" unicode="&#x1e90;" horiz-adv-x="1152" 
d="M96 0v65l850 1217v4h-823v74h924v-65l-849 -1217v-5h853v-73h-955zM296 1512l258 228h44l258 -228h-92l-186 164h-4l-186 -164h-92z" />
    <glyph glyph-name="Zlinebelow" unicode="&#x1e94;" horiz-adv-x="1152" 
d="M96 0v65l850 1217v4h-823v74h924v-65l-849 -1217v-5h853v-73h-955zM853 -303h-553v61h553v-61z" />
    <glyph glyph-name="Zdotbelow" unicode="&#x1e92;" horiz-adv-x="1152" 
d="M509 -287c0 40 31 70 67 70c40 0 71 -30 71 -70c0 -39 -31 -69 -71 -69c-36 0 -67 30 -67 69zM96 0v65l850 1217v4h-823v74h924v-65l-849 -1217v-5h853v-73h-955z" />
    <glyph glyph-name="Zdotaccent" unicode="&#x17b;" horiz-adv-x="1152" 
d="M503 1650c0 41 32 72 73 72s73 -31 73 -72c0 -40 -32 -72 -73 -72s-73 32 -73 72zM96 0v65l850 1217v4h-823v74h924v-65l-849 -1217v-5h853v-73h-955z" />
    <glyph glyph-name="AE" unicode="&#xc6;" horiz-adv-x="1823" 
d="M874 1284l-434 -728h502v728h-68zM942 486h-543l-290 -486h-89l809 1360h886v-76h-691v-550h657v-75h-657v-584h691v-75h-773v486z" />
    <glyph glyph-name="AEmacron" unicode="&#x1e2;" horiz-adv-x="1823" 
d="M874 1284l-434 -728h502v728h-68zM942 486h-543l-290 -486h-89l809 1360h886v-76h-691v-550h657v-75h-657v-584h691v-75h-773v486zM1596 1540h-536v59h536v-59z" />
    <glyph glyph-name="AEacute" unicode="&#x1fc;" horiz-adv-x="1823" 
d="M1354 1512h-72l230 294h89zM874 1284l-434 -728h502v728h-68zM942 486h-543l-290 -486h-89l809 1360h886v-76h-691v-550h657v-75h-657v-584h691v-75h-773v486z" />
    <glyph glyph-name="OE" unicode="&#x152;" horiz-adv-x="1975" 
d="M216 806v-256c0 -307 160 -507 431 -507c263 0 432 197 432 468v343c0 260 -162 462 -432 462c-269 0 -431 -203 -431 -510zM647 -31c-329 0 -512 229 -512 587v244c0 358 184 591 513 591c203 0 359 -99 425 -245h6v214h774v-76h-692v-550h657v-75h-657v-584h692v-75
h-774v222h-6c-77 -159 -223 -253 -426 -253z" />
    <glyph glyph-name="Eth" unicode="&#xd0;" horiz-adv-x="1353" 
d="M614 0h-365v660h-159v74h159v626h365c434 0 609 -273 609 -680c0 -405 -167 -680 -609 -680zM331 75h283c370 0 526 235 526 605c0 366 -157 604 -526 604h-283v-550h360v-74h-360v-585z" />
    <glyph glyph-name="Thorn" unicode="&#xde;" horiz-adv-x="1131" 
d="M190 1360h82v-265h337c251 0 423 -122 423 -367s-172 -367 -423 -367h-337v-361h-82v1360zM272 1020v-585h323c218 0 353 79 353 293c0 204 -127 292 -342 292h-334z" />
    <glyph glyph-name="A.sc" horiz-adv-x="1010" 
d="M143 0h-86l405 1063h87l404 -1063h-88l-130 350h-463zM506 971h-4l-207 -556h417z" />
    <glyph glyph-name="Agrave.sc" horiz-adv-x="1010" 
d="M548 1229h-72l-248 294h91zM143 0h-86l405 1063h87l404 -1063h-88l-130 350h-463zM506 971h-4l-207 -556h417z" />
    <glyph glyph-name="Aacute.sc" horiz-adv-x="1010" 
d="M534 1229h-72l230 294h90zM143 0h-86l405 1063h87l404 -1063h-88l-130 350h-463zM506 971h-4l-207 -556h417z" />
    <glyph glyph-name="Adieresis.sc" horiz-adv-x="1010" 
d="M143 0h-86l405 1063h87l404 -1063h-88l-130 350h-463zM506 971h-4l-207 -556h417zM356 1263c-36 0 -64 29 -64 65s28 65 64 65s64 -29 64 -65s-28 -65 -64 -65zM655 1263c-36 0 -64 29 -64 65s28 65 64 65s64 -29 64 -65s-28 -65 -64 -65z" />
    <glyph glyph-name="Adieresismacron.sc" horiz-adv-x="1010" 
d="M143 0h-86l405 1063h87l404 -1063h-88l-130 350h-463zM506 971h-4l-207 -556h417zM355 1263c-36 0 -64 29 -64 65s28 65 64 65s64 -29 64 -65s-28 -65 -64 -65zM654 1263c-36 0 -64 29 -64 65s28 65 64 65s64 -29 64 -65s-28 -65 -64 -65zM782 1579h-553v61h553v-61z" />
    <glyph glyph-name="Aring.sc" horiz-adv-x="1010" 
d="M143 0h-86l405 1063h87l404 -1063h-88l-130 350h-463zM506 971h-4l-207 -556h417zM505 1227c-97 0 -174 76 -174 173c0 95 77 169 174 169c94 0 174 -74 174 -169c0 -97 -80 -173 -174 -173zM387 1398c0 -64 54 -118 118 -118c65 0 117 54 117 118c0 66 -52 118 -117 118
c-64 0 -118 -52 -118 -118z" />
    <glyph glyph-name="Aringacute.sc" horiz-adv-x="1010" 
d="M540 1653h-63l152 190h88zM505 1227c-97 0 -174 76 -174 173c0 95 77 169 174 169c94 0 174 -74 174 -169c0 -97 -80 -173 -174 -173zM387 1398c0 -64 54 -118 118 -118c65 0 117 54 117 118c0 66 -52 118 -117 118c-64 0 -118 -52 -118 -118zM143 0h-86l405 1063h87
l404 -1063h-88l-130 350h-463zM506 971h-4l-207 -556h417z" />
    <glyph glyph-name="Atilde.sc" horiz-adv-x="1010" 
d="M143 0h-86l405 1063h87l404 -1063h-88l-130 350h-463zM506 971h-4l-207 -556h417zM633 1226c-141 0 -167 158 -265 158c-56 0 -99 -53 -100 -142h-63c0 126 66 202 163 202c140 0 158 -158 265 -158c65 0 100 61 101 147h64c0 -115 -58 -207 -165 -207z" />
    <glyph glyph-name="Abrevegrave.sc" horiz-adv-x="1010" 
d="M143 0h-86l405 1063h87l404 -1063h-88l-130 350h-463zM506 971h-4l-207 -556h417zM550 1502h-71l-248 294h90zM237 1469h67c0 -104 73 -180 201 -180s201 76 201 180h67c0 -117 -88 -242 -268 -242s-268 122 -268 242z" />
    <glyph glyph-name="Adotmacron.sc" horiz-adv-x="1010" 
d="M143 0h-86l405 1063h87l404 -1063h-88l-130 350h-463zM506 971h-4l-207 -556h417zM429 1355c0 43 34 77 75 77c42 0 77 -34 77 -77c0 -42 -35 -75 -77 -75c-41 0 -75 33 -75 75zM782 1579h-553v61h553v-61z" />
    <glyph glyph-name="Aringbelow.sc" horiz-adv-x="1010" 
d="M143 0h-86l405 1063h87l404 -1063h-88l-130 350h-463zM506 971h-4l-207 -556h417zM505 -497c-97 0 -174 76 -174 173c0 95 77 169 174 169c94 0 174 -74 174 -169c0 -97 -80 -173 -174 -173zM387 -326c0 -64 54 -118 118 -118c65 0 117 54 117 118c0 66 -52 118 -117 118
c-64 0 -118 -52 -118 -118z" />
    <glyph glyph-name="Acircumflex.sc" horiz-adv-x="1010" 
d="M243 1229l233 327h59l233 -327h-75l-186 266h-3l-187 -266h-74zM143 0h-86l405 1063h87l404 -1063h-88l-130 350h-463zM506 971h-4l-207 -556h417z" />
    <glyph glyph-name="Acircumflexdotbelow.sc" horiz-adv-x="1010" 
d="M243 1229l233 327h59l233 -327h-75l-186 266h-3l-187 -266h-74zM143 0h-86l405 1063h87l404 -1063h-88l-130 350h-463zM506 971h-4l-207 -556h417zM438 -287c0 40 31 70 67 70c40 0 71 -30 71 -70c0 -39 -31 -69 -71 -69c-36 0 -67 30 -67 69z" />
    <glyph glyph-name="Acircumflexacute.sc" horiz-adv-x="1010" 
d="M792 1463h-71l230 294h89zM243 1229l233 327h59l233 -327h-75l-186 266h-3l-187 -266h-74zM143 0h-86l405 1063h87l404 -1063h-88l-130 350h-463zM506 971h-4l-207 -556h417z" />
    <glyph glyph-name="Acircumflextilde.sc" horiz-adv-x="1010" 
d="M143 0h-86l405 1063h87l404 -1063h-88l-130 350h-463zM506 971h-4l-207 -556h417zM292 1671h-61c0 113 60 184 151 184c129 0 143 -144 243 -144c61 0 91 53 92 128h61c0 -99 -51 -184 -153 -184c-134 0 -150 143 -243 143c-53 0 -90 -49 -90 -127zM243 1229l233 327h59
l233 -327h-75l-186 266h-3l-187 -266h-74z" />
    <glyph glyph-name="Acircumflexgrave.sc" horiz-adv-x="1010" 
d="M908 1463h-71l-248 294h90zM243 1229l233 327h59l233 -327h-75l-186 266h-3l-187 -266h-74zM143 0h-86l405 1063h87l404 -1063h-88l-130 350h-463zM506 971h-4l-207 -556h417z" />
    <glyph glyph-name="Acircumflexhookabove.sc" horiz-adv-x="1010" 
d="M635 1666v55c14 12 53 26 93 26c90 0 155 -56 155 -138c0 -68 -50 -110 -99 -137l-34 44c44 26 70 52 70 93c0 45 -37 83 -100 83c-31 0 -63 -12 -85 -26zM243 1229l233 327h59l233 -327h-75l-186 266h-3l-187 -266h-74zM143 0h-86l405 1063h87l404 -1063h-88l-130 350
h-463zM506 971h-4l-207 -556h417z" />
    <glyph glyph-name="Abreve.sc" horiz-adv-x="1010" 
d="M143 0h-86l405 1063h87l404 -1063h-88l-130 350h-463zM506 971h-4l-207 -556h417zM237 1469h67c0 -104 73 -180 201 -180s201 76 201 180h67c0 -117 -88 -242 -268 -242s-268 122 -268 242z" />
    <glyph glyph-name="Abreveacute.sc" horiz-adv-x="1010" 
d="M143 0h-86l405 1063h87l404 -1063h-88l-130 350h-463zM506 971h-4l-207 -556h417zM530 1502h-71l230 294h89zM237 1469h67c0 -104 73 -180 201 -180s201 76 201 180h67c0 -117 -88 -242 -268 -242s-268 122 -268 242z" />
    <glyph glyph-name="Abrevetilde.sc" horiz-adv-x="1010" 
d="M143 0h-86l405 1063h87l404 -1063h-88l-130 350h-463zM506 971h-4l-207 -556h417zM303 1572h-61c0 113 61 183 151 183c129 0 144 -143 244 -143c60 0 90 53 91 128h61c0 -99 -50 -184 -153 -184c-134 0 -150 143 -243 143c-53 0 -89 -49 -90 -127zM237 1469h67
c0 -104 73 -180 201 -180s201 76 201 180h67c0 -117 -88 -242 -268 -242s-268 122 -268 242z" />
    <glyph glyph-name="Abrevehookabove.sc" horiz-adv-x="1010" 
d="M143 0h-86l405 1063h87l404 -1063h-88l-130 350h-463zM506 971h-4l-207 -556h417zM353 1682v54c14 12 54 26 93 26c91 0 155 -56 155 -137c0 -69 -50 -111 -99 -138l-33 44c44 26 70 52 70 93c0 46 -38 83 -101 83c-31 0 -62 -11 -85 -25zM237 1469h67
c0 -104 73 -180 201 -180s201 76 201 180h67c0 -117 -88 -242 -268 -242s-268 122 -268 242z" />
    <glyph glyph-name="Abrevedotbelow.sc" horiz-adv-x="1010" 
d="M438 -287c0 40 31 70 67 70c40 0 71 -30 71 -70c0 -39 -31 -69 -71 -69c-36 0 -67 30 -67 69zM143 0h-86l405 1063h87l404 -1063h-88l-130 350h-463zM506 971h-4l-207 -556h417zM237 1469h67c0 -104 73 -180 201 -180s201 76 201 180h67c0 -117 -88 -242 -268 -242
s-268 122 -268 242z" />
    <glyph glyph-name="Ainvertedbreve.sc" horiz-adv-x="1010" 
d="M143 0h-86l405 1063h87l404 -1063h-88l-130 350h-463zM506 971h-4l-207 -556h417zM237 1234c0 121 88 242 268 242s261 -124 261 -242h-67c0 104 -66 181 -194 181s-201 -77 -201 -181h-67z" />
    <glyph glyph-name="Acaron.sc" horiz-adv-x="1010" 
d="M244 1556h74l186 -266h4l186 266h74l-232 -327h-60zM143 0h-86l405 1063h87l404 -1063h-88l-130 350h-463zM506 971h-4l-207 -556h417z" />
    <glyph glyph-name="Adotaccent.sc" horiz-adv-x="1010" 
d="M429 1355c0 43 34 77 75 77c42 0 77 -34 77 -77c0 -42 -35 -75 -77 -75c-41 0 -75 33 -75 75zM143 0h-86l405 1063h87l404 -1063h-88l-130 350h-463zM506 971h-4l-207 -556h417z" />
    <glyph glyph-name="Adotbelow.sc" horiz-adv-x="1010" 
d="M438 -287c0 40 31 70 67 70c40 0 71 -30 71 -70c0 -39 -31 -69 -71 -69c-36 0 -67 30 -67 69zM143 0h-86l405 1063h87l404 -1063h-88l-130 350h-463zM506 971h-4l-207 -556h417z" />
    <glyph glyph-name="Ahookabove.sc" horiz-adv-x="1010" 
d="M143 0h-86l405 1063h87l404 -1063h-88l-130 350h-463zM506 971h-4l-207 -556h417zM386 1441v56c14 11 54 25 94 25c91 0 156 -56 156 -139c0 -69 -50 -111 -100 -138l-34 45c45 25 71 52 71 93c0 45 -38 84 -101 84c-32 0 -63 -12 -86 -26z" />
    <glyph glyph-name="Adblgrave.sc" horiz-adv-x="1010" 
d="M143 0h-86l405 1063h87l404 -1063h-88l-130 350h-463zM506 971h-4l-207 -556h417zM369 1229l-247 294h85l230 -294h-68zM587 1229l-247 294h84l231 -294h-68z" />
    <glyph glyph-name="Amacron.sc" horiz-adv-x="1010" 
d="M143 0h-86l405 1063h87l404 -1063h-88l-130 350h-463zM506 971h-4l-207 -556h417zM783 1298h-553v61h553v-61z" />
    <glyph glyph-name="Aogonek.sc" horiz-adv-x="1010" 
d="M989 -352c-13 -6 -46 -17 -93 -17c-94 0 -179 53 -179 164c0 105 71 170 142 222l-124 333h-463l-129 -350h-86l405 1063h87l404 -1063c-75 -41 -156 -99 -157 -190c-1 -72 43 -111 113 -111c24 0 57 4 80 12v-63zM506 971h-4l-207 -556h417z" />
    <glyph glyph-name="B.sc" horiz-adv-x="1054" 
d="M178 0v1063h377c201 0 327 -97 327 -260c0 -153 -112 -227 -193 -245v-4c138 -14 257 -99 257 -264c0 -179 -139 -290 -377 -290h-391zM260 993v-412h265c154 0 273 64 273 210c0 134 -100 202 -257 202h-281zM260 511v-440h284c195 0 316 70 316 218
c0 153 -128 222 -288 222h-312z" />
    <glyph glyph-name="Blinebelow.sc" horiz-adv-x="1054" 
d="M794 -303h-553v61h553v-61zM178 0v1063h377c201 0 327 -97 327 -260c0 -153 -112 -227 -193 -245v-4c138 -14 257 -99 257 -264c0 -179 -139 -290 -377 -290h-391zM260 993v-412h265c154 0 273 64 273 210c0 134 -100 202 -257 202h-281zM260 511v-440h284
c195 0 316 70 316 218c0 153 -128 222 -288 222h-312z" />
    <glyph glyph-name="Bdotbelow.sc" horiz-adv-x="1054" 
d="M450 -287c0 40 31 70 67 70c40 0 71 -30 71 -70c0 -39 -31 -69 -71 -69c-36 0 -67 30 -67 69zM178 0v1063h377c201 0 327 -97 327 -260c0 -153 -112 -227 -193 -245v-4c138 -14 257 -99 257 -264c0 -179 -139 -290 -377 -290h-391zM260 993v-412h265
c154 0 273 64 273 210c0 134 -100 202 -257 202h-281zM260 511v-440h284c195 0 316 70 316 218c0 153 -128 222 -288 222h-312z" />
    <glyph glyph-name="Bdotaccent.sc" horiz-adv-x="1054" 
d="M441 1355c0 43 34 77 75 77c42 0 77 -34 77 -77c0 -42 -35 -75 -77 -75c-41 0 -75 33 -75 75zM178 0v1063h377c201 0 327 -97 327 -260c0 -153 -112 -227 -193 -245v-4c138 -14 257 -99 257 -264c0 -179 -139 -290 -377 -290h-391zM260 993v-412h265
c154 0 273 64 273 210c0 134 -100 202 -257 202h-281zM260 511v-440h284c195 0 316 70 316 218c0 153 -128 222 -288 222h-312z" />
    <glyph glyph-name="C.sc" horiz-adv-x="1083" 
d="M214 625v-190c0 -221 111 -388 351 -388c197 0 318 116 318 256h80v-3c0 -162 -142 -324 -401 -324c-295 0 -430 196 -430 464v180c0 264 141 467 428 467c264 0 397 -177 397 -331v-3h-81c0 120 -110 264 -316 264c-231 0 -346 -171 -346 -392z" />
    <glyph glyph-name="Cacute.sc" horiz-adv-x="1083" 
d="M589 1229h-72l230 294h90zM214 625v-190c0 -221 111 -388 351 -388c197 0 318 116 318 256h80v-3c0 -162 -142 -324 -401 -324c-295 0 -430 196 -430 464v180c0 264 141 467 428 467c264 0 397 -177 397 -331v-3h-81c0 120 -110 264 -316 264c-231 0 -346 -171 -346 -392
z" />
    <glyph glyph-name="Ccaron.sc" horiz-adv-x="1083" 
d="M298 1556h74l186 -266h4l186 266h74l-232 -327h-60zM214 625v-190c0 -221 111 -388 351 -388c197 0 318 116 318 256h80v-3c0 -162 -142 -324 -401 -324c-295 0 -430 196 -430 464v180c0 264 141 467 428 467c264 0 397 -177 397 -331v-3h-81c0 120 -110 264 -316 264
c-231 0 -346 -171 -346 -392z" />
    <glyph glyph-name="Ccircumflex.sc" horiz-adv-x="1083" 
d="M298 1229l233 327h59l233 -327h-75l-186 266h-3l-187 -266h-74zM214 625v-190c0 -221 111 -388 351 -388c197 0 318 116 318 256h80v-3c0 -162 -142 -324 -401 -324c-295 0 -430 196 -430 464v180c0 264 141 467 428 467c264 0 397 -177 397 -331v-3h-81
c0 120 -110 264 -316 264c-231 0 -346 -171 -346 -392z" />
    <glyph glyph-name="Cdotaccent.sc" horiz-adv-x="1083" 
d="M484 1355c0 43 34 77 75 77c42 0 77 -34 77 -77c0 -42 -35 -75 -77 -75c-41 0 -75 33 -75 75zM214 625v-190c0 -221 111 -388 351 -388c197 0 318 116 318 256h80v-3c0 -162 -142 -324 -401 -324c-295 0 -430 196 -430 464v180c0 264 141 467 428 467
c264 0 397 -177 397 -331v-3h-81c0 120 -110 264 -316 264c-231 0 -346 -171 -346 -392z" />
    <glyph glyph-name="Ccedilla.sc" horiz-adv-x="1083" 
d="M540 -459c-53 -1 -102 8 -124 16v62c26 -9 74 -15 121 -15c72 0 150 30 150 104c0 69 -53 99 -150 99h-50v48l52 121c-280 10 -407 204 -407 464v180c0 264 141 467 428 467c264 0 397 -177 397 -331v-3h-81c0 120 -110 264 -316 264c-231 0 -346 -171 -346 -392v-190
c0 -221 111 -388 351 -388c197 0 318 116 318 256h80v-3c0 -152 -126 -305 -356 -323l-46 -111c106 0 204 -43 204 -154c0 -119 -115 -170 -225 -171z" />
    <glyph glyph-name="Ccedillaacute.sc" horiz-adv-x="1083" 
d="M540 -459c-53 -1 -102 8 -124 16v62c26 -9 74 -15 121 -15c72 0 150 30 150 104c0 69 -53 99 -150 99h-50v48l52 121c-280 10 -407 204 -407 464v180c0 264 141 467 428 467c264 0 397 -177 397 -331v-3h-81c0 120 -110 264 -316 264c-231 0 -346 -171 -346 -392v-190
c0 -221 111 -388 351 -388c197 0 318 116 318 256h80v-3c0 -152 -126 -305 -356 -323l-46 -111c106 0 204 -43 204 -154c0 -119 -115 -170 -225 -171zM589 1229h-72l230 294h90z" />
    <glyph glyph-name="D.sc" horiz-adv-x="1124" 
d="M178 1063h315c361 0 505 -214 505 -531c0 -315 -137 -532 -505 -532h-315v1063zM260 993v-922h230c297 0 423 174 423 461c0 278 -124 461 -423 461h-230z" />
    <glyph glyph-name="Ddotaccent.sc" horiz-adv-x="1124" 
d="M178 1063h315c361 0 505 -214 505 -531c0 -315 -137 -532 -505 -532h-315v1063zM260 993v-922h230c297 0 423 174 423 461c0 278 -124 461 -423 461h-230zM416 1355c0 43 34 77 75 77c42 0 77 -34 77 -77c0 -42 -35 -75 -77 -75c-41 0 -75 33 -75 75z" />
    <glyph glyph-name="Dcircumflexbelow.sc" horiz-adv-x="1124" 
d="M178 1063h315c361 0 505 -214 505 -531c0 -315 -137 -532 -505 -532h-315v1063zM260 993v-922h230c297 0 423 174 423 461c0 278 -124 461 -423 461h-230zM231 -413l230 280h62l230 -280h-73l-186 229h-4l-186 -229h-73z" />
    <glyph glyph-name="Dcommaaccent.sc" horiz-adv-x="1124" 
d="M178 1063h315c361 0 505 -214 505 -531c0 -315 -137 -532 -505 -532h-315v1063zM260 993v-922h230c297 0 423 174 423 461c0 278 -124 461 -423 461h-230zM430 -481h-60l85 335h89z" />
    <glyph glyph-name="Dlinebelow.sc" horiz-adv-x="1124" 
d="M178 1063h315c361 0 505 -214 505 -531c0 -315 -137 -532 -505 -532h-315v1063zM260 993v-922h230c297 0 423 174 423 461c0 278 -124 461 -423 461h-230zM769 -303h-553v61h553v-61z" />
    <glyph glyph-name="Dcaron.sc" horiz-adv-x="1124" 
d="M178 1063h315c361 0 505 -214 505 -531c0 -315 -137 -532 -505 -532h-315v1063zM260 993v-922h230c297 0 423 174 423 461c0 278 -124 461 -423 461h-230zM230 1556h74l186 -266h4l186 266h74l-232 -327h-60z" />
    <glyph glyph-name="Ddotbelow.sc" horiz-adv-x="1124" 
d="M178 1063h315c361 0 505 -214 505 -531c0 -315 -137 -532 -505 -532h-315v1063zM260 993v-922h230c297 0 423 174 423 461c0 278 -124 461 -423 461h-230zM425 -287c0 40 31 70 67 70c40 0 71 -30 71 -70c0 -39 -31 -69 -71 -69c-36 0 -67 30 -67 69z" />
    <glyph glyph-name="Dcroat.sc" horiz-adv-x="1175" 
d="M544 0h-315v509h-133v70h133v484h315c361 0 506 -214 506 -531c0 -315 -138 -532 -506 -532zM312 71h230c296 0 423 174 423 461c0 278 -125 461 -423 461h-230v-414h291v-70h-291v-438z" />
    <glyph glyph-name="E.sc" horiz-adv-x="943" 
d="M831 71v-71h-653v1063h653v-71h-571v-413h541v-70h-541v-438h571z" />
    <glyph glyph-name="Egrave.sc" horiz-adv-x="943" 
d="M550 1229h-72l-248 294h91zM831 71v-71h-653v1063h653v-71h-571v-413h541v-70h-541v-438h571z" />
    <glyph glyph-name="Edblgrave.sc" horiz-adv-x="943" 
d="M371 1229l-247 294h85l230 -294h-68zM589 1229l-247 294h84l231 -294h-68zM831 71v-71h-653v1063h653v-71h-571v-413h541v-70h-541v-438h571z" />
    <glyph glyph-name="Eacute.sc" horiz-adv-x="943" 
d="M536 1229h-72l230 294h90zM831 71v-71h-653v1063h653v-71h-571v-413h541v-70h-541v-438h571z" />
    <glyph glyph-name="Ecircumflex.sc" horiz-adv-x="943" 
d="M245 1229l233 327h59l233 -327h-75l-186 266h-3l-187 -266h-74zM831 71v-71h-653v1063h653v-71h-571v-413h541v-70h-541v-438h571z" />
    <glyph glyph-name="Ecircumflexhookabove.sc" horiz-adv-x="943" 
d="M637 1666v55c14 12 53 26 93 26c90 0 155 -56 155 -138c0 -68 -50 -110 -99 -137l-34 44c44 26 70 52 70 93c0 45 -37 83 -100 83c-31 0 -63 -12 -85 -26zM245 1229l233 327h59l233 -327h-75l-186 266h-3l-187 -266h-74zM831 71v-71h-653v1063h653v-71h-571v-413h541v-70
h-541v-438h571z" />
    <glyph glyph-name="Ecircumflexgrave.sc" horiz-adv-x="943" 
d="M910 1463h-71l-248 294h90zM245 1229l233 327h59l233 -327h-75l-186 266h-3l-187 -266h-74zM831 71v-71h-653v1063h653v-71h-571v-413h541v-70h-541v-438h571z" />
    <glyph glyph-name="Ecircumflextilde.sc" horiz-adv-x="943" 
d="M294 1671h-61c0 113 60 184 151 184c129 0 143 -144 243 -144c61 0 91 53 92 128h61c0 -99 -51 -184 -153 -184c-134 0 -150 143 -243 143c-53 0 -90 -49 -90 -127zM245 1229l233 327h59l233 -327h-75l-186 266h-3l-187 -266h-74zM831 71v-71h-653v1063h653v-71h-571
v-413h541v-70h-541v-438h571z" />
    <glyph glyph-name="Ecircumflexdotbelow.sc" horiz-adv-x="943" 
d="M245 1229l233 327h59l233 -327h-75l-186 266h-3l-187 -266h-74zM831 71v-71h-653v1063h653v-71h-571v-413h541v-70h-541v-438h571zM440 -287c0 40 31 70 67 70c40 0 71 -30 71 -70c0 -39 -31 -69 -71 -69c-36 0 -67 30 -67 69z" />
    <glyph glyph-name="Ecircumflexacute.sc" horiz-adv-x="943" 
d="M794 1463h-71l230 294h89zM245 1229l233 327h59l233 -327h-75l-186 266h-3l-187 -266h-74zM831 71v-71h-653v1063h653v-71h-571v-413h541v-70h-541v-438h571z" />
    <glyph glyph-name="Edieresis.sc" horiz-adv-x="943" 
d="M357 1263c-36 0 -64 29 -64 65s28 65 64 65s64 -29 64 -65s-28 -65 -64 -65zM656 1263c-36 0 -64 29 -64 65s28 65 64 65s64 -29 64 -65s-28 -65 -64 -65zM831 71v-71h-653v1063h653v-71h-571v-413h541v-70h-541v-438h571z" />
    <glyph glyph-name="Edotbelow.sc" horiz-adv-x="943" 
d="M440 -287c0 40 31 70 67 70c40 0 71 -30 71 -70c0 -39 -31 -69 -71 -69c-36 0 -67 30 -67 69zM831 71v-71h-653v1063h653v-71h-571v-413h541v-70h-541v-438h571z" />
    <glyph glyph-name="Einvertedbreve.sc" horiz-adv-x="943" 
d="M831 71v-71h-653v1063h653v-71h-571v-413h541v-70h-541v-438h571zM239 1234c0 121 88 242 268 242s261 -124 261 -242h-67c0 104 -66 181 -194 181s-201 -77 -201 -181h-67z" />
    <glyph glyph-name="Ehookabove.sc" horiz-adv-x="943" 
d="M388 1441v56c14 11 54 25 94 25c91 0 156 -56 156 -139c0 -69 -50 -111 -100 -138l-34 45c45 25 71 52 71 93c0 45 -38 84 -101 84c-32 0 -63 -12 -86 -26zM831 71v-71h-653v1063h653v-71h-571v-413h541v-70h-541v-438h571z" />
    <glyph glyph-name="Ecaron.sc" horiz-adv-x="943" 
d="M245 1556h74l186 -266h4l186 266h74l-232 -327h-60zM831 71v-71h-653v1063h653v-71h-571v-413h541v-70h-541v-438h571z" />
    <glyph glyph-name="Emacron.sc" horiz-adv-x="943" 
d="M784 1298h-553v61h553v-61zM831 71v-71h-653v1063h653v-71h-571v-413h541v-70h-541v-438h571z" />
    <glyph glyph-name="Emacrongrave.sc" horiz-adv-x="943" 
d="M831 71v-71h-653v1063h653v-71h-571v-413h541v-70h-541v-438h571zM550 1512h-72l-248 294h91zM784 1298h-553v61h553v-61z" />
    <glyph glyph-name="Emacronacute.sc" horiz-adv-x="943" 
d="M536 1512h-72l230 294h90zM784 1298h-553v61h553v-61zM831 71v-71h-653v1063h653v-71h-571v-413h541v-70h-541v-438h571z" />
    <glyph glyph-name="Etilde.sc" horiz-adv-x="943" 
d="M635 1226c-141 0 -167 158 -265 158c-56 0 -99 -53 -100 -142h-63c0 126 66 202 163 202c140 0 158 -158 265 -158c65 0 100 61 101 147h64c0 -115 -58 -207 -165 -207zM831 71v-71h-653v1063h653v-71h-571v-413h541v-70h-541v-438h571z" />
    <glyph glyph-name="Ecircumflexbelow.sc" horiz-adv-x="943" 
d="M831 71v-71h-653v1063h653v-71h-571v-413h541v-70h-541v-438h571zM246 -413l230 280h62l230 -280h-73l-186 229h-4l-186 -229h-73z" />
    <glyph glyph-name="Ebreve.sc" horiz-adv-x="943" 
d="M239 1469h67c0 -104 73 -180 201 -180s201 76 201 180h67c0 -117 -88 -242 -268 -242s-268 122 -268 242zM831 71v-71h-653v1063h653v-71h-571v-413h541v-70h-541v-438h571z" />
    <glyph glyph-name="Etildebelow.sc" horiz-adv-x="943" 
d="M634 -382c-140 0 -166 157 -262 157c-54 0 -98 -51 -98 -140h-62c0 125 64 198 160 198c138 0 156 -156 261 -156c64 0 99 59 100 145h62c0 -113 -56 -204 -161 -204zM831 71v-71h-653v1063h653v-71h-571v-413h541v-70h-541v-438h571z" />
    <glyph glyph-name="Edotaccent.sc" horiz-adv-x="943" 
d="M431 1355c0 43 34 77 75 77c42 0 77 -34 77 -77c0 -42 -35 -75 -77 -75c-41 0 -75 33 -75 75zM831 71v-71h-653v1063h653v-71h-571v-413h541v-70h-541v-438h571z" />
    <glyph glyph-name="Ecedilla.sc" horiz-adv-x="943" 
d="M472 -464c-53 -1 -102 8 -124 15v63c26 -9 74 -15 121 -15c72 0 150 30 150 104c0 69 -56 99 -152 99h-51v48l65 150h-303v1063h653v-71h-571v-413h541v-69h-541v-439h571v-71h-283l-58 -139c106 0 207 -43 207 -154c0 -119 -115 -170 -225 -171z" />
    <glyph glyph-name="Ecedillabreve.sc" horiz-adv-x="943" 
d="M472 -464c-53 -1 -102 8 -124 15v63c26 -9 74 -15 121 -15c72 0 150 30 150 104c0 69 -56 99 -152 99h-51v48l65 150h-303v1063h653v-71h-571v-413h541v-69h-541v-439h571v-71h-283l-58 -139c106 0 207 -43 207 -154c0 -119 -115 -170 -225 -171zM224 1469h67
c0 -104 73 -180 201 -180s201 76 201 180h67c0 -117 -88 -242 -268 -242s-268 122 -268 242z" />
    <glyph glyph-name="Eogonek.sc" horiz-adv-x="943" 
d="M739 -366c-97 0 -178 52 -178 164c0 90 59 165 131 202h-514v1063h653v-71h-571v-413h541v-69h-541v-439h571v-57c-103 -32 -194 -111 -194 -204c0 -69 42 -109 114 -109c25 0 58 4 79 13v-64c-15 -6 -49 -16 -91 -16z" />
    <glyph glyph-name="F.sc" horiz-adv-x="886" 
d="M260 0h-82v1063h643v-71h-561v-426h515v-70h-515v-496z" />
    <glyph glyph-name="Fdotaccent.sc" horiz-adv-x="886" 
d="M260 0h-82v1063h643v-71h-561v-426h515v-70h-515v-496zM374 1355c0 43 34 77 75 77c42 0 77 -34 77 -77c0 -42 -35 -75 -77 -75c-41 0 -75 33 -75 75z" />
    <glyph glyph-name="G.sc" horiz-adv-x="1099" 
d="M963 780h-79c-8 117 -114 237 -318 237c-209 0 -352 -144 -352 -394v-173c0 -236 115 -403 350 -403c193 0 324 100 324 268v137h-329v69h408v-206c0 -189 -141 -339 -402 -339c-296 0 -433 201 -433 474v173c0 283 166 464 435 464c263 0 392 -155 396 -307z" />
    <glyph glyph-name="Gacute.sc" horiz-adv-x="1099" 
d="M963 780h-79c-8 117 -114 237 -318 237c-209 0 -352 -144 -352 -394v-173c0 -236 115 -403 350 -403c193 0 324 100 324 268v137h-329v69h408v-206c0 -189 -141 -339 -402 -339c-296 0 -433 201 -433 474v173c0 283 166 464 435 464c263 0 392 -155 396 -307zM582 1229
h-72l230 294h90z" />
    <glyph glyph-name="Gcaron.sc" horiz-adv-x="1099" 
d="M963 780h-79c-8 117 -114 237 -318 237c-209 0 -352 -144 -352 -394v-173c0 -236 115 -403 350 -403c193 0 324 100 324 268v137h-329v69h408v-206c0 -189 -141 -339 -402 -339c-296 0 -433 201 -433 474v173c0 283 166 464 435 464c263 0 392 -155 396 -307zM291 1556
h74l186 -266h4l186 266h74l-232 -327h-60z" />
    <glyph glyph-name="Gcircumflex.sc" horiz-adv-x="1099" 
d="M963 780h-79c-8 117 -114 237 -318 237c-209 0 -352 -144 -352 -394v-173c0 -236 115 -403 350 -403c193 0 324 100 324 268v137h-329v69h408v-206c0 -189 -141 -339 -402 -339c-296 0 -433 201 -433 474v173c0 283 166 464 435 464c263 0 392 -155 396 -307zM291 1229
l233 327h59l233 -327h-75l-186 266h-3l-187 -266h-74z" />
    <glyph glyph-name="Gbreve.sc" horiz-adv-x="1099" 
d="M963 780h-79c-8 117 -114 237 -318 237c-209 0 -352 -144 -352 -394v-173c0 -236 115 -403 350 -403c193 0 324 100 324 268v137h-329v69h408v-206c0 -189 -141 -339 -402 -339c-296 0 -433 201 -433 474v173c0 283 166 464 435 464c263 0 392 -155 396 -307zM285 1469
h67c0 -104 73 -180 201 -180s201 76 201 180h67c0 -117 -88 -242 -268 -242s-268 122 -268 242z" />
    <glyph glyph-name="Gmacron.sc" horiz-adv-x="1099" 
d="M963 780h-79c-8 117 -114 237 -318 237c-209 0 -352 -144 -352 -394v-173c0 -236 115 -403 350 -403c193 0 324 100 324 268v137h-329v69h408v-206c0 -189 -141 -339 -402 -339c-296 0 -433 201 -433 474v173c0 283 166 464 435 464c263 0 392 -155 396 -307zM830 1298
h-553v61h553v-61z" />
    <glyph glyph-name="Gdotaccent.sc" horiz-adv-x="1099" 
d="M963 780h-79c-8 117 -114 237 -318 237c-209 0 -352 -144 -352 -394v-173c0 -236 115 -403 350 -403c193 0 324 100 324 268v137h-329v69h408v-206c0 -189 -141 -339 -402 -339c-296 0 -433 201 -433 474v173c0 283 166 464 435 464c263 0 392 -155 396 -307zM477 1355
c0 43 34 77 75 77c42 0 77 -34 77 -77c0 -42 -35 -75 -77 -75c-41 0 -75 33 -75 75z" />
    <glyph glyph-name="Gcommaaccent.sc" horiz-adv-x="1099" 
d="M963 780h-79c-8 117 -114 237 -318 237c-209 0 -352 -144 -352 -394v-173c0 -236 115 -403 350 -403c193 0 324 100 324 268v137h-329v69h408v-206c0 -189 -141 -339 -402 -339c-296 0 -433 201 -433 474v173c0 283 166 464 435 464c263 0 392 -155 396 -307zM490 -481
h-60l85 335h89z" />
    <glyph glyph-name="H.sc" horiz-adv-x="1161" 
d="M983 0h-83v522h-640v-522h-82v1063h82v-472h640v472h83v-1063z" />
    <glyph glyph-name="Hdieresis.sc" horiz-adv-x="1161" 
d="M983 0h-83v522h-640v-522h-82v1063h82v-472h640v472h83v-1063zM431 1263c-36 0 -64 29 -64 65s28 65 64 65s64 -29 64 -65s-28 -65 -64 -65zM730 1263c-36 0 -64 29 -64 65s28 65 64 65s64 -29 64 -65s-28 -65 -64 -65z" />
    <glyph glyph-name="Hcaron.sc" horiz-adv-x="1161" 
d="M319 1556h74l186 -266h4l186 266h74l-232 -327h-60zM983 0h-83v522h-640v-522h-82v1063h82v-472h640v472h83v-1063z" />
    <glyph glyph-name="Hcircumflex.sc" horiz-adv-x="1161" 
d="M318 1229l233 327h59l233 -327h-75l-186 266h-3l-187 -266h-74zM983 0h-83v522h-640v-522h-82v1063h82v-472h640v472h83v-1063z" />
    <glyph glyph-name="Hdotbelow.sc" horiz-adv-x="1161" 
d="M513 -287c0 40 31 70 67 70c40 0 71 -30 71 -70c0 -39 -31 -69 -71 -69c-36 0 -67 30 -67 69zM983 0h-83v522h-640v-522h-82v1063h82v-472h640v472h83v-1063z" />
    <glyph glyph-name="Hdotaccent.sc" horiz-adv-x="1161" 
d="M504 1355c0 43 34 77 75 77c42 0 77 -34 77 -77c0 -42 -35 -75 -77 -75c-41 0 -75 33 -75 75zM983 0h-83v522h-640v-522h-82v1063h82v-472h640v472h83v-1063z" />
    <glyph glyph-name="Hbrevebelow.sc" horiz-adv-x="1161" 
d="M307 -159c0 -122 90 -242 273 -242s264 124 264 242h-68c0 -104 -67 -181 -196 -181s-203 77 -203 181h-70zM983 0h-83v522h-640v-522h-82v1063h82v-472h640v472h83v-1063z" />
    <glyph glyph-name="Hcedilla.sc" horiz-adv-x="1161" 
d="M185 -464c-53 -1 -102 8 -125 15v63c27 -9 75 -15 121 -15c73 0 151 30 151 104c0 69 -56 99 -153 99h-50v48l64 150h-15v1063h82v-472h640v472h83v-1063h-83v522h-640v-522l-58 -139c107 0 207 -43 207 -154c0 -119 -114 -170 -224 -171z" />
    <glyph glyph-name="Hbar.sc" horiz-adv-x="1165" 
d="M260 583h640v212h-640v-212zM260 513v-513h-82v795h-109v62h109v206h82v-206h640v206h83v-206h112v-62h-112v-795h-83v513h-640z" />
    <glyph glyph-name="I.sc" horiz-adv-x="460" 
d="M272 0h-84v1063h84v-1063z" />
    <glyph glyph-name="Idotaccent.sc" horiz-adv-x="460" 
d="M154 1355c0 43 34 77 75 77c42 0 77 -34 77 -77c0 -42 -35 -75 -77 -75c-41 0 -75 33 -75 75zM272 0h-84v1063h84v-1063z" />
    <glyph glyph-name="Igrave.sc" horiz-adv-x="460" 
d="M273 1229h-72l-248 294h91zM272 0h-84v1063h84v-1063z" />
    <glyph glyph-name="Idblgrave.sc" horiz-adv-x="460" 
d="M272 0h-84v1063h84v-1063zM94 1229l-247 294h85l230 -294h-68zM312 1229l-247 294h84l231 -294h-68z" />
    <glyph glyph-name="Iacute.sc" horiz-adv-x="460" 
d="M259 1229h-72l230 294h90zM272 0h-84v1063h84v-1063z" />
    <glyph glyph-name="Icircumflex.sc" horiz-adv-x="460" 
d="M-32 1229l233 327h59l233 -327h-75l-186 266h-3l-187 -266h-74zM272 0h-84v1063h84v-1063z" />
    <glyph glyph-name="Icaron.sc" horiz-adv-x="460" 
d="M-32 1556h74l186 -266h4l186 266h74l-232 -327h-60zM272 0h-84v1063h84v-1063z" />
    <glyph glyph-name="Idieresis.sc" horiz-adv-x="460" 
d="M272 0h-84v1063h84v-1063zM80 1263c-36 0 -64 29 -64 65s28 65 64 65s64 -29 64 -65s-28 -65 -64 -65zM379 1263c-36 0 -64 29 -64 65s28 65 64 65s64 -29 64 -65s-28 -65 -64 -65z" />
    <glyph glyph-name="Idieresisacute.sc" horiz-adv-x="460" 
d="M259 1512h-72l230 294h90zM80 1263c-36 0 -64 29 -64 65s28 65 64 65s64 -29 64 -65s-28 -65 -64 -65zM379 1263c-36 0 -64 29 -64 65s28 65 64 65s64 -29 64 -65s-28 -65 -64 -65zM272 0h-84v1063h84v-1063z" />
    <glyph glyph-name="Ibreve.sc" horiz-adv-x="460" 
d="M272 0h-84v1063h84v-1063zM-38 1469h67c0 -104 73 -180 201 -180s201 76 201 180h67c0 -117 -88 -242 -268 -242s-268 122 -268 242z" />
    <glyph glyph-name="Idotbelow.sc" horiz-adv-x="460" 
d="M163 -287c0 40 31 70 67 70c40 0 71 -30 71 -70c0 -39 -31 -69 -71 -69c-36 0 -67 30 -67 69zM272 0h-84v1063h84v-1063z" />
    <glyph glyph-name="Iinvertedbreve.sc" horiz-adv-x="460" 
d="M272 0h-84v1063h84v-1063zM-38 1234c0 121 88 242 268 242s261 -124 261 -242h-67c0 104 -66 181 -194 181s-201 -77 -201 -181h-67z" />
    <glyph glyph-name="Imacron.sc" horiz-adv-x="460" 
d="M272 0h-84v1063h84v-1063zM507 1298h-553v61h553v-61z" />
    <glyph glyph-name="Itildebelow.sc" horiz-adv-x="460" 
d="M357 -382c-140 0 -166 157 -262 157c-54 0 -98 -51 -98 -140h-62c0 125 64 198 160 198c138 0 156 -156 261 -156c64 0 99 59 100 145h62c0 -113 -56 -204 -161 -204zM272 0h-84v1063h84v-1063z" />
    <glyph glyph-name="Ihookabove.sc" horiz-adv-x="460" 
d="M272 0h-84v1063h84v-1063zM111 1441v56c14 11 54 25 94 25c91 0 156 -56 156 -139c0 -69 -50 -111 -100 -138l-34 45c45 25 71 52 71 93c0 45 -38 84 -101 84c-32 0 -63 -12 -86 -26z" />
    <glyph glyph-name="Itilde.sc" horiz-adv-x="460" 
d="M272 0h-84v1063h84v-1063zM358 1226c-141 0 -167 158 -265 158c-56 0 -99 -53 -100 -142h-63c0 126 66 202 163 202c140 0 158 -158 265 -158c65 0 100 61 101 147h64c0 -115 -58 -207 -165 -207z" />
    <glyph glyph-name="Iogonek.sc" horiz-adv-x="460" 
d="M315 -349c-13 -6 -46 -17 -89 -17c-98 0 -178 55 -178 164c0 108 71 171 140 224v1041h84v-1063c-78 -43 -148 -101 -148 -190c0 -68 44 -109 114 -109c23 0 54 4 77 13v-63z" />
    <glyph glyph-name="J.sc" horiz-adv-x="811" 
d="M52 235h82c1 -81 61 -180 211 -180c127 0 220 69 220 228v783h83v-779c0 -206 -124 -304 -304 -304c-209 0 -292 136 -292 252z" />
    <glyph glyph-name="Jcircumflex.sc" horiz-adv-x="811" 
d="M345 1229l233 327h59l233 -327h-75l-186 266h-3l-187 -266h-74zM52 235h82c1 -81 61 -180 211 -180c127 0 220 69 220 228v783h83v-779c0 -206 -124 -304 -304 -304c-209 0 -292 136 -292 252z" />
    <glyph glyph-name="K.sc" horiz-adv-x="980" 
d="M919 1063l-458 -470l483 -593h-105l-439 540l-140 -139v-401h-82v1063h82v-560h4l553 560h102z" />
    <glyph glyph-name="Kacute.sc" horiz-adv-x="980" 
d="M519 1229h-72l230 294h90zM919 1063l-458 -470l483 -593h-105l-439 540l-140 -139v-401h-82v1063h82v-560h4l553 560h102z" />
    <glyph glyph-name="Kcaron.sc" horiz-adv-x="980" 
d="M228 1556h74l186 -266h4l186 266h74l-232 -327h-60zM919 1063l-458 -470l483 -593h-105l-439 540l-140 -139v-401h-82v1063h82v-560h4l553 560h102z" />
    <glyph glyph-name="Kdotbelow.sc" horiz-adv-x="980" 
d="M423 -287c0 40 31 70 67 70c40 0 71 -30 71 -70c0 -39 -31 -69 -71 -69c-36 0 -67 30 -67 69zM919 1063l-458 -470l483 -593h-105l-439 540l-140 -139v-401h-82v1063h82v-560h4l553 560h102z" />
    <glyph glyph-name="Klinebelow.sc" horiz-adv-x="980" 
d="M767 -303h-553v61h553v-61zM919 1063l-458 -470l483 -593h-105l-439 540l-140 -139v-401h-82v1063h82v-560h4l553 560h102z" />
    <glyph glyph-name="Kcommaaccent.sc" horiz-adv-x="980" 
d="M428 -481h-60l85 335h89zM919 1063l-458 -470l483 -593h-105l-439 540l-140 -139v-401h-82v1063h82v-560h4l553 560h102z" />
    <glyph glyph-name="L.sc" horiz-adv-x="887" 
d="M819 70v-70h-641v1063h82v-993h559z" />
    <glyph glyph-name="Lacute.sc" horiz-adv-x="887" 
d="M819 70v-70h-641v1063h82v-993h559zM248 1229h-72l230 294h90z" />
    <glyph glyph-name="Lcircumflexbelow.sc" horiz-adv-x="887" 
d="M819 70v-70h-641v1063h82v-993h559zM182 -413l230 280h62l230 -280h-73l-186 229h-4l-186 -229h-73z" />
    <glyph glyph-name="Ldotbelow.sc" horiz-adv-x="887" 
d="M819 70v-70h-641v1063h82v-993h559zM376 -287c0 40 31 70 67 70c40 0 71 -30 71 -70c0 -39 -31 -69 -71 -69c-36 0 -67 30 -67 69z" />
    <glyph glyph-name="Ldotbelowmacron.sc" horiz-adv-x="887" 
d="M819 70v-70h-641v1063h82v-993h559zM376 -287c0 40 31 70 67 70c40 0 71 -30 71 -70c0 -39 -31 -69 -71 -69c-36 0 -67 30 -67 69zM496 1298h-553v61h553v-61z" />
    <glyph glyph-name="Llinebelow.sc" horiz-adv-x="887" 
d="M819 70v-70h-641v1063h82v-993h559zM720 -303h-553v61h553v-61z" />
    <glyph glyph-name="Lcommaaccent.sc" horiz-adv-x="887" 
d="M819 70v-70h-641v1063h82v-993h559zM381 -481h-60l85 335h89z" />
    <glyph glyph-name="Lcaron.sc" horiz-adv-x="887" 
d="M516 1115h84l-27 -488h-57v488zM819 70v-70h-641v1063h82v-993h559z" />
    <glyph glyph-name="Lslash.sc" horiz-adv-x="890" 
d="M823 0h-642v450l-122 -66v75l122 68v536h82v-491l361 199v-78l-361 -197v-426h560v-70z" />
    <glyph glyph-name="M.sc" horiz-adv-x="1360" 
d="M255 0h-76v1063h83l416 -890h5l416 890h82v-1063h-76v898h-5l-383 -813h-73l-384 813h-5v-898z" />
    <glyph glyph-name="Macute.sc" horiz-adv-x="1360" 
d="M709 1229h-72l230 294h90zM255 0h-76v1063h83l416 -890h5l416 890h82v-1063h-76v898h-5l-383 -813h-73l-384 813h-5v-898z" />
    <glyph glyph-name="Mdotaccent.sc" horiz-adv-x="1360" 
d="M604 1355c0 43 34 77 75 77c42 0 77 -34 77 -77c0 -42 -35 -75 -77 -75c-41 0 -75 33 -75 75zM255 0h-76v1063h83l416 -890h5l416 890h82v-1063h-76v898h-5l-383 -813h-73l-384 813h-5v-898z" />
    <glyph glyph-name="Mdotbelow.sc" horiz-adv-x="1360" 
d="M613 -287c0 40 31 70 67 70c40 0 71 -30 71 -70c0 -39 -31 -69 -71 -69c-36 0 -67 30 -67 69zM255 0h-76v1063h83l416 -890h5l416 890h82v-1063h-76v898h-5l-383 -813h-73l-384 813h-5v-898z" />
    <glyph glyph-name="N.sc" horiz-adv-x="1160" 
d="M259 0h-81v1063h81l636 -927h4v927h83v-1063h-82l-636 927h-5v-927z" />
    <glyph glyph-name="Ngrave.sc" horiz-adv-x="1160" 
d="M259 0h-81v1063h81l636 -927h4v927h83v-1063h-82l-636 927h-5v-927zM623 1229h-72l-248 294h91z" />
    <glyph glyph-name="Nacute.sc" horiz-adv-x="1160" 
d="M259 0h-81v1063h81l636 -927h4v927h83v-1063h-82l-636 927h-5v-927zM609 1229h-72l230 294h90z" />
    <glyph glyph-name="Ntilde.sc" horiz-adv-x="1160" 
d="M259 0h-81v1063h81l636 -927h4v927h83v-1063h-82l-636 927h-5v-927zM708 1226c-141 0 -167 158 -265 158c-56 0 -99 -53 -100 -142h-63c0 126 66 202 163 202c140 0 158 -158 265 -158c65 0 100 61 101 147h64c0 -115 -58 -207 -165 -207z" />
    <glyph glyph-name="Ndotbelow.sc" horiz-adv-x="1160" 
d="M512 -287c0 40 31 70 67 70c40 0 71 -30 71 -70c0 -39 -31 -69 -71 -69c-36 0 -67 30 -67 69zM259 0h-81v1063h81l636 -927h4v927h83v-1063h-82l-636 927h-5v-927z" />
    <glyph glyph-name="Ndotaccent.sc" horiz-adv-x="1160" 
d="M259 0h-81v1063h81l636 -927h4v927h83v-1063h-82l-636 927h-5v-927zM504 1355c0 43 34 77 75 77c42 0 77 -34 77 -77c0 -42 -35 -75 -77 -75c-41 0 -75 33 -75 75z" />
    <glyph glyph-name="Ncaron.sc" horiz-adv-x="1160" 
d="M318 1556h74l186 -266h4l186 266h74l-232 -327h-60zM259 0h-81v1063h81l636 -927h4v927h83v-1063h-82l-636 927h-5v-927z" />
    <glyph glyph-name="Ncircumflexbelow.sc" horiz-adv-x="1160" 
d="M259 0h-81v1063h81l636 -927h4v927h83v-1063h-82l-636 927h-5v-927zM319 -413l230 280h62l230 -280h-73l-186 229h-4l-186 -229h-73z" />
    <glyph glyph-name="Nlinebelow.sc" horiz-adv-x="1160" 
d="M259 0h-81v1063h81l636 -927h4v927h83v-1063h-82l-636 927h-5v-927zM857 -303h-553v61h553v-61z" />
    <glyph glyph-name="Ncommaaccent.sc" horiz-adv-x="1160" 
d="M259 0h-81v1063h81l636 -927h4v927h83v-1063h-82l-636 927h-5v-927zM518 -481h-60l85 335h89z" />
    <glyph glyph-name="O.sc" horiz-adv-x="1137" 
d="M214 626v-193c0 -238 136 -386 354 -386s355 148 355 386v193c0 238 -138 391 -355 391c-216 0 -354 -153 -354 -391zM132 437v185c0 283 162 465 436 465c276 0 437 -183 437 -466v-184c0 -282 -162 -461 -437 -461c-276 0 -436 179 -436 461z" />
    <glyph glyph-name="Odieresis.sc" horiz-adv-x="1137" 
d="M214 626v-193c0 -238 136 -386 354 -386s355 148 355 386v193c0 238 -138 391 -355 391c-216 0 -354 -153 -354 -391zM132 437v185c0 283 162 465 436 465c276 0 437 -183 437 -466v-184c0 -282 -162 -461 -437 -461c-276 0 -436 179 -436 461zM419 1263
c-36 0 -64 29 -64 65s28 65 64 65s64 -29 64 -65s-28 -65 -64 -65zM718 1263c-36 0 -64 29 -64 65s28 65 64 65s64 -29 64 -65s-28 -65 -64 -65z" />
    <glyph glyph-name="Oslash.sc" horiz-adv-x="1137" 
d="M568 -24c-148 0 -262 52 -336 144l-91 -103l-48 37l103 115c-42 73 -64 163 -64 269v184c0 283 161 465 436 465c144 0 255 -50 329 -136l95 106l51 -33l-109 -121c46 -75 71 -170 71 -281v-184c0 -283 -162 -462 -437 -462zM213 433c0 -75 15 -142 41 -197l590 654
c-62 80 -156 127 -276 127c-217 0 -355 -153 -355 -391v-193zM568 47c219 0 355 148 355 386v193c0 81 -16 152 -47 210l-591 -656c61 -85 159 -133 283 -133z" />
    <glyph glyph-name="Otilde.sc" horiz-adv-x="1137" 
d="M214 626v-193c0 -238 136 -386 354 -386s355 148 355 386v193c0 238 -138 391 -355 391c-216 0 -354 -153 -354 -391zM132 437v185c0 283 162 465 436 465c276 0 437 -183 437 -466v-184c0 -282 -162 -461 -437 -461c-276 0 -436 179 -436 461zM697 1226
c-141 0 -167 158 -265 158c-56 0 -99 -53 -100 -142h-63c0 126 66 202 163 202c140 0 158 -158 265 -158c65 0 100 61 101 147h64c0 -115 -58 -207 -165 -207z" />
    <glyph glyph-name="Oacute.sc" horiz-adv-x="1137" 
d="M214 626v-193c0 -238 136 -386 354 -386s355 148 355 386v193c0 238 -138 391 -355 391c-216 0 -354 -153 -354 -391zM132 437v185c0 283 162 465 436 465c276 0 437 -183 437 -466v-184c0 -282 -162 -461 -437 -461c-276 0 -436 179 -436 461zM598 1229h-72l230 294h90z
" />
    <glyph glyph-name="Ocircumflex.sc" horiz-adv-x="1137" 
d="M214 626v-193c0 -238 136 -386 354 -386s355 148 355 386v193c0 238 -138 391 -355 391c-216 0 -354 -153 -354 -391zM132 437v185c0 283 162 465 436 465c276 0 437 -183 437 -466v-184c0 -282 -162 -461 -437 -461c-276 0 -436 179 -436 461zM307 1229l233 327h59
l233 -327h-75l-186 266h-3l-187 -266h-74z" />
    <glyph glyph-name="Ograve.sc" horiz-adv-x="1137" 
d="M214 626v-193c0 -238 136 -386 354 -386s355 148 355 386v193c0 238 -138 391 -355 391c-216 0 -354 -153 -354 -391zM132 437v185c0 283 162 465 436 465c276 0 437 -183 437 -466v-184c0 -282 -162 -461 -437 -461c-276 0 -436 179 -436 461zM612 1229h-72l-248 294h91
z" />
    <glyph glyph-name="Ocircumflexhookabove.sc" horiz-adv-x="1137" 
d="M214 626v-193c0 -238 136 -386 354 -386s355 148 355 386v193c0 238 -138 391 -355 391c-216 0 -354 -153 -354 -391zM132 437v185c0 283 162 465 436 465c276 0 437 -183 437 -466v-184c0 -282 -162 -461 -437 -461c-276 0 -436 179 -436 461zM699 1666v55
c14 12 53 26 93 26c90 0 155 -56 155 -138c0 -68 -50 -110 -99 -137l-34 44c44 26 70 52 70 93c0 45 -37 83 -100 83c-31 0 -63 -12 -85 -26zM307 1229l233 327h59l233 -327h-75l-186 266h-3l-187 -266h-74z" />
    <glyph glyph-name="Ocircumflexgrave.sc" horiz-adv-x="1137" 
d="M214 626v-193c0 -238 136 -386 354 -386s355 148 355 386v193c0 238 -138 391 -355 391c-216 0 -354 -153 -354 -391zM132 437v185c0 283 162 465 436 465c276 0 437 -183 437 -466v-184c0 -282 -162 -461 -437 -461c-276 0 -436 179 -436 461zM972 1463h-71l-248 294h90
zM307 1229l233 327h59l233 -327h-75l-186 266h-3l-187 -266h-74z" />
    <glyph glyph-name="Odotbelow.sc" horiz-adv-x="1137" 
d="M214 626v-193c0 -238 136 -386 354 -386s355 148 355 386v193c0 238 -138 391 -355 391c-216 0 -354 -153 -354 -391zM132 437v185c0 283 162 465 436 465c276 0 437 -183 437 -466v-184c0 -282 -162 -461 -437 -461c-276 0 -436 179 -436 461zM501 -287
c0 40 31 70 67 70c40 0 71 -30 71 -70c0 -39 -31 -69 -71 -69c-36 0 -67 30 -67 69z" />
    <glyph glyph-name="Odblgrave.sc" horiz-adv-x="1137" 
d="M214 626v-193c0 -238 136 -386 354 -386s355 148 355 386v193c0 238 -138 391 -355 391c-216 0 -354 -153 -354 -391zM132 437v185c0 283 162 465 436 465c276 0 437 -183 437 -466v-184c0 -282 -162 -461 -437 -461c-276 0 -436 179 -436 461zM433 1229l-247 294h85
l230 -294h-68zM651 1229l-247 294h84l231 -294h-68z" />
    <glyph glyph-name="Otildeacute.sc" horiz-adv-x="1137" 
d="M214 626v-193c0 -238 136 -386 354 -386s355 148 355 386v193c0 238 -138 391 -355 391c-216 0 -354 -153 -354 -391zM132 437v185c0 283 162 465 436 465c276 0 437 -183 437 -466v-184c0 -282 -162 -461 -437 -461c-276 0 -436 179 -436 461zM597 1512h-72l230 294h90z
M697 1226c-141 0 -167 158 -265 158c-56 0 -99 -53 -100 -142h-63c0 126 66 202 163 202c140 0 158 -158 265 -158c65 0 100 61 101 147h64c0 -115 -58 -207 -165 -207z" />
    <glyph glyph-name="Omacronacute.sc" horiz-adv-x="1137" 
d="M214 626v-193c0 -238 136 -386 354 -386s355 148 355 386v193c0 238 -138 391 -355 391c-216 0 -354 -153 -354 -391zM132 437v185c0 283 162 465 436 465c276 0 437 -183 437 -466v-184c0 -282 -162 -461 -437 -461c-276 0 -436 179 -436 461zM598 1512h-72l230 294h90z
M846 1298h-553v61h553v-61z" />
    <glyph glyph-name="Ocircumflextilde.sc" horiz-adv-x="1137" 
d="M214 626v-193c0 -238 136 -386 354 -386s355 148 355 386v193c0 238 -138 391 -355 391c-216 0 -354 -153 -354 -391zM132 437v185c0 283 162 465 436 465c276 0 437 -183 437 -466v-184c0 -282 -162 -461 -437 -461c-276 0 -436 179 -436 461zM356 1671h-61
c0 113 60 184 151 184c129 0 143 -144 243 -144c61 0 91 53 92 128h61c0 -99 -51 -184 -153 -184c-134 0 -150 143 -243 143c-53 0 -90 -49 -90 -127zM307 1229l233 327h59l233 -327h-75l-186 266h-3l-187 -266h-74z" />
    <glyph glyph-name="Odotaccentmacron.sc" horiz-adv-x="1137" 
d="M214 626v-193c0 -238 136 -386 354 -386s355 148 355 386v193c0 238 -138 391 -355 391c-216 0 -354 -153 -354 -391zM132 437v185c0 283 162 465 436 465c276 0 437 -183 437 -466v-184c0 -282 -162 -461 -437 -461c-276 0 -436 179 -436 461zM493 1355
c0 43 34 77 75 77c42 0 77 -34 77 -77c0 -42 -35 -75 -77 -75c-41 0 -75 33 -75 75zM846 1579h-553v61h553v-61z" />
    <glyph glyph-name="Omacrongrave.sc" horiz-adv-x="1137" 
d="M214 626v-193c0 -238 136 -386 354 -386s355 148 355 386v193c0 238 -138 391 -355 391c-216 0 -354 -153 -354 -391zM132 437v185c0 283 162 465 436 465c276 0 437 -183 437 -466v-184c0 -282 -162 -461 -437 -461c-276 0 -436 179 -436 461zM612 1512h-72l-248 294h91
zM846 1298h-553v61h553v-61z" />
    <glyph glyph-name="Ocaron.sc" horiz-adv-x="1137" 
d="M214 626v-193c0 -238 136 -386 354 -386s355 148 355 386v193c0 238 -138 391 -355 391c-216 0 -354 -153 -354 -391zM132 437v185c0 283 162 465 436 465c276 0 437 -183 437 -466v-184c0 -282 -162 -461 -437 -461c-276 0 -436 179 -436 461zM307 1556h74l186 -266h4
l186 266h74l-232 -327h-60z" />
    <glyph glyph-name="Oslashacute.sc" horiz-adv-x="1137" 
d="M597 1229h-72l230 294h90zM568 -24c-148 0 -262 52 -336 144l-91 -103l-48 37l103 115c-42 73 -64 163 -64 269v184c0 283 161 465 436 465c144 0 255 -50 329 -136l95 106l51 -33l-109 -121c46 -75 71 -170 71 -281v-184c0 -283 -162 -462 -437 -462zM213 433
c0 -75 15 -142 41 -197l590 654c-62 80 -156 127 -276 127c-217 0 -355 -153 -355 -391v-193zM568 47c219 0 355 148 355 386v193c0 81 -16 152 -47 210l-591 -656c61 -85 159 -133 283 -133z" />
    <glyph glyph-name="Ohungarumlaut.sc" horiz-adv-x="1137" 
d="M214 626v-193c0 -238 136 -386 354 -386s355 148 355 386v193c0 238 -138 391 -355 391c-216 0 -354 -153 -354 -391zM132 437v185c0 283 162 465 436 465c276 0 437 -183 437 -466v-184c0 -282 -162 -461 -437 -461c-276 0 -436 179 -436 461zM481 1231h-68l231 294h85z
M699 1231h-68l231 294h84z" />
    <glyph glyph-name="Obreve.sc" horiz-adv-x="1137" 
d="M214 626v-193c0 -238 136 -386 354 -386s355 148 355 386v193c0 238 -138 391 -355 391c-216 0 -354 -153 -354 -391zM132 437v185c0 283 162 465 436 465c276 0 437 -183 437 -466v-184c0 -282 -162 -461 -437 -461c-276 0 -436 179 -436 461zM301 1469h67
c0 -104 73 -180 201 -180s201 76 201 180h67c0 -117 -88 -242 -268 -242s-268 122 -268 242z" />
    <glyph glyph-name="Oinvertedbreve.sc" horiz-adv-x="1137" 
d="M214 626v-193c0 -238 136 -386 354 -386s355 148 355 386v193c0 238 -138 391 -355 391c-216 0 -354 -153 -354 -391zM132 437v185c0 283 162 465 436 465c276 0 437 -183 437 -466v-184c0 -282 -162 -461 -437 -461c-276 0 -436 179 -436 461zM301 1234
c0 121 88 242 268 242s261 -124 261 -242h-67c0 104 -66 181 -194 181s-201 -77 -201 -181h-67z" />
    <glyph glyph-name="Ohookabove.sc" horiz-adv-x="1137" 
d="M214 626v-193c0 -238 136 -386 354 -386s355 148 355 386v193c0 238 -138 391 -355 391c-216 0 -354 -153 -354 -391zM132 437v185c0 283 162 465 436 465c276 0 437 -183 437 -466v-184c0 -282 -162 -461 -437 -461c-276 0 -436 179 -436 461zM450 1441v56
c14 11 54 25 94 25c91 0 156 -56 156 -139c0 -69 -50 -111 -100 -138l-34 45c45 25 71 52 71 93c0 45 -38 84 -101 84c-32 0 -63 -12 -86 -26z" />
    <glyph glyph-name="Odieresismacron.sc" horiz-adv-x="1137" 
d="M214 626v-193c0 -238 136 -386 354 -386s355 148 355 386v193c0 238 -138 391 -355 391c-216 0 -354 -153 -354 -391zM132 437v185c0 283 162 465 436 465c276 0 437 -183 437 -466v-184c0 -282 -162 -461 -437 -461c-276 0 -436 179 -436 461zM419 1263
c-36 0 -64 29 -64 65s28 65 64 65s64 -29 64 -65s-28 -65 -64 -65zM718 1263c-36 0 -64 29 -64 65s28 65 64 65s64 -29 64 -65s-28 -65 -64 -65zM846 1579h-553v61h553v-61z" />
    <glyph glyph-name="Otildemacron.sc" horiz-adv-x="1137" 
d="M214 626v-193c0 -238 136 -386 354 -386s355 148 355 386v193c0 238 -138 391 -355 391c-216 0 -354 -153 -354 -391zM132 437v185c0 283 162 465 436 465c276 0 437 -183 437 -466v-184c0 -282 -162 -461 -437 -461c-276 0 -436 179 -436 461zM697 1226
c-141 0 -167 158 -265 158c-56 0 -99 -53 -100 -142h-63c0 126 66 202 163 202c140 0 158 -158 265 -158c65 0 100 61 101 147h64c0 -115 -58 -207 -165 -207zM846 1579h-553v61h553v-61z" />
    <glyph glyph-name="Odotaccent.sc" horiz-adv-x="1137" 
d="M214 626v-193c0 -238 136 -386 354 -386s355 148 355 386v193c0 238 -138 391 -355 391c-216 0 -354 -153 -354 -391zM132 437v185c0 283 162 465 436 465c276 0 437 -183 437 -466v-184c0 -282 -162 -461 -437 -461c-276 0 -436 179 -436 461zM493 1355
c0 43 34 77 75 77c42 0 77 -34 77 -77c0 -42 -35 -75 -77 -75c-41 0 -75 33 -75 75z" />
    <glyph glyph-name="Ocircumflexdotbelow.sc" horiz-adv-x="1137" 
d="M307 1229l233 327h59l233 -327h-75l-186 266h-3l-187 -266h-74zM214 626v-193c0 -238 136 -386 354 -386s355 148 355 386v193c0 238 -138 391 -355 391c-216 0 -354 -153 -354 -391zM132 437v185c0 283 162 465 436 465c276 0 437 -183 437 -466v-184
c0 -282 -162 -461 -437 -461c-276 0 -436 179 -436 461zM501 -287c0 40 31 70 67 70c40 0 71 -30 71 -70c0 -39 -31 -69 -71 -69c-36 0 -67 30 -67 69z" />
    <glyph glyph-name="Ocircumflexacute.sc" horiz-adv-x="1137" 
d="M214 626v-193c0 -238 136 -386 354 -386s355 148 355 386v193c0 238 -138 391 -355 391c-216 0 -354 -153 -354 -391zM132 437v185c0 283 162 465 436 465c276 0 437 -183 437 -466v-184c0 -282 -162 -461 -437 -461c-276 0 -436 179 -436 461zM856 1463h-71l230 294h89z
M307 1229l233 327h59l233 -327h-75l-186 266h-3l-187 -266h-74z" />
    <glyph glyph-name="Otildedieresis.sc" horiz-adv-x="1137" 
d="M697 1226c-141 0 -167 158 -265 158c-56 0 -99 -53 -100 -142h-63c0 126 66 202 163 202c140 0 158 -158 265 -158c65 0 100 61 101 147h64c0 -115 -58 -207 -165 -207zM419 1574c-36 0 -64 29 -64 65s28 65 64 65s64 -29 64 -65s-28 -65 -64 -65zM718 1574
c-36 0 -64 29 -64 65s28 65 64 65s64 -29 64 -65s-28 -65 -64 -65zM214 626v-193c0 -238 136 -386 354 -386s355 148 355 386v193c0 238 -138 391 -355 391c-216 0 -354 -153 -354 -391zM132 437v185c0 283 162 465 436 465c276 0 437 -183 437 -466v-184
c0 -282 -162 -461 -437 -461c-276 0 -436 179 -436 461z" />
    <glyph glyph-name="Omacron.sc" horiz-adv-x="1137" 
d="M214 626v-193c0 -238 136 -386 354 -386s355 148 355 386v193c0 238 -138 391 -355 391c-216 0 -354 -153 -354 -391zM132 437v185c0 283 162 465 436 465c276 0 437 -183 437 -466v-184c0 -282 -162 -461 -437 -461c-276 0 -436 179 -436 461zM846 1298h-553v61h553v-61
z" />
    <glyph glyph-name="Oogonek.sc" horiz-adv-x="1137" 
d="M652 -17c-26 -6 -56 -7 -83 -7c-277 0 -437 179 -437 461v185c0 283 162 465 436 465c276 0 437 -183 437 -466v-184c0 -197 -78 -324 -212 -409c-65 -42 -151 -114 -151 -209c0 -72 42 -109 111 -109c23 0 57 4 81 12v-64c-12 -6 -48 -17 -93 -17
c-97 0 -175 53 -175 160c0 75 37 135 87 181zM214 626v-193c0 -238 136 -386 354 -386s355 148 355 386v193c0 238 -138 391 -355 391c-216 0 -354 -153 -354 -391z" />
    <glyph glyph-name="Oogonekmacron.sc" horiz-adv-x="1137" 
d="M652 -17c-26 -6 -56 -7 -83 -7c-277 0 -437 179 -437 461v185c0 283 162 465 436 465c276 0 437 -183 437 -466v-184c0 -197 -78 -324 -212 -409c-65 -42 -151 -114 -151 -209c0 -72 42 -109 111 -109c23 0 57 4 81 12v-64c-12 -6 -48 -17 -93 -17
c-97 0 -175 53 -175 160c0 75 37 135 87 181zM214 626v-193c0 -238 136 -386 354 -386s355 148 355 386v193c0 238 -138 391 -355 391c-216 0 -354 -153 -354 -391zM846 1298h-553v61h553v-61z" />
    <glyph glyph-name="Ohorn.sc" horiz-adv-x="1131" 
d="M1005 437c0 -282 -162 -461 -437 -461c-276 0 -436 179 -436 461v185c0 283 162 465 436 465c141 0 226 -59 337 -59c85 0 123 45 123 118v78h75v-78c0 -142 -100 -190 -227 -172l-3 -4c77 -73 132 -195 132 -349v-184zM214 626v-193c0 -238 136 -386 354 -386
s355 148 355 386v193c0 238 -138 391 -355 391c-216 0 -354 -153 -354 -391z" />
    <glyph glyph-name="Ohorndotbelow.sc" horiz-adv-x="1131" 
d="M1005 437c0 -282 -162 -461 -437 -461c-276 0 -436 179 -436 461v185c0 283 162 465 436 465c141 0 226 -59 337 -59c85 0 123 45 123 118v78h75v-78c0 -142 -100 -190 -227 -172l-3 -4c77 -73 132 -195 132 -349v-184zM214 626v-193c0 -238 136 -386 354 -386
s355 148 355 386v193c0 238 -138 391 -355 391c-216 0 -354 -153 -354 -391zM498 -287c0 40 31 70 67 70c40 0 71 -30 71 -70c0 -39 -31 -69 -71 -69c-36 0 -67 30 -67 69z" />
    <glyph glyph-name="Ohornhookabove.sc" horiz-adv-x="1131" 
d="M1005 437c0 -282 -162 -461 -437 -461c-276 0 -436 179 -436 461v185c0 283 162 465 436 465c141 0 226 -59 337 -59c85 0 123 45 123 118v78h75v-78c0 -142 -100 -190 -227 -172l-3 -4c77 -73 132 -195 132 -349v-184zM214 626v-193c0 -238 136 -386 354 -386
s355 148 355 386v193c0 238 -138 391 -355 391c-216 0 -354 -153 -354 -391zM446 1441v56c14 11 54 25 94 25c91 0 156 -56 156 -139c0 -69 -50 -111 -100 -138l-34 45c45 25 71 52 71 93c0 45 -38 84 -101 84c-32 0 -63 -12 -86 -26z" />
    <glyph glyph-name="Ohorntilde.sc" horiz-adv-x="1131" 
d="M1005 437c0 -282 -162 -461 -437 -461c-276 0 -436 179 -436 461v185c0 283 162 465 436 465c141 0 226 -59 337 -59c85 0 123 45 123 118v78h75v-78c0 -142 -100 -190 -227 -172l-3 -4c77 -73 132 -195 132 -349v-184zM214 626v-193c0 -238 136 -386 354 -386
s355 148 355 386v193c0 238 -138 391 -355 391c-216 0 -354 -153 -354 -391zM693 1226c-141 0 -167 158 -265 158c-56 0 -99 -53 -100 -142h-63c0 126 66 202 163 202c140 0 158 -158 265 -158c65 0 100 61 101 147h64c0 -115 -58 -207 -165 -207z" />
    <glyph glyph-name="Ohorngrave.sc" horiz-adv-x="1131" 
d="M1005 437c0 -282 -162 -461 -437 -461c-276 0 -436 179 -436 461v185c0 283 162 465 436 465c141 0 226 -59 337 -59c85 0 123 45 123 118v78h75v-78c0 -142 -100 -190 -227 -172l-3 -4c77 -73 132 -195 132 -349v-184zM214 626v-193c0 -238 136 -386 354 -386
s355 148 355 386v193c0 238 -138 391 -355 391c-216 0 -354 -153 -354 -391zM608 1229h-72l-248 294h91z" />
    <glyph glyph-name="Ohornacute.sc" horiz-adv-x="1131" 
d="M1005 437c0 -282 -162 -461 -437 -461c-276 0 -436 179 -436 461v185c0 283 162 465 436 465c141 0 226 -59 337 -59c85 0 123 45 123 118v78h75v-78c0 -142 -100 -190 -227 -172l-3 -4c77 -73 132 -195 132 -349v-184zM214 626v-193c0 -238 136 -386 354 -386
s355 148 355 386v193c0 238 -138 391 -355 391c-216 0 -354 -153 -354 -391zM594 1229h-72l230 294h90z" />
    <glyph glyph-name="P.sc" horiz-adv-x="987" 
d="M178 1063h373c225 0 355 -124 355 -317c0 -192 -130 -316 -356 -316h-290v-430h-82v1063zM260 993v-493h256c193 0 304 77 304 246c0 156 -100 247 -275 247h-285z" />
    <glyph glyph-name="Pdotaccent.sc" horiz-adv-x="987" 
d="M418 1355c0 43 34 77 75 77c42 0 77 -34 77 -77c0 -42 -35 -75 -77 -75c-41 0 -75 33 -75 75zM178 1063h373c225 0 355 -124 355 -317c0 -192 -130 -316 -356 -316h-290v-430h-82v1063zM260 993v-493h256c193 0 304 77 304 246c0 156 -100 247 -275 247h-285z" />
    <glyph glyph-name="Pacute.sc" horiz-adv-x="987" 
d="M523 1229h-72l230 294h90zM178 1063h373c225 0 355 -124 355 -317c0 -192 -130 -316 -356 -316h-290v-430h-82v1063zM260 993v-493h256c193 0 304 77 304 246c0 156 -100 247 -275 247h-285z" />
    <glyph glyph-name="Q.sc" horiz-adv-x="1138" 
d="M132 446v177c0 283 161 464 436 464s438 -181 438 -464v-177c0 -169 -58 -301 -164 -380l151 -195h-92l-122 156c-59 -29 -130 -45 -211 -45c-275 0 -436 181 -436 464zM213 627v-185c0 -239 137 -389 355 -389c62 0 117 11 164 34l-148 190h95l115 -148
c83 66 129 175 129 313v185c0 238 -138 390 -355 390c-216 0 -355 -152 -355 -390z" />
    <glyph glyph-name="R.sc" horiz-adv-x="1038" 
d="M557 1063c221 0 347 -128 347 -302c0 -168 -108 -259 -236 -289l255 -472h-95l-245 457h-323v-457h-82v1063h379zM260 526h283c171 0 275 87 275 232c0 149 -106 236 -273 236h-285v-468z" />
    <glyph glyph-name="Rcaron.sc" horiz-adv-x="1038" 
d="M247 1556h74l186 -266h4l186 266h74l-232 -327h-60zM557 1063c221 0 347 -128 347 -302c0 -168 -108 -259 -236 -289l255 -472h-95l-245 457h-323v-457h-82v1063h379zM260 526h283c171 0 275 87 275 232c0 149 -106 236 -273 236h-285v-468z" />
    <glyph glyph-name="Rlinebelow.sc" horiz-adv-x="1038" 
d="M786 -303h-553v61h553v-61zM557 1063c221 0 347 -128 347 -302c0 -168 -108 -259 -236 -289l255 -472h-95l-245 457h-323v-457h-82v1063h379zM260 526h283c171 0 275 87 275 232c0 149 -106 236 -273 236h-285v-468z" />
    <glyph glyph-name="Rdotbelowmacron.sc" horiz-adv-x="1038" 
d="M442 -287c0 40 31 70 67 70c40 0 71 -30 71 -70c0 -39 -31 -69 -71 -69c-36 0 -67 30 -67 69zM786 1298h-553v61h553v-61zM557 1063c221 0 347 -128 347 -302c0 -168 -108 -259 -236 -289l255 -472h-95l-245 457h-323v-457h-82v1063h379zM260 526h283
c171 0 275 87 275 232c0 149 -106 236 -273 236h-285v-468z" />
    <glyph glyph-name="Rdblgrave.sc" horiz-adv-x="1038" 
d="M557 1063c221 0 347 -128 347 -302c0 -168 -108 -259 -236 -289l255 -472h-95l-245 457h-323v-457h-82v1063h379zM260 526h283c171 0 275 87 275 232c0 149 -106 236 -273 236h-285v-468zM373 1229l-247 294h85l230 -294h-68zM591 1229l-247 294h84l231 -294h-68z" />
    <glyph glyph-name="Rinvertedbreve.sc" horiz-adv-x="1038" 
d="M557 1063c221 0 347 -128 347 -302c0 -168 -108 -259 -236 -289l255 -472h-95l-245 457h-323v-457h-82v1063h379zM260 526h283c171 0 275 87 275 232c0 149 -106 236 -273 236h-285v-468zM241 1234c0 121 88 242 268 242s261 -124 261 -242h-67c0 104 -66 181 -194 181
s-201 -77 -201 -181h-67z" />
    <glyph glyph-name="Racute.sc" horiz-adv-x="1038" 
d="M538 1229h-72l230 294h90zM557 1063c221 0 347 -128 347 -302c0 -168 -108 -259 -236 -289l255 -472h-95l-245 457h-323v-457h-82v1063h379zM260 526h283c171 0 275 87 275 232c0 149 -106 236 -273 236h-285v-468z" />
    <glyph glyph-name="Rdotbelow.sc" horiz-adv-x="1038" 
d="M442 -287c0 40 31 70 67 70c40 0 71 -30 71 -70c0 -39 -31 -69 -71 -69c-36 0 -67 30 -67 69zM557 1063c221 0 347 -128 347 -302c0 -168 -108 -259 -236 -289l255 -472h-95l-245 457h-323v-457h-82v1063h379zM260 526h283c171 0 275 87 275 232c0 149 -106 236 -273 236
h-285v-468z" />
    <glyph glyph-name="Rdotaccent.sc" horiz-adv-x="1038" 
d="M433 1355c0 43 34 77 75 77c42 0 77 -34 77 -77c0 -42 -35 -75 -77 -75c-41 0 -75 33 -75 75zM557 1063c221 0 347 -128 347 -302c0 -168 -108 -259 -236 -289l255 -472h-95l-245 457h-323v-457h-82v1063h379zM260 526h283c171 0 275 87 275 232c0 149 -106 236 -273 236
h-285v-468z" />
    <glyph glyph-name="Rcommaaccent.sc" horiz-adv-x="1038" 
d="M447 -481h-60l85 335h89zM557 1063c221 0 347 -128 347 -302c0 -168 -108 -259 -236 -289l255 -472h-95l-245 457h-323v-457h-82v1063h379zM260 526h283c171 0 275 87 275 232c0 149 -106 236 -273 236h-285v-468z" />
    <glyph glyph-name="S.sc" horiz-adv-x="999" 
d="M101 273h85c4 -97 88 -226 315 -226c183 0 304 92 304 223c0 125 -87 177 -252 218l-154 38c-154 38 -261 117 -261 272c0 178 152 290 368 290c220 0 361 -115 364 -274h-83c-5 97 -87 204 -282 204c-174 0 -282 -85 -282 -217c0 -112 73 -168 211 -202l149 -39
c193 -48 307 -114 307 -285c0 -187 -166 -299 -397 -299c-291 0 -390 173 -392 297z" />
    <glyph glyph-name="Scaron.sc" horiz-adv-x="999" 
d="M237 1556h74l186 -266h4l186 266h74l-232 -327h-60zM101 273h85c4 -97 88 -226 315 -226c183 0 304 92 304 223c0 125 -87 177 -252 218l-154 38c-154 38 -261 117 -261 272c0 178 152 290 368 290c220 0 361 -115 364 -274h-83c-5 97 -87 204 -282 204
c-174 0 -282 -85 -282 -217c0 -112 73 -168 211 -202l149 -39c193 -48 307 -114 307 -285c0 -187 -166 -299 -397 -299c-291 0 -390 173 -392 297z" />
    <glyph glyph-name="Scedilla.sc" horiz-adv-x="999" 
d="M487 -459c-53 -1 -102 8 -124 16v62c26 -9 74 -15 121 -15c72 0 150 30 150 104c0 69 -55 99 -152 99h-51v48l51 121c-283 4 -379 175 -381 297h85c4 -97 88 -226 315 -226c183 0 304 92 304 223c0 125 -87 177 -252 218l-154 38c-154 38 -261 117 -261 272
c0 178 152 290 368 290c220 0 361 -115 364 -274h-83c-5 97 -87 204 -282 204c-174 0 -282 -85 -282 -217c0 -112 73 -168 211 -202l149 -39c193 -48 307 -114 307 -285s-139 -280 -339 -297l-46 -112c106 0 207 -43 207 -154c0 -119 -115 -170 -225 -171z" />
    <glyph glyph-name="Sdotaccent.sc" horiz-adv-x="999" 
d="M423 1355c0 43 34 77 75 77c42 0 77 -34 77 -77c0 -42 -35 -75 -77 -75c-41 0 -75 33 -75 75zM101 273h85c4 -97 88 -226 315 -226c183 0 304 92 304 223c0 125 -87 177 -252 218l-154 38c-154 38 -261 117 -261 272c0 178 152 290 368 290c220 0 361 -115 364 -274h-83
c-5 97 -87 204 -282 204c-174 0 -282 -85 -282 -217c0 -112 73 -168 211 -202l149 -39c193 -48 307 -114 307 -285c0 -187 -166 -299 -397 -299c-291 0 -390 173 -392 297z" />
    <glyph glyph-name="Sdotbelow.sc" horiz-adv-x="999" 
d="M428 -287c0 40 31 70 67 70c40 0 71 -30 71 -70c0 -39 -31 -69 -71 -69c-36 0 -67 30 -67 69zM101 273h85c4 -97 88 -226 315 -226c183 0 304 92 304 223c0 125 -87 177 -252 218l-154 38c-154 38 -261 117 -261 272c0 178 152 290 368 290c220 0 361 -115 364 -274h-83
c-5 97 -87 204 -282 204c-174 0 -282 -85 -282 -217c0 -112 73 -168 211 -202l149 -39c193 -48 307 -114 307 -285c0 -187 -166 -299 -397 -299c-291 0 -390 173 -392 297z" />
    <glyph glyph-name="Scommaaccent.sc" horiz-adv-x="999" 
d="M433 -481h-60l85 335h89zM101 273h85c4 -97 88 -226 315 -226c183 0 304 92 304 223c0 125 -87 177 -252 218l-154 38c-154 38 -261 117 -261 272c0 178 152 290 368 290c220 0 361 -115 364 -274h-83c-5 97 -87 204 -282 204c-174 0 -282 -85 -282 -217
c0 -112 73 -168 211 -202l149 -39c193 -48 307 -114 307 -285c0 -187 -166 -299 -397 -299c-291 0 -390 173 -392 297z" />
    <glyph glyph-name="Sdotbelowdotaccent.sc" horiz-adv-x="999" 
d="M428 -287c0 40 31 70 67 70c40 0 71 -30 71 -70c0 -39 -31 -69 -71 -69c-36 0 -67 30 -67 69zM423 1355c0 43 34 77 75 77c42 0 77 -34 77 -77c0 -42 -35 -75 -77 -75c-41 0 -75 33 -75 75zM101 273h85c4 -97 88 -226 315 -226c183 0 304 92 304 223
c0 125 -87 177 -252 218l-154 38c-154 38 -261 117 -261 272c0 178 152 290 368 290c220 0 361 -115 364 -274h-83c-5 97 -87 204 -282 204c-174 0 -282 -85 -282 -217c0 -112 73 -168 211 -202l149 -39c193 -48 307 -114 307 -285c0 -187 -166 -299 -397 -299
c-291 0 -390 173 -392 297z" />
    <glyph glyph-name="Scarondotaccent.sc" horiz-adv-x="999" 
d="M237 1556h74l186 -266h4l186 266h74l-232 -327h-60zM423 1704c0 43 34 77 75 77c42 0 77 -34 77 -77c0 -42 -35 -75 -77 -75c-41 0 -75 33 -75 75zM101 273h85c4 -97 88 -226 315 -226c183 0 304 92 304 223c0 125 -87 177 -252 218l-154 38c-154 38 -261 117 -261 272
c0 178 152 290 368 290c220 0 361 -115 364 -274h-83c-5 97 -87 204 -282 204c-174 0 -282 -85 -282 -217c0 -112 73 -168 211 -202l149 -39c193 -48 307 -114 307 -285c0 -187 -166 -299 -397 -299c-291 0 -390 173 -392 297z" />
    <glyph glyph-name="Scircumflex.sc" horiz-adv-x="999" 
d="M237 1229l233 327h59l233 -327h-75l-186 266h-3l-187 -266h-74zM101 273h85c4 -97 88 -226 315 -226c183 0 304 92 304 223c0 125 -87 177 -252 218l-154 38c-154 38 -261 117 -261 272c0 178 152 290 368 290c220 0 361 -115 364 -274h-83c-5 97 -87 204 -282 204
c-174 0 -282 -85 -282 -217c0 -112 73 -168 211 -202l149 -39c193 -48 307 -114 307 -285c0 -187 -166 -299 -397 -299c-291 0 -390 173 -392 297z" />
    <glyph glyph-name="Sacutedotaccent.sc" horiz-adv-x="999" 
d="M546 1229h-72l230 294h90zM241 1441c0 43 34 77 75 77c42 0 77 -34 77 -77c0 -42 -35 -75 -77 -75c-41 0 -75 33 -75 75zM101 273h85c4 -97 88 -226 315 -226c183 0 304 92 304 223c0 125 -87 177 -252 218l-154 38c-154 38 -261 117 -261 272c0 178 152 290 368 290
c220 0 361 -115 364 -274h-83c-5 97 -87 204 -282 204c-174 0 -282 -85 -282 -217c0 -112 73 -168 211 -202l149 -39c193 -48 307 -114 307 -285c0 -187 -166 -299 -397 -299c-291 0 -390 173 -392 297z" />
    <glyph glyph-name="Sacute.sc" horiz-adv-x="999" 
d="M528 1229h-72l230 294h90zM101 273h85c4 -97 88 -226 315 -226c183 0 304 92 304 223c0 125 -87 177 -252 218l-154 38c-154 38 -261 117 -261 272c0 178 152 290 368 290c220 0 361 -115 364 -274h-83c-5 97 -87 204 -282 204c-174 0 -282 -85 -282 -217
c0 -112 73 -168 211 -202l149 -39c193 -48 307 -114 307 -285c0 -187 -166 -299 -397 -299c-291 0 -390 173 -392 297z" />
    <glyph glyph-name="T.sc" horiz-adv-x="903" 
d="M494 0h-83v993h-375v70h832v-70h-374v-993z" />
    <glyph glyph-name="Tcircumflexbelow.sc" horiz-adv-x="903" 
d="M494 0h-83v993h-375v70h832v-70h-374v-993zM191 -413l230 280h62l230 -280h-73l-186 229h-4l-186 -229h-73z" />
    <glyph glyph-name="Tdotbelow.sc" horiz-adv-x="903" 
d="M494 0h-83v993h-375v70h832v-70h-374v-993zM384 -287c0 40 31 70 67 70c40 0 71 -30 71 -70c0 -39 -31 -69 -71 -69c-36 0 -67 30 -67 69z" />
    <glyph glyph-name="Tcommaaccent.sc" horiz-adv-x="903" 
d="M494 0h-83v993h-375v70h832v-70h-374v-993zM390 -481h-60l85 335h89z" />
    <glyph glyph-name="Tdotaccent.sc" horiz-adv-x="903" 
d="M494 0h-83v993h-375v70h832v-70h-374v-993zM376 1355c0 43 34 77 75 77c42 0 77 -34 77 -77c0 -42 -35 -75 -77 -75c-41 0 -75 33 -75 75z" />
    <glyph glyph-name="Tcedilla.sc" horiz-adv-x="903" 
d="M418 -464c-54 -1 -103 8 -125 15v63c26 -9 75 -15 121 -15c72 0 151 30 151 104c0 69 -56 99 -153 99h-50v48l64 150h-16v993h-375v70h832v-70h-374v-993l-58 -139c106 0 207 -43 207 -154c0 -119 -114 -170 -224 -171z" />
    <glyph glyph-name="Tlinebelow.sc" horiz-adv-x="903" 
d="M494 0h-83v993h-375v70h832v-70h-374v-993zM730 -303h-553v61h553v-61z" />
    <glyph glyph-name="Tcaron.sc" horiz-adv-x="903" 
d="M494 0h-83v993h-375v70h832v-70h-374v-993zM191 1556h74l186 -266h4l186 266h74l-232 -327h-60z" />
    <glyph glyph-name="Tbar.sc" horiz-adv-x="903" 
d="M723 533h-229v-533h-83v533h-231v63h231v397h-375v70h832v-70h-374v-397h229v-63z" />
    <glyph glyph-name="U.sc" horiz-adv-x="1139" 
d="M242 1063v-695c0 -195 119 -320 327 -320c210 0 327 125 327 320v695h83v-696c0 -236 -153 -391 -410 -391c-255 0 -409 156 -409 392v695h82z" />
    <glyph glyph-name="Ugrave.sc" horiz-adv-x="1139" 
d="M613 1229h-72l-248 294h91zM242 1063v-695c0 -195 119 -320 327 -320c210 0 327 125 327 320v695h83v-696c0 -236 -153 -391 -410 -391c-255 0 -409 156 -409 392v695h82z" />
    <glyph glyph-name="Udblgrave.sc" horiz-adv-x="1139" 
d="M434 1229l-247 294h85l230 -294h-68zM652 1229l-247 294h84l231 -294h-68zM242 1063v-695c0 -195 119 -320 327 -320c210 0 327 125 327 320v695h83v-696c0 -236 -153 -391 -410 -391c-255 0 -409 156 -409 392v695h82z" />
    <glyph glyph-name="Uacute.sc" horiz-adv-x="1139" 
d="M599 1229h-72l230 294h90zM242 1063v-695c0 -195 119 -320 327 -320c210 0 327 125 327 320v695h83v-696c0 -236 -153 -391 -410 -391c-255 0 -409 156 -409 392v695h82z" />
    <glyph glyph-name="Uhungarumlaut.sc" horiz-adv-x="1139" 
d="M482 1231h-68l231 294h85zM700 1231h-68l231 294h84zM242 1063v-695c0 -195 119 -320 327 -320c210 0 327 125 327 320v695h83v-696c0 -236 -153 -391 -410 -391c-255 0 -409 156 -409 392v695h82z" />
    <glyph glyph-name="Ucircumflex.sc" horiz-adv-x="1139" 
d="M308 1229l233 327h59l233 -327h-75l-186 266h-3l-187 -266h-74zM242 1063v-695c0 -195 119 -320 327 -320c210 0 327 125 327 320v695h83v-696c0 -236 -153 -391 -410 -391c-255 0 -409 156 -409 392v695h82z" />
    <glyph glyph-name="Ucaron.sc" horiz-adv-x="1139" 
d="M308 1556h74l186 -266h4l186 266h74l-232 -327h-60zM242 1063v-695c0 -195 119 -320 327 -320c210 0 327 125 327 320v695h83v-696c0 -236 -153 -391 -410 -391c-255 0 -409 156 -409 392v695h82z" />
    <glyph glyph-name="Ucircumflexbelow.sc" horiz-adv-x="1139" 
d="M242 1063v-695c0 -195 119 -320 327 -320c210 0 327 125 327 320v695h83v-696c0 -236 -153 -391 -410 -391c-255 0 -409 156 -409 392v695h82zM308 -413l230 280h62l230 -280h-73l-186 229h-4l-186 -229h-73z" />
    <glyph glyph-name="Udieresis.sc" horiz-adv-x="1139" 
d="M420 1263c-36 0 -64 29 -64 65s28 65 64 65s64 -29 64 -65s-28 -65 -64 -65zM719 1263c-36 0 -64 29 -64 65s28 65 64 65s64 -29 64 -65s-28 -65 -64 -65zM242 1063v-695c0 -195 119 -320 327 -320c210 0 327 125 327 320v695h83v-696c0 -236 -153 -391 -410 -391
c-255 0 -409 156 -409 392v695h82z" />
    <glyph glyph-name="Udieresisgrave.sc" horiz-adv-x="1139" 
d="M613 1512h-72l-248 294h91zM420 1263c-36 0 -64 29 -64 65s28 65 64 65s64 -29 64 -65s-28 -65 -64 -65zM719 1263c-36 0 -64 29 -64 65s28 65 64 65s64 -29 64 -65s-28 -65 -64 -65zM242 1063v-695c0 -195 119 -320 327 -320c210 0 327 125 327 320v695h83v-696
c0 -236 -153 -391 -410 -391c-255 0 -409 156 -409 392v695h82z" />
    <glyph glyph-name="Udieresisacute.sc" horiz-adv-x="1139" 
d="M599 1512h-72l230 294h90zM420 1263c-36 0 -64 29 -64 65s28 65 64 65s64 -29 64 -65s-28 -65 -64 -65zM719 1263c-36 0 -64 29 -64 65s28 65 64 65s64 -29 64 -65s-28 -65 -64 -65zM242 1063v-695c0 -195 119 -320 327 -320c210 0 327 125 327 320v695h83v-696
c0 -236 -153 -391 -410 -391c-255 0 -409 156 -409 392v695h82z" />
    <glyph glyph-name="Udieresismacron.sc" horiz-adv-x="1139" 
d="M420 1263c-36 0 -64 29 -64 65s28 65 64 65s64 -29 64 -65s-28 -65 -64 -65zM719 1263c-36 0 -64 29 -64 65s28 65 64 65s64 -29 64 -65s-28 -65 -64 -65zM847 1579h-553v61h553v-61zM242 1063v-695c0 -195 119 -320 327 -320c210 0 327 125 327 320v695h83v-696
c0 -236 -153 -391 -410 -391c-255 0 -409 156 -409 392v695h82z" />
    <glyph glyph-name="Udieresiscaron.sc" horiz-adv-x="1139" 
d="M308 1833h74l186 -266h4l186 266h74l-232 -327h-60zM420 1263c-36 0 -64 29 -64 65s28 65 64 65s64 -29 64 -65s-28 -65 -64 -65zM719 1263c-36 0 -64 29 -64 65s28 65 64 65s64 -29 64 -65s-28 -65 -64 -65zM242 1063v-695c0 -195 119 -320 327 -320
c210 0 327 125 327 320v695h83v-696c0 -236 -153 -391 -410 -391c-255 0 -409 156 -409 392v695h82z" />
    <glyph glyph-name="Udieresisbelow.sc" horiz-adv-x="1139" 
d="M242 1063v-695c0 -195 119 -320 327 -320c210 0 327 125 327 320v695h83v-696c0 -236 -153 -391 -410 -391c-255 0 -409 156 -409 392v695h82zM420 -359c-36 0 -64 29 -64 65s28 65 64 65s64 -29 64 -65s-28 -65 -64 -65zM719 -359c-36 0 -64 29 -64 65s28 65 64 65
s64 -29 64 -65s-28 -65 -64 -65z" />
    <glyph glyph-name="Utildebelow.sc" horiz-adv-x="1139" 
d="M696 -382c-140 0 -166 157 -262 157c-54 0 -98 -51 -98 -140h-62c0 125 64 198 160 198c138 0 156 -156 261 -156c64 0 99 59 100 145h62c0 -113 -56 -204 -161 -204zM242 1063v-695c0 -195 119 -320 327 -320c210 0 327 125 327 320v695h83v-696
c0 -236 -153 -391 -410 -391c-255 0 -409 156 -409 392v695h82z" />
    <glyph glyph-name="Uhookabove.sc" horiz-adv-x="1139" 
d="M451 1441v56c14 11 54 25 94 25c91 0 156 -56 156 -139c0 -69 -50 -111 -100 -138l-34 45c45 25 71 52 71 93c0 45 -38 84 -101 84c-32 0 -63 -12 -86 -26zM242 1063v-695c0 -195 119 -320 327 -320c210 0 327 125 327 320v695h83v-696c0 -236 -153 -391 -410 -391
c-255 0 -409 156 -409 392v695h82z" />
    <glyph glyph-name="Ubreve.sc" horiz-adv-x="1139" 
d="M302 1469h67c0 -104 73 -180 201 -180s201 76 201 180h67c0 -117 -88 -242 -268 -242s-268 122 -268 242zM242 1063v-695c0 -195 119 -320 327 -320c210 0 327 125 327 320v695h83v-696c0 -236 -153 -391 -410 -391c-255 0 -409 156 -409 392v695h82z" />
    <glyph glyph-name="Uinvertedbreve.sc" horiz-adv-x="1139" 
d="M242 1063v-695c0 -195 119 -320 327 -320c210 0 327 125 327 320v695h83v-696c0 -236 -153 -391 -410 -391c-255 0 -409 156 -409 392v695h82zM302 1234c0 121 88 242 268 242s261 -124 261 -242h-67c0 104 -66 181 -194 181s-201 -77 -201 -181h-67z" />
    <glyph glyph-name="Utildeacute.sc" horiz-adv-x="1139" 
d="M598 1512h-72l230 294h90zM698 1226c-141 0 -167 158 -265 158c-56 0 -99 -53 -100 -142h-63c0 126 66 202 163 202c140 0 158 -158 265 -158c65 0 100 61 101 147h64c0 -115 -58 -207 -165 -207zM242 1063v-695c0 -195 119 -320 327 -320c210 0 327 125 327 320v695h83
v-696c0 -236 -153 -391 -410 -391c-255 0 -409 156 -409 392v695h82z" />
    <glyph glyph-name="Udotbelow.sc" horiz-adv-x="1139" 
d="M502 -287c0 40 31 70 67 70c40 0 71 -30 71 -70c0 -39 -31 -69 -71 -69c-36 0 -67 30 -67 69zM242 1063v-695c0 -195 119 -320 327 -320c210 0 327 125 327 320v695h83v-696c0 -236 -153 -391 -410 -391c-255 0 -409 156 -409 392v695h82z" />
    <glyph glyph-name="Utilde.sc" horiz-adv-x="1139" 
d="M698 1226c-141 0 -167 158 -265 158c-56 0 -99 -53 -100 -142h-63c0 126 66 202 163 202c140 0 158 -158 265 -158c65 0 100 61 101 147h64c0 -115 -58 -207 -165 -207zM242 1063v-695c0 -195 119 -320 327 -320c210 0 327 125 327 320v695h83v-696
c0 -236 -153 -391 -410 -391c-255 0 -409 156 -409 392v695h82z" />
    <glyph glyph-name="Umacron.sc" horiz-adv-x="1139" 
d="M847 1298h-553v61h553v-61zM242 1063v-695c0 -195 119 -320 327 -320c210 0 327 125 327 320v695h83v-696c0 -236 -153 -391 -410 -391c-255 0 -409 156 -409 392v695h82z" />
    <glyph glyph-name="Umacrondieresis.sc" horiz-adv-x="1139" 
d="M847 1298h-553v61h553v-61zM420 1544c-36 0 -64 29 -64 65s28 65 64 65s64 -29 64 -65s-28 -65 -64 -65zM719 1544c-36 0 -64 29 -64 65s28 65 64 65s64 -29 64 -65s-28 -65 -64 -65zM242 1063v-695c0 -195 119 -320 327 -320c210 0 327 125 327 320v695h83v-696
c0 -236 -153 -391 -410 -391c-255 0 -409 156 -409 392v695h82z" />
    <glyph glyph-name="Uring.sc" horiz-adv-x="1139" 
d="M242 1063v-695c0 -195 119 -320 327 -320c210 0 327 125 327 320v695h83v-696c0 -236 -153 -391 -410 -391c-255 0 -409 156 -409 392v695h82zM570 1227c-97 0 -174 76 -174 173c0 95 77 169 174 169c94 0 174 -74 174 -169c0 -97 -80 -173 -174 -173zM452 1398
c0 -64 54 -118 118 -118c65 0 117 54 117 118c0 66 -52 118 -117 118c-64 0 -118 -52 -118 -118z" />
    <glyph glyph-name="Uogonek.sc" horiz-adv-x="1139" 
d="M739 -359c-97 0 -176 52 -176 160c0 76 39 133 86 181c-25 -4 -51 -6 -80 -6c-255 0 -409 156 -409 392v695h83v-695c0 -195 118 -320 326 -320c210 0 327 125 327 320v695h83v-696c0 -165 -67 -269 -188 -340c-74 -47 -152 -118 -152 -208c0 -72 43 -109 112 -109
c23 0 57 4 80 12v-64c-12 -6 -47 -17 -92 -17z" />
    <glyph glyph-name="Uhorn.sc" horiz-adv-x="1172" 
d="M569 -24c-255 0 -409 156 -409 392v695h82v-695c0 -194 119 -320 327 -320c210 0 327 125 327 320v695h83c84 0 128 46 128 118v81h74v-81c0 -114 -76 -181 -180 -181h-22v-633c0 -236 -153 -391 -410 -391z" />
    <glyph glyph-name="Uhorngrave.sc" horiz-adv-x="1172" 
d="M569 -24c-255 0 -409 156 -409 392v695h82v-695c0 -194 119 -320 327 -320c210 0 327 125 327 320v695h83c84 0 128 46 128 118v81h74v-81c0 -114 -76 -181 -180 -181h-22v-633c0 -236 -153 -391 -410 -391zM612 1229h-72l-248 294h91z" />
    <glyph glyph-name="Uhornacute.sc" horiz-adv-x="1172" 
d="M569 -24c-255 0 -409 156 -409 392v695h82v-695c0 -194 119 -320 327 -320c210 0 327 125 327 320v695h83c84 0 128 46 128 118v81h74v-81c0 -114 -76 -181 -180 -181h-22v-633c0 -236 -153 -391 -410 -391zM598 1229h-72l230 294h90z" />
    <glyph glyph-name="Uhorndotbelow.sc" horiz-adv-x="1172" 
d="M502 -287c0 40 31 70 67 70c40 0 71 -30 71 -70c0 -39 -31 -69 -71 -69c-36 0 -67 30 -67 69zM569 -24c-255 0 -409 156 -409 392v695h82v-695c0 -194 119 -320 327 -320c210 0 327 125 327 320v695h83c84 0 128 46 128 118v81h74v-81c0 -114 -76 -181 -180 -181h-22
v-633c0 -236 -153 -391 -410 -391z" />
    <glyph glyph-name="Uhornhookabove.sc" horiz-adv-x="1172" 
d="M569 -24c-255 0 -409 156 -409 392v695h82v-695c0 -194 119 -320 327 -320c210 0 327 125 327 320v695h83c84 0 128 46 128 118v81h74v-81c0 -114 -76 -181 -180 -181h-22v-633c0 -236 -153 -391 -410 -391zM450 1441v56c14 11 54 25 94 25c91 0 156 -56 156 -139
c0 -69 -50 -111 -100 -138l-34 45c45 25 71 52 71 93c0 45 -38 84 -101 84c-32 0 -63 -12 -86 -26z" />
    <glyph glyph-name="Uhorntilde.sc" horiz-adv-x="1172" 
d="M569 -24c-255 0 -409 156 -409 392v695h82v-695c0 -194 119 -320 327 -320c210 0 327 125 327 320v695h83c84 0 128 46 128 118v81h74v-81c0 -114 -76 -181 -180 -181h-22v-633c0 -236 -153 -391 -410 -391zM697 1226c-141 0 -167 158 -265 158c-56 0 -99 -53 -100 -142
h-63c0 126 66 202 163 202c140 0 158 -158 265 -158c65 0 100 61 101 147h64c0 -115 -58 -207 -165 -207z" />
    <glyph glyph-name="V.sc" horiz-adv-x="1019" 
d="M552 0h-91l-409 1063h92l362 -970h5l364 970h92z" />
    <glyph glyph-name="Vtilde.sc" horiz-adv-x="1019" 
d="M552 0h-91l-409 1063h92l362 -970h5l364 970h92zM637 1226c-141 0 -167 158 -265 158c-56 0 -99 -53 -100 -142h-63c0 126 66 202 163 202c140 0 158 -158 265 -158c65 0 100 61 101 147h64c0 -115 -58 -207 -165 -207z" />
    <glyph glyph-name="Vdotbelow.sc" horiz-adv-x="1019" 
d="M442 -287c0 40 31 70 67 70c40 0 71 -30 71 -70c0 -39 -31 -69 -71 -69c-36 0 -67 30 -67 69zM552 0h-91l-409 1063h92l362 -970h5l364 970h92z" />
    <glyph glyph-name="W.sc" horiz-adv-x="1441" 
d="M436 0h-85l-302 1063h94l251 -948h4l279 948h87l279 -948h5l250 948h93l-301 -1063h-84l-283 938h-6z" />
    <glyph glyph-name="Wgrave.sc" horiz-adv-x="1441" 
d="M436 0h-85l-302 1063h94l251 -948h4l279 948h87l279 -948h5l250 948h93l-301 -1063h-84l-283 938h-6zM764 1229h-72l-248 294h91z" />
    <glyph glyph-name="Wacute.sc" horiz-adv-x="1441" 
d="M436 0h-85l-302 1063h94l251 -948h4l279 948h87l279 -948h5l250 948h93l-301 -1063h-84l-283 938h-6zM750 1229h-72l230 294h90z" />
    <glyph glyph-name="Wdotaccent.sc" horiz-adv-x="1441" 
d="M436 0h-85l-302 1063h94l251 -948h4l279 948h87l279 -948h5l250 948h93l-301 -1063h-84l-283 938h-6zM645 1355c0 43 34 77 75 77c42 0 77 -34 77 -77c0 -42 -35 -75 -77 -75c-41 0 -75 33 -75 75z" />
    <glyph glyph-name="Wdotbelow.sc" horiz-adv-x="1441" 
d="M436 0h-85l-302 1063h94l251 -948h4l279 948h87l279 -948h5l250 948h93l-301 -1063h-84l-283 938h-6zM653 -287c0 40 31 70 67 70c40 0 71 -30 71 -70c0 -39 -31 -69 -71 -69c-36 0 -67 30 -67 69z" />
    <glyph glyph-name="Wdieresis.sc" horiz-adv-x="1441" 
d="M436 0h-85l-302 1063h94l251 -948h4l279 948h87l279 -948h5l250 948h93l-301 -1063h-84l-283 938h-6zM571 1263c-36 0 -64 29 -64 65s28 65 64 65s64 -29 64 -65s-28 -65 -64 -65zM870 1263c-36 0 -64 29 -64 65s28 65 64 65s64 -29 64 -65s-28 -65 -64 -65z" />
    <glyph glyph-name="Wcircumflex.sc" horiz-adv-x="1441" 
d="M436 0h-85l-302 1063h94l251 -948h4l279 948h87l279 -948h5l250 948h93l-301 -1063h-84l-283 938h-6zM459 1229l233 327h59l233 -327h-75l-186 266h-3l-187 -266h-74z" />
    <glyph glyph-name="X.sc" horiz-adv-x="983" 
d="M928 1063l-387 -534l383 -529h-100l-333 467h-5l-335 -467h-95l384 532l-383 531h99l336 -468h5l335 468h96z" />
    <glyph glyph-name="Xdotaccent.sc" horiz-adv-x="983" 
d="M415 1355c0 43 34 77 75 77c42 0 77 -34 77 -77c0 -42 -35 -75 -77 -75c-41 0 -75 33 -75 75zM928 1063l-387 -534l383 -529h-100l-333 467h-5l-335 -467h-95l384 532l-383 531h99l336 -468h5l335 468h96z" />
    <glyph glyph-name="Xdieresis.sc" horiz-adv-x="983" 
d="M928 1063l-387 -534l383 -529h-100l-333 467h-5l-335 -467h-95l384 532l-383 531h99l336 -468h5l335 468h96zM342 1263c-36 0 -64 29 -64 65s28 65 64 65s64 -29 64 -65s-28 -65 -64 -65zM641 1263c-36 0 -64 29 -64 65s28 65 64 65s64 -29 64 -65s-28 -65 -64 -65z" />
    <glyph glyph-name="Y.sc" horiz-adv-x="934" 
d="M508 0h-82v470l-389 593h96l331 -513h6l333 513h94l-389 -592v-471z" />
    <glyph glyph-name="Ygrave.sc" horiz-adv-x="934" 
d="M510 1229h-72l-248 294h91zM508 0h-82v470l-389 593h96l331 -513h6l333 513h94l-389 -592v-471z" />
    <glyph glyph-name="Yacute.sc" horiz-adv-x="934" 
d="M496 1229h-72l230 294h90zM508 0h-82v470l-389 593h96l331 -513h6l333 513h94l-389 -592v-471z" />
    <glyph glyph-name="Ydotaccent.sc" horiz-adv-x="934" 
d="M391 1355c0 43 34 77 75 77c42 0 77 -34 77 -77c0 -42 -35 -75 -77 -75c-41 0 -75 33 -75 75zM508 0h-82v470l-389 593h96l331 -513h6l333 513h94l-389 -592v-471z" />
    <glyph glyph-name="Ydotbelow.sc" horiz-adv-x="934" 
d="M400 -287c0 40 31 70 67 70c40 0 71 -30 71 -70c0 -39 -31 -69 -71 -69c-36 0 -67 30 -67 69zM508 0h-82v470l-389 593h96l331 -513h6l333 513h94l-389 -592v-471z" />
    <glyph glyph-name="Ydieresis.sc" horiz-adv-x="934" 
d="M508 0h-82v470l-389 593h96l331 -513h6l333 513h94l-389 -592v-471zM317 1263c-36 0 -64 29 -64 65s28 65 64 65s64 -29 64 -65s-28 -65 -64 -65zM616 1263c-36 0 -64 29 -64 65s28 65 64 65s64 -29 64 -65s-28 -65 -64 -65z" />
    <glyph glyph-name="Ytilde.sc" horiz-adv-x="934" 
d="M508 0h-82v470l-389 593h96l331 -513h6l333 513h94l-389 -592v-471zM595 1226c-141 0 -167 158 -265 158c-56 0 -99 -53 -100 -142h-63c0 126 66 202 163 202c140 0 158 -158 265 -158c65 0 100 61 101 147h64c0 -115 -58 -207 -165 -207z" />
    <glyph glyph-name="Ycircumflex.sc" horiz-adv-x="934" 
d="M205 1229l233 327h59l233 -327h-75l-186 266h-3l-187 -266h-74zM508 0h-82v470l-389 593h96l331 -513h6l333 513h94l-389 -592v-471z" />
    <glyph glyph-name="Ymacron.sc" horiz-adv-x="934" 
d="M508 0h-82v470l-389 593h96l331 -513h6l333 513h94l-389 -592v-471zM744 1298h-553v61h553v-61z" />
    <glyph glyph-name="Yhookabove.sc" horiz-adv-x="934" 
d="M508 0h-82v470l-389 593h96l331 -513h6l333 513h94l-389 -592v-471zM348 1441v56c14 11 54 25 94 25c91 0 156 -56 156 -139c0 -69 -50 -111 -100 -138l-34 45c45 25 71 52 71 93c0 45 -38 84 -101 84c-32 0 -63 -12 -86 -26z" />
    <glyph glyph-name="Z.sc" horiz-adv-x="1004" 
d="M101 0v60l691 928v6h-668v69h770v-59l-690 -930v-5h695v-69h-798z" />
    <glyph glyph-name="Zacute.sc" horiz-adv-x="1004" 
d="M531 1229h-72l230 294h90zM101 0v60l691 928v6h-668v69h770v-59l-690 -930v-5h695v-69h-798z" />
    <glyph glyph-name="Zcaron.sc" horiz-adv-x="1004" 
d="M240 1556h74l186 -266h4l186 266h74l-232 -327h-60zM101 0v60l691 928v6h-668v69h770v-59l-690 -930v-5h695v-69h-798z" />
    <glyph glyph-name="Zcircumflex.sc" horiz-adv-x="1004" 
d="M240 1229l233 327h59l233 -327h-75l-186 266h-3l-187 -266h-74zM101 0v60l691 928v6h-668v69h770v-59l-690 -930v-5h695v-69h-798z" />
    <glyph glyph-name="Zlinebelow.sc" horiz-adv-x="1004" 
d="M779 -303h-553v61h553v-61zM101 0v60l691 928v6h-668v69h770v-59l-690 -930v-5h695v-69h-798z" />
    <glyph glyph-name="Zdotbelow.sc" horiz-adv-x="1004" 
d="M435 -287c0 40 31 70 67 70c40 0 71 -30 71 -70c0 -39 -31 -69 -71 -69c-36 0 -67 30 -67 69zM101 0v60l691 928v6h-668v69h770v-59l-690 -930v-5h695v-69h-798z" />
    <glyph glyph-name="Zdotaccent.sc" horiz-adv-x="1004" 
d="M426 1355c0 43 34 77 75 77c42 0 77 -34 77 -77c0 -42 -35 -75 -77 -75c-41 0 -75 33 -75 75zM101 0v60l691 928v6h-668v69h770v-59l-690 -930v-5h695v-69h-798z" />
    <glyph glyph-name="AE.sc" horiz-adv-x="1567" 
d="M747 992l-348 -556h405v556h-57zM804 371h-442l-233 -371h-91l662 1063h755v-71h-568v-413h538v-70h-538v-438h568v-71h-651v371z" />
    <glyph glyph-name="AEmacron.sc" horiz-adv-x="1567" 
d="M747 992l-348 -556h405v556h-57zM804 371h-442l-233 -371h-91l662 1063h755v-71h-568v-413h538v-70h-538v-438h568v-71h-651v371zM1406 1298h-553v61h553v-61z" />
    <glyph glyph-name="AEacute.sc" horiz-adv-x="1567" 
d="M1158 1229h-72l230 294h90zM747 992l-348 -556h405v556h-57zM804 371h-442l-233 -371h-91l662 1063h755v-71h-568v-413h538v-70h-538v-438h568v-71h-651v371z" />
    <glyph glyph-name="OE.sc" horiz-adv-x="1687" 
d="M214 626v-193c0 -238 132 -386 350 -386c211 0 349 145 349 358v255c0 207 -133 357 -349 357s-350 -153 -350 -391zM560 -24c-273 0 -428 179 -428 461v185c0 284 157 465 430 465c163 0 292 -72 347 -182h6v158h649v-71h-568v-413h538v-70h-538v-438h568v-71h-649v164
h-6c-64 -118 -184 -188 -349 -188z" />
    <glyph glyph-name="Eth.sc" horiz-adv-x="1175" 
d="M544 0h-315v510h-133v69h133v484h315c361 0 506 -214 506 -531c0 -315 -138 -532 -506 -532zM312 71h230c296 0 423 174 423 461c0 278 -125 461 -423 461h-230v-414h291v-69h-291v-439z" />
    <glyph glyph-name="Thorn.sc" horiz-adv-x="991" 
d="M178 1063h82v-205h275c211 0 354 -98 354 -291s-143 -291 -354 -291h-275v-276h-82v1063zM260 788v-442h258c174 0 287 55 287 221c0 154 -103 221 -275 221h-270z" />
    <glyph glyph-name="zero.sc" horiz-adv-x="1006" 
d="M202 562v-62c0 -289 129 -455 301 -455s302 166 302 455v62c0 290 -130 456 -302 456s-301 -166 -301 -456zM118 502v58c0 330 157 527 385 527s386 -197 386 -527v-58c0 -329 -158 -526 -386 -526s-385 196 -385 526z" />
    <glyph glyph-name="one.sc" horiz-adv-x="734" 
d="M479 0h-83v974h-4c-19 -11 -252 -159 -277 -178v85c21 16 258 168 281 181h83v-1062z" />
    <glyph glyph-name="two.sc" horiz-adv-x="926" 
d="M203 792h-81v4c0 143 112 291 340 291c217 0 337 -129 337 -282c0 -133 -91 -231 -174 -320l-383 -410v-6h584v-69h-699v57l443 477c69 74 144 156 144 272c0 111 -89 212 -253 212c-167 0 -258 -109 -258 -222v-4z" />
    <glyph glyph-name="three.sc" horiz-adv-x="941" 
d="M330 514v69h104c170 0 269 100 268 224c0 119 -96 211 -255 211c-165 0 -251 -99 -253 -184h-81c1 115 107 253 334 253c211 0 338 -117 340 -272c2 -157 -129 -247 -231 -259v-5c126 -10 272 -94 274 -268c1 -181 -152 -308 -378 -308c-222 0 -355 121 -357 263h80
c3 -106 116 -193 281 -193c178 -1 290 101 289 237c-1 142 -124 232 -299 232h-116z" />
    <glyph glyph-name="four.sc" horiz-adv-x="954" 
d="M586 1063h126v-742h162v-69h-162v-252h-78v252h-553v70c50 85 448 657 505 741zM169 321h465v674h-5c-48 -66 -418 -599 -460 -669v-5z" />
    <glyph glyph-name="five.sc" horiz-adv-x="957" 
d="M120 237h82c11 -99 116 -192 282 -192c167 0 296 118 296 286c0 158 -121 274 -292 274c-146 0 -228 -85 -258 -139h-78l47 597h604v-69h-531l-38 -440h6c22 36 107 120 261 120c210 0 362 -137 362 -342s-154 -356 -384 -356c-224 0 -353 134 -359 261z" />
    <glyph glyph-name="six.sc" horiz-adv-x="978" 
d="M850 861h-83c-19 63 -99 149 -245 149c-247 0 -324 -266 -324 -528v-23h3c31 119 150 215 320 215c195 0 356 -135 356 -343c0 -214 -160 -355 -372 -355c-160 0 -282 89 -338 224c-31 69 -48 160 -48 278c0 320 106 601 404 601c202 0 313 -126 327 -218zM217 328
c0 -161 125 -283 288 -283s289 111 289 284c0 169 -127 277 -286 277c-167 0 -291 -119 -291 -278z" />
    <glyph glyph-name="seven.sc" horiz-adv-x="873" 
d="M93 1063h689v-73l-484 -990h-89l488 989v4h-604v70z" />
    <glyph glyph-name="eight.sc" horiz-adv-x="981" 
d="M491 43c174 0 302 100 302 247c0 138 -124 238 -302 238c-179 0 -303 -100 -303 -238c0 -147 128 -247 303 -247zM491 592c147 0 259 88 259 212c0 130 -110 215 -259 215c-150 0 -260 -85 -260 -215c0 -124 112 -212 260 -212zM489 -24c-223 0 -384 127 -384 308
c0 175 151 261 249 276v7c-83 18 -205 93 -205 243c0 162 140 276 342 276s342 -114 342 -276c0 -151 -125 -226 -205 -243v-7c97 -15 248 -102 248 -275c0 -182 -163 -309 -387 -309z" />
    <glyph glyph-name="nine.sc" horiz-adv-x="978" 
d="M133 204h82c13 -78 105 -154 239 -154c213 0 330 176 327 538h-7c-37 -99 -132 -197 -312 -197c-179 0 -357 124 -357 346c0 214 159 352 373 352c207 0 381 -125 381 -500c0 -408 -134 -607 -408 -607c-176 0 -306 98 -318 222zM758 719c0 178 -112 301 -285 301
c-163 0 -285 -115 -285 -281c0 -183 140 -279 287 -279c149 0 283 102 283 259z" />
    <glyph glyph-name="ampersand.sc" horiz-adv-x="1107" 
d="M961 0l-129 130c-105 -104 -252 -151 -380 -151c-194 0 -363 103 -363 290c0 104 55 203 230 287c4 3 55 27 60 30c-102 98 -161 169 -161 262c0 138 124 225 272 225c159 0 266 -102 266 -228c0 -116 -91 -196 -258 -275l329 -332c43 65 74 182 78 304c1 13 1 38 1 51
h77c0 -15 0 -40 -1 -54c-4 -138 -40 -271 -101 -352l187 -187h-107zM364 506c-118 -58 -192 -132 -192 -234c0 -134 124 -225 283 -225c112 0 244 45 326 134l-353 356c-4 -2 -60 -29 -64 -31zM448 616c165 75 228 140 228 226c0 95 -76 166 -187 166
c-107 0 -190 -67 -190 -164c0 -76 50 -133 149 -228z" />
    <glyph glyph-name="exclam.sc" horiz-adv-x="456" 
d="M183 1063h90l-9 -745h-71zM154 59c0 41 33 72 73 72c42 0 75 -31 75 -72c0 -39 -33 -70 -75 -70c-40 0 -73 31 -73 70z" />
    <glyph glyph-name="exclamdown.sc" horiz-adv-x="456" 
d="M272 0h-88l8 745h71zM154 1004c0 40 34 71 74 71c42 0 74 -31 74 -71s-32 -72 -74 -72c-40 0 -74 32 -74 72z" />
    <glyph glyph-name="question.sc" horiz-adv-x="787" 
d="M74 821c5 159 127 267 325 267c170 0 313 -89 313 -251c0 -120 -73 -190 -169 -258c-110 -80 -131 -127 -131 -202v-66h-80v76c-1 96 43 157 154 237c93 67 141 120 141 209c0 126 -109 187 -233 187c-178 0 -238 -116 -242 -199h-78zM303 59c0 41 33 72 73 72
c42 0 74 -31 74 -72c0 -39 -32 -70 -74 -70c-40 0 -73 31 -73 70z" />
    <glyph glyph-name="questiondown.sc" horiz-adv-x="786" 
d="M712 245c-6 -159 -127 -267 -325 -267c-170 0 -313 88 -313 252c0 119 72 188 169 257c110 79 130 127 130 201v66h82v-75c0 -97 -44 -158 -156 -238c-92 -67 -141 -119 -141 -209c0 -126 111 -187 234 -187c178 0 237 116 242 200h78zM337 1006c0 40 33 71 73 71
c41 0 74 -31 74 -71s-33 -72 -74 -72c-40 0 -73 32 -73 72z" />
    <glyph glyph-name="parenleft.sc" horiz-adv-x="530" 
d="M367 1124h68c-64 -74 -199 -282 -199 -621c0 -340 132 -547 197 -648h-72c-75 91 -207 306 -207 647c0 342 129 520 213 622z" />
    <glyph glyph-name="parenright.sc" horiz-adv-x="530" 
d="M95 1124h67c83 -102 214 -280 214 -622c0 -341 -134 -556 -208 -647h-72c65 101 198 308 198 648c0 339 -136 547 -199 621z" />
    <glyph glyph-name="bracketleft.sc" horiz-adv-x="535" 
d="M154 1123h300v-59h-222v-1120h233v-59h-311v1238z" />
    <glyph glyph-name="bracketright.sc" horiz-adv-x="534" 
d="M81 1123h299v-1238h-310v59h233v1120h-222v59z" />
    <glyph glyph-name="braceleft.sc" horiz-adv-x="593" 
d="M176 533v-15c93 -8 135 -61 135 -170v-285c0 -115 64 -165 194 -165h48v-66h-33c-187 0 -287 55 -287 242v241c0 109 -24 159 -138 159v101c114 0 138 51 138 160v205c0 185 100 235 287 235h33v-65h-48c-136 0 -194 -50 -194 -165v-243c0 -109 -42 -160 -135 -169z" />
    <glyph glyph-name="braceright.sc" horiz-adv-x="593" 
d="M417 518v15c-91 9 -134 60 -134 169v243c0 115 -59 165 -194 165h-49v65h34c187 0 288 -50 288 -235v-205c0 -109 24 -160 136 -160v-101c-112 0 -136 -50 -136 -159v-241c0 -187 -101 -242 -288 -242h-34v66h49c130 0 194 50 194 165v285c0 109 43 162 134 170z" />
    <glyph glyph-name="at.sc" horiz-adv-x="1413" 
d="M1057 256c-102 0 -173 53 -183 121h-5c-9 -34 -61 -121 -185 -121c-123 0 -214 84 -214 245v76c0 139 75 238 217 238c123 0 166 -79 174 -112h5v100h67v-371c0 -93 72 -119 132 -119c91 0 181 77 181 281v29c0 247 -186 466 -518 466h-7c-316 0 -540 -205 -540 -545v-29
c0 -341 241 -517 539 -517h7c112 0 187 13 250 34v-59c-49 -18 -128 -34 -250 -34h-7c-346 0 -609 200 -609 571v39c0 368 252 599 610 599h6c376 0 586 -252 586 -521v-42c0 -216 -117 -329 -256 -329zM543 509c0 -137 72 -192 158 -192c78 0 161 45 161 173v90
c0 96 -56 178 -161 178c-95 0 -158 -68 -158 -186v-63z" />
    <glyph glyph-name="numbersign.sc" horiz-adv-x="1041" 
d="M976 684h-203l-62 -296h191l-14 -65h-192l-71 -323h-70l71 323h-284l-71 -323h-70l70 323h-191l15 65h191l63 296h-181l14 64h182l69 318h71l-70 -318h284l69 318h71l-71 -318h203zM419 685l-63 -298h286l63 298h-286z" />
    <glyph glyph-name="currency.sc" horiz-adv-x="926" 
d="M791 154l-152 144c-48 -37 -109 -58 -175 -58c-67 0 -128 22 -177 60l-152 -146l-49 46l153 147c-37 45 -56 103 -56 165s18 119 55 164l-152 146l49 46l151 -144c48 39 111 61 178 61s129 -22 177 -59l150 142l49 -46l-151 -145c37 -45 56 -103 56 -165
c0 -63 -20 -120 -58 -166l153 -146zM248 512c0 -115 95 -209 216 -209c120 0 215 94 215 209c0 116 -95 210 -215 210c-121 0 -216 -94 -216 -210z" />
    <glyph glyph-name="dollar.sc" horiz-adv-x="926" 
d="M185 811c0 -104 73 -168 203 -203c5 -2 42 -12 49 -13v411c-154 -7 -252 -83 -252 -195zM765 276c0 117 -73 178 -246 223c-2 1 -11 3 -15 4v-442c156 10 261 90 261 215zM504 -110h-68v103c-250 8 -360 149 -362 282h82c4 -105 97 -205 281 -214v458l-74 18
c-152 37 -258 114 -258 267c0 159 132 260 331 270v103h68v-103c198 -13 321 -120 324 -259h-79c-2 88 -81 180 -245 191v-428l45 -10c199 -49 296 -130 296 -286c0 -175 -140 -276 -341 -288v-104z" />
    <glyph glyph-name="cent.sc" horiz-adv-x="926" 
d="M793 345c-8 -103 -94 -222 -287 -234v-182h-72v183c-188 13 -310 137 -310 353v133c0 212 128 335 310 349v189h72v-189c185 -13 279 -137 285 -246h-79c-13 83 -86 179 -241 179c-162 0 -267 -106 -267 -290v-120c0 -187 104 -290 272 -290c160 0 222 87 239 165h78z
" />
    <glyph glyph-name="yen.sc" horiz-adv-x="926" 
d="M731 252h-226v-252h-83v252h-226v61h226v140h-226v62h198l-361 548h96l332 -513h6l332 513h95l-361 -548h198v-62h-226v-140h226v-61z" />
    <glyph glyph-name="sterling.sc" horiz-adv-x="926" 
d="M833 68v-68h-743v72c87 1 177 11 177 205v239h-196v66h196v255c0 164 114 250 284 250c178 0 281 -105 287 -225h-80c-4 75 -71 156 -205 156c-139 0 -204 -73 -204 -189v-247h269v-66h-269v-245c0 -95 -20 -169 -76 -195v-8h560z" />
    <glyph glyph-name="franc.sc" horiz-adv-x="926" 
d="M545 205h-222v-205h-84v205h-185v65h185v793h607v-71h-523v-385h480v-71h-480v-266h222v-65z" />
    <glyph glyph-name="florin.sc" horiz-adv-x="926" 
d="M166 -145l153 788h-208l12 67h208l30 153c26 138 114 223 260 223c152 0 211 -98 215 -171h-79c-3 61 -64 104 -141 104c-99 0 -153 -62 -173 -169l-28 -140h272l-13 -67h-271l-152 -788h-85z" />
    <glyph glyph-name="u20BA.sc" horiz-adv-x="926" 
d="M265 0v522l-189 -82v69l189 82v197l-189 -82v68l189 82v207h83v-171l257 111v-68l-257 -112v-197l257 111v-68l-257 -112v-479c249 0 424 150 424 369h77c0 -240 -167 -447 -578 -447h-6z" />
    <glyph glyph-name="u20BD.sc" horiz-adv-x="926" 
d="M317 993v-459h176c131 0 268 49 268 227c0 135 -91 232 -252 232h-192zM598 204h-281v-204h-83v204h-175v66h175v195h-175v69h175v529h289c165 0 323 -104 323 -302c0 -199 -158 -296 -334 -296h-195v-195h281v-66z" />
    <glyph glyph-name="Euro.sc" horiz-adv-x="926" 
d="M873 318c0 -150 -88 -341 -341 -341c-211 0 -360 121 -366 402h-118v63h116v170h-116v63h118c6 274 141 412 365 412c252 0 344 -185 344 -357h-82c0 151 -77 286 -261 286s-279 -124 -283 -341h345v-63h-346v-170h346v-63h-345c4 -216 114 -330 284 -330
c186 0 257 136 257 269h83z" />
    <glyph glyph-name="u20AB.sc" horiz-adv-x="926" 
d="M706 -235h-526v64h526v-64zM434 756c-149 0 -263 -104 -263 -287v-124c0 -196 123 -290 265 -290c160 0 264 122 264 284v141c0 145 -99 276 -266 276zM697 154c-21 -67 -109 -168 -275 -168c-181 0 -333 118 -333 343v154c0 208 139 342 335 342
c177 0 253 -112 271 -166h5v295h-207v64h207v116h82v-116h106v-64h-106v-954h-80v154h-5z" />
    <glyph glyph-name="u20B9.sc" horiz-adv-x="926" 
d="M208 475l413 -475h-101l-429 498v35h99c209 0 325 76 344 203h-442v61h442c-7 119 -112 202 -255 202h-188v68h745v-65h-355l-2 -3c71 -29 131 -94 138 -202h219v-61h-219c-27 -168 -168 -256 -409 -261z" />
    <glyph glyph-name="slash.sc" horiz-adv-x="574" 
d="M116 -244h-70l410 1366h72z" />
    <glyph glyph-name="backslash.sc" horiz-adv-x="575" 
d="M529 -244h-71l-412 1366h72z" />
    <glyph glyph-name="bar.sc" horiz-adv-x="426" 
d="M250 -240h-74v1362h74v-1362z" />
    <glyph glyph-name="hyphen.sc" horiz-adv-x="684" 
d="M604 504h-524v69h524v-69z" />
    <glyph glyph-name="endash.sc" horiz-adv-x="1101" 
d="M1101 504h-1101v69h1101v-69z" />
    <glyph glyph-name="emdash.sc" horiz-adv-x="2048" 
d="M2048 504h-2048v69h2048v-69z" />
    <glyph glyph-name="bullet.sc" horiz-adv-x="827" 
d="M413 374c-97 0 -176 78 -176 176c0 96 79 175 176 175c96 0 176 -79 176 -175c0 -98 -80 -176 -176 -176z" />
    <glyph glyph-name="uni2023.sc" horiz-adv-x="827" 
d="M275 390v349l290 -174z" />
    <glyph glyph-name="openbullet.sc" horiz-adv-x="827" 
d="M415 351c-112 0 -203 89 -203 197c0 110 91 199 203 199c113 0 204 -89 204 -199c0 -108 -91 -197 -204 -197zM415 401c83 0 151 67 151 147c0 82 -68 148 -151 148c-84 0 -150 -66 -150 -148c0 -80 66 -147 150 -147z" />
    <glyph glyph-name="plus.sc" horiz-adv-x="926" 
d="M499 487v-372h-72v372h-360v67h360v358h72v-358h360v-67h-360z" />
    <glyph glyph-name="less.sc" horiz-adv-x="926" 
d="M126 452v70l661 417v-82l-579 -363v-8l579 -339v-83z" />
    <glyph glyph-name="equal.sc" horiz-adv-x="926" 
d="M806 343h-687v65h687v-65zM806 625h-687v66h687v-66z" />
    <glyph glyph-name="greater.sc" horiz-adv-x="926" 
d="M804 522v-70l-661 -388v83l581 339v8l-581 363v82z" />
    <glyph glyph-name="minus.sc" horiz-adv-x="926" 
d="M838 480h-750v68h750v-68z" />
    <glyph glyph-name="lessequal.sc" horiz-adv-x="926" 
d="M836 164h-745v68h745v-68zM95 610v58l741 267v-76l-614 -216v-4l614 -202v-75z" />
    <glyph glyph-name="greaterequal.sc" horiz-adv-x="926" 
d="M831 674v-58l-742 -254v75l614 206v4l-614 212v75zM835 164h-746v68h746v-68z" />
    <glyph glyph-name="approxequal.sc" horiz-adv-x="926" 
d="M606 581c-67 0 -119 26 -165 66c-38 33 -73 71 -131 71c-68 0 -104 -55 -105 -108h-71c0 83 55 172 181 172c66 0 108 -28 162 -75c44 -40 88 -61 132 -61c66 0 112 53 114 117h69c0 -100 -76 -182 -186 -182zM606 279c-67 0 -119 26 -165 66c-38 32 -73 70 -131 70
c-68 0 -104 -55 -105 -108h-71c0 84 55 173 181 173c66 0 108 -28 162 -75c44 -40 88 -62 132 -62c66 0 112 53 114 117h69c0 -100 -76 -181 -186 -181z" />
    <glyph glyph-name="logicalnot.sc" horiz-adv-x="926" 
d="M809 255h-76v279h-625v68h701v-347z" />
    <glyph glyph-name="infinity.sc" horiz-adv-x="1509" 
d="M1102 197c-159 0 -218 73 -347 216c-119 -147 -195 -216 -354 -216c-150 0 -285 113 -285 271c0 170 137 283 284 283c124 0 196 -52 353 -224c126 159 200 224 346 224c162 0 295 -120 295 -272c0 -144 -120 -282 -292 -282zM414 269c112 0 168 44 292 199
c-147 160 -211 210 -301 210c-102 0 -209 -74 -209 -207c0 -99 82 -202 218 -202zM1103 269c122 0 211 102 211 208c0 117 -106 201 -215 201s-167 -45 -297 -206c141 -156 183 -203 301 -203z" />
    <glyph glyph-name="notequal.sc" horiz-adv-x="926" 
d="M806 343h-398l-126 -253h-73l126 253h-216v65h246l109 217h-355v65h385l123 249h73l-123 -249h229v-65h-259l-110 -217h369v-65z" />
    <glyph glyph-name="plusminus.sc" horiz-adv-x="926" 
d="M497 624v-247h-70v247h-340v69h340v234h70v-234h340v-69h-340zM839 202h-752v69h752v-69z" />
    <glyph glyph-name="divide.sc" horiz-adv-x="926" 
d="M838 481h-750v67h750v-67zM390 228c0 41 32 72 71 72c42 0 75 -31 75 -72c0 -39 -33 -70 -75 -70c-39 0 -71 31 -71 70zM389 802c0 40 33 71 72 71c42 0 75 -31 75 -71c0 -39 -33 -70 -75 -70c-39 0 -72 31 -72 70z" />
    <glyph glyph-name="multiply.sc" horiz-adv-x="926" 
d="M722 218l-259 255l-258 -255l-51 48l259 255l-259 255l50 47l259 -255l259 255l51 -47l-259 -255l259 -255z" />
    <glyph glyph-name="a" unicode="a" horiz-adv-x="1014" 
d="M770 167c-27 -67 -129 -185 -328 -185c-201 0 -338 118 -338 308c0 172 119 288 351 288h317v147c0 174 -109 254 -275 254c-167 0 -247 -77 -270 -204h-78c18 162 130 277 353 277c210 0 351 -110 351 -312v-740h-79v167h-4zM452 55c174 0 320 116 320 292v160h-315
c-185 0 -268 -89 -268 -215c0 -148 111 -237 263 -237z" />
    <glyph glyph-name="agrave" unicode="&#xe0;" horiz-adv-x="1014" 
d="M770 167c-27 -67 -129 -185 -328 -185c-201 0 -338 118 -338 308c0 172 119 288 351 288h317v147c0 174 -109 254 -275 254c-167 0 -247 -77 -270 -204h-78c18 162 130 277 353 277c210 0 351 -110 351 -312v-740h-79v167h-4zM452 55c174 0 320 116 320 292v160h-315
c-185 0 -268 -89 -268 -215c0 -148 111 -237 263 -237zM550 1201h-72l-248 294h91z" />
    <glyph glyph-name="aacute" unicode="&#xe1;" horiz-adv-x="1014" 
d="M770 167c-27 -67 -129 -185 -328 -185c-201 0 -338 118 -338 308c0 172 119 288 351 288h317v147c0 174 -109 254 -275 254c-167 0 -247 -77 -270 -204h-78c18 162 130 277 353 277c210 0 351 -110 351 -312v-740h-79v167h-4zM452 55c174 0 320 116 320 292v160h-315
c-185 0 -268 -89 -268 -215c0 -148 111 -237 263 -237zM536 1201h-72l230 294h90z" />
    <glyph glyph-name="adieresis" unicode="&#xe4;" horiz-adv-x="1014" 
d="M770 167c-27 -67 -129 -185 -328 -185c-201 0 -338 118 -338 308c0 172 119 288 351 288h317v147c0 174 -109 254 -275 254c-167 0 -247 -77 -270 -204h-78c18 162 130 277 353 277c210 0 351 -110 351 -312v-740h-79v167h-4zM452 55c174 0 320 116 320 292v160h-315
c-185 0 -268 -89 -268 -215c0 -148 111 -237 263 -237zM357 1235c-36 0 -64 29 -64 65s28 65 64 65s64 -29 64 -65s-28 -65 -64 -65zM656 1235c-36 0 -64 29 -64 65s28 65 64 65s64 -29 64 -65s-28 -65 -64 -65z" />
    <glyph glyph-name="adieresismacron" unicode="&#x1df;" horiz-adv-x="1014" 
d="M770 167c-27 -67 -129 -185 -328 -185c-201 0 -338 118 -338 308c0 172 119 288 351 288h317v147c0 174 -109 254 -275 254c-167 0 -247 -77 -270 -204h-78c18 162 130 277 353 277c210 0 351 -110 351 -312v-740h-79v167h-4zM452 55c174 0 320 116 320 292v160h-315
c-185 0 -268 -89 -268 -215c0 -148 111 -237 263 -237zM357 1235c-36 0 -64 29 -64 65s28 65 64 65s64 -29 64 -65s-28 -65 -64 -65zM656 1235c-36 0 -64 29 -64 65s28 65 64 65s64 -29 64 -65s-28 -65 -64 -65zM784 1551h-553v61h553v-61z" />
    <glyph glyph-name="aring" unicode="&#xe5;" horiz-adv-x="1014" 
d="M770 167c-27 -67 -129 -185 -328 -185c-201 0 -338 118 -338 308c0 172 119 288 351 288h317v147c0 174 -109 254 -275 254c-167 0 -247 -77 -270 -204h-78c18 162 130 277 353 277c210 0 351 -110 351 -312v-740h-79v167h-4zM452 55c174 0 320 116 320 292v160h-315
c-185 0 -268 -89 -268 -215c0 -148 111 -237 263 -237zM507 1199c-97 0 -174 76 -174 173c0 95 77 169 174 169c94 0 174 -74 174 -169c0 -97 -80 -173 -174 -173zM389 1370c0 -64 54 -118 118 -118c65 0 117 54 117 118c0 66 -52 118 -117 118c-64 0 -118 -52 -118 -118z
" />
    <glyph glyph-name="aringacute" unicode="&#x1fb;" horiz-adv-x="1014" 
d="M770 167c-27 -67 -129 -185 -328 -185c-201 0 -338 118 -338 308c0 172 119 288 351 288h317v147c0 174 -109 254 -275 254c-167 0 -247 -77 -270 -204h-78c18 162 130 277 353 277c210 0 351 -110 351 -312v-740h-79v167h-4zM452 55c174 0 320 116 320 292v160h-315
c-185 0 -268 -89 -268 -215c0 -148 111 -237 263 -237zM542 1625h-63l152 190h88zM507 1199c-97 0 -174 76 -174 173c0 95 77 169 174 169c94 0 174 -74 174 -169c0 -97 -80 -173 -174 -173zM389 1370c0 -64 54 -118 118 -118c65 0 117 54 117 118c0 66 -52 118 -117 118
c-64 0 -118 -52 -118 -118z" />
    <glyph glyph-name="atilde" unicode="&#xe3;" horiz-adv-x="1014" 
d="M770 167c-27 -67 -129 -185 -328 -185c-201 0 -338 118 -338 308c0 172 119 288 351 288h317v147c0 174 -109 254 -275 254c-167 0 -247 -77 -270 -204h-78c18 162 130 277 353 277c210 0 351 -110 351 -312v-740h-79v167h-4zM452 55c174 0 320 116 320 292v160h-315
c-185 0 -268 -89 -268 -215c0 -148 111 -237 263 -237zM635 1198c-141 0 -167 158 -265 158c-56 0 -99 -53 -100 -142h-63c0 126 66 202 163 202c140 0 158 -158 265 -158c65 0 100 61 101 147h64c0 -115 -58 -207 -165 -207z" />
    <glyph glyph-name="abrevegrave" unicode="&#x1eb1;" horiz-adv-x="1014" 
d="M770 167c-27 -67 -129 -185 -328 -185c-201 0 -338 118 -338 308c0 172 119 288 351 288h317v147c0 174 -109 254 -275 254c-167 0 -247 -77 -270 -204h-78c18 162 130 277 353 277c210 0 351 -110 351 -312v-740h-79v167h-4zM452 55c174 0 320 116 320 292v160h-315
c-185 0 -268 -89 -268 -215c0 -148 111 -237 263 -237zM552 1474h-71l-248 294h90zM239 1441h67c0 -104 73 -180 201 -180s201 76 201 180h67c0 -117 -88 -242 -268 -242s-268 122 -268 242z" />
    <glyph glyph-name="adotmacron" unicode="&#x1e1;" horiz-adv-x="1014" 
d="M770 167c-27 -67 -129 -185 -328 -185c-201 0 -338 118 -338 308c0 172 119 288 351 288h317v147c0 174 -109 254 -275 254c-167 0 -247 -77 -270 -204h-78c18 162 130 277 353 277c210 0 351 -110 351 -312v-740h-79v167h-4zM452 55c174 0 320 116 320 292v160h-315
c-185 0 -268 -89 -268 -215c0 -148 111 -237 263 -237zM431 1327c0 43 34 77 75 77c42 0 77 -34 77 -77c0 -42 -35 -75 -77 -75c-41 0 -75 33 -75 75zM784 1551h-553v61h553v-61z" />
    <glyph glyph-name="aringbelow" unicode="&#x1e01;" horiz-adv-x="1014" 
d="M770 167c-27 -67 -129 -185 -328 -185c-201 0 -338 118 -338 308c0 172 119 288 351 288h317v147c0 174 -109 254 -275 254c-167 0 -247 -77 -270 -204h-78c18 162 130 277 353 277c210 0 351 -110 351 -312v-740h-79v167h-4zM452 55c174 0 320 116 320 292v160h-315
c-185 0 -268 -89 -268 -215c0 -148 111 -237 263 -237zM507 -497c-97 0 -174 76 -174 173c0 95 77 169 174 169c94 0 174 -74 174 -169c0 -97 -80 -173 -174 -173zM389 -326c0 -64 54 -118 118 -118c65 0 117 54 117 118c0 66 -52 118 -117 118c-64 0 -118 -52 -118 -118z
" />
    <glyph glyph-name="acircumflex" unicode="&#xe2;" horiz-adv-x="1014" 
d="M770 167c-27 -67 -129 -185 -328 -185c-201 0 -338 118 -338 308c0 172 119 288 351 288h317v147c0 174 -109 254 -275 254c-167 0 -247 -77 -270 -204h-78c18 162 130 277 353 277c210 0 351 -110 351 -312v-740h-79v167h-4zM452 55c174 0 320 116 320 292v160h-315
c-185 0 -268 -89 -268 -215c0 -148 111 -237 263 -237zM245 1201l233 327h59l233 -327h-75l-186 266h-3l-187 -266h-74z" />
    <glyph glyph-name="acircumflexdotbelow" unicode="&#x1ead;" horiz-adv-x="1014" 
d="M770 167c-27 -67 -129 -185 -328 -185c-201 0 -338 118 -338 308c0 172 119 288 351 288h317v147c0 174 -109 254 -275 254c-167 0 -247 -77 -270 -204h-78c18 162 130 277 353 277c210 0 351 -110 351 -312v-740h-79v167h-4zM452 55c174 0 320 116 320 292v160h-315
c-185 0 -268 -89 -268 -215c0 -148 111 -237 263 -237zM245 1201l233 327h59l233 -327h-75l-186 266h-3l-187 -266h-74zM440 -287c0 40 31 70 67 70c40 0 71 -30 71 -70c0 -39 -31 -69 -71 -69c-36 0 -67 30 -67 69z" />
    <glyph glyph-name="acircumflexacute" unicode="&#x1ea5;" horiz-adv-x="1014" 
d="M770 167c-27 -67 -129 -185 -328 -185c-201 0 -338 118 -338 308c0 172 119 288 351 288h317v147c0 174 -109 254 -275 254c-167 0 -247 -77 -270 -204h-78c18 162 130 277 353 277c210 0 351 -110 351 -312v-740h-79v167h-4zM452 55c174 0 320 116 320 292v160h-315
c-185 0 -268 -89 -268 -215c0 -148 111 -237 263 -237zM794 1435h-71l230 294h89zM245 1201l233 327h59l233 -327h-75l-186 266h-3l-187 -266h-74z" />
    <glyph glyph-name="acircumflextilde" unicode="&#x1eab;" horiz-adv-x="1014" 
d="M770 167c-27 -67 -129 -185 -328 -185c-201 0 -338 118 -338 308c0 172 119 288 351 288h317v147c0 174 -109 254 -275 254c-167 0 -247 -77 -270 -204h-78c18 162 130 277 353 277c210 0 351 -110 351 -312v-740h-79v167h-4zM452 55c174 0 320 116 320 292v160h-315
c-185 0 -268 -89 -268 -215c0 -148 111 -237 263 -237zM294 1643h-61c0 113 60 184 151 184c129 0 143 -144 243 -144c61 0 91 53 92 128h61c0 -99 -51 -184 -153 -184c-134 0 -150 143 -243 143c-53 0 -90 -49 -90 -127zM245 1201l233 327h59l233 -327h-75l-186 266h-3
l-187 -266h-74z" />
    <glyph glyph-name="acircumflexgrave" unicode="&#x1ea7;" horiz-adv-x="1014" 
d="M770 167c-27 -67 -129 -185 -328 -185c-201 0 -338 118 -338 308c0 172 119 288 351 288h317v147c0 174 -109 254 -275 254c-167 0 -247 -77 -270 -204h-78c18 162 130 277 353 277c210 0 351 -110 351 -312v-740h-79v167h-4zM452 55c174 0 320 116 320 292v160h-315
c-185 0 -268 -89 -268 -215c0 -148 111 -237 263 -237zM910 1435h-71l-248 294h90zM245 1201l233 327h59l233 -327h-75l-186 266h-3l-187 -266h-74z" />
    <glyph glyph-name="acircumflexhookabove" unicode="&#x1ea9;" horiz-adv-x="1014" 
d="M770 167c-27 -67 -129 -185 -328 -185c-201 0 -338 118 -338 308c0 172 119 288 351 288h317v147c0 174 -109 254 -275 254c-167 0 -247 -77 -270 -204h-78c18 162 130 277 353 277c210 0 351 -110 351 -312v-740h-79v167h-4zM452 55c174 0 320 116 320 292v160h-315
c-185 0 -268 -89 -268 -215c0 -148 111 -237 263 -237zM637 1638v55c14 12 53 26 93 26c90 0 155 -56 155 -138c0 -68 -50 -110 -99 -137l-34 44c44 26 70 52 70 93c0 45 -37 83 -100 83c-31 0 -63 -12 -85 -26zM245 1201l233 327h59l233 -327h-75l-186 266h-3l-187 -266
h-74z" />
    <glyph glyph-name="abreve" unicode="&#x103;" horiz-adv-x="1014" 
d="M770 167c-27 -67 -129 -185 -328 -185c-201 0 -338 118 -338 308c0 172 119 288 351 288h317v147c0 174 -109 254 -275 254c-167 0 -247 -77 -270 -204h-78c18 162 130 277 353 277c210 0 351 -110 351 -312v-740h-79v167h-4zM452 55c174 0 320 116 320 292v160h-315
c-185 0 -268 -89 -268 -215c0 -148 111 -237 263 -237zM239 1441h67c0 -104 73 -180 201 -180s201 76 201 180h67c0 -117 -88 -242 -268 -242s-268 122 -268 242z" />
    <glyph glyph-name="abreveacute" unicode="&#x1eaf;" horiz-adv-x="1014" 
d="M770 167c-27 -67 -129 -185 -328 -185c-201 0 -338 118 -338 308c0 172 119 288 351 288h317v147c0 174 -109 254 -275 254c-167 0 -247 -77 -270 -204h-78c18 162 130 277 353 277c210 0 351 -110 351 -312v-740h-79v167h-4zM452 55c174 0 320 116 320 292v160h-315
c-185 0 -268 -89 -268 -215c0 -148 111 -237 263 -237zM532 1474h-71l230 294h89zM239 1441h67c0 -104 73 -180 201 -180s201 76 201 180h67c0 -117 -88 -242 -268 -242s-268 122 -268 242z" />
    <glyph glyph-name="abrevetilde" unicode="&#x1eb5;" horiz-adv-x="1014" 
d="M770 167c-27 -67 -129 -185 -328 -185c-201 0 -338 118 -338 308c0 172 119 288 351 288h317v147c0 174 -109 254 -275 254c-167 0 -247 -77 -270 -204h-78c18 162 130 277 353 277c210 0 351 -110 351 -312v-740h-79v167h-4zM452 55c174 0 320 116 320 292v160h-315
c-185 0 -268 -89 -268 -215c0 -148 111 -237 263 -237zM305 1544h-61c0 113 61 183 151 183c129 0 144 -143 244 -143c60 0 90 53 91 128h61c0 -99 -50 -184 -153 -184c-134 0 -150 143 -243 143c-53 0 -89 -49 -90 -127zM239 1441h67c0 -104 73 -180 201 -180
s201 76 201 180h67c0 -117 -88 -242 -268 -242s-268 122 -268 242z" />
    <glyph glyph-name="abrevehookabove" unicode="&#x1eb3;" horiz-adv-x="1014" 
d="M770 167c-27 -67 -129 -185 -328 -185c-201 0 -338 118 -338 308c0 172 119 288 351 288h317v147c0 174 -109 254 -275 254c-167 0 -247 -77 -270 -204h-78c18 162 130 277 353 277c210 0 351 -110 351 -312v-740h-79v167h-4zM452 55c174 0 320 116 320 292v160h-315
c-185 0 -268 -89 -268 -215c0 -148 111 -237 263 -237zM355 1654v54c14 12 54 26 93 26c91 0 155 -56 155 -137c0 -69 -50 -111 -99 -138l-33 44c44 26 70 52 70 93c0 46 -38 83 -101 83c-31 0 -62 -11 -85 -25zM239 1441h67c0 -104 73 -180 201 -180s201 76 201 180h67
c0 -117 -88 -242 -268 -242s-268 122 -268 242z" />
    <glyph glyph-name="abrevedotbelow" unicode="&#x1eb7;" horiz-adv-x="1014" 
d="M770 167c-27 -67 -129 -185 -328 -185c-201 0 -338 118 -338 308c0 172 119 288 351 288h317v147c0 174 -109 254 -275 254c-167 0 -247 -77 -270 -204h-78c18 162 130 277 353 277c210 0 351 -110 351 -312v-740h-79v167h-4zM452 55c174 0 320 116 320 292v160h-315
c-185 0 -268 -89 -268 -215c0 -148 111 -237 263 -237zM440 -287c0 40 31 70 67 70c40 0 71 -30 71 -70c0 -39 -31 -69 -71 -69c-36 0 -67 30 -67 69zM239 1441h67c0 -104 73 -180 201 -180s201 76 201 180h67c0 -117 -88 -242 -268 -242s-268 122 -268 242z" />
    <glyph glyph-name="ainvertedbreve" unicode="&#x203;" horiz-adv-x="1014" 
d="M770 167c-27 -67 -129 -185 -328 -185c-201 0 -338 118 -338 308c0 172 119 288 351 288h317v147c0 174 -109 254 -275 254c-167 0 -247 -77 -270 -204h-78c18 162 130 277 353 277c210 0 351 -110 351 -312v-740h-79v167h-4zM452 55c174 0 320 116 320 292v160h-315
c-185 0 -268 -89 -268 -215c0 -148 111 -237 263 -237zM239 1206c0 121 88 242 268 242s261 -124 261 -242h-67c0 104 -66 181 -194 181s-201 -77 -201 -181h-67z" />
    <glyph glyph-name="acaron" unicode="&#x1ce;" horiz-adv-x="1014" 
d="M770 167c-27 -67 -129 -185 -328 -185c-201 0 -338 118 -338 308c0 172 119 288 351 288h317v147c0 174 -109 254 -275 254c-167 0 -247 -77 -270 -204h-78c18 162 130 277 353 277c210 0 351 -110 351 -312v-740h-79v167h-4zM452 55c174 0 320 116 320 292v160h-315
c-185 0 -268 -89 -268 -215c0 -148 111 -237 263 -237zM245 1528h74l186 -266h4l186 266h74l-232 -327h-60z" />
    <glyph glyph-name="adotaccent" unicode="&#x227;" horiz-adv-x="1014" 
d="M770 167c-27 -67 -129 -185 -328 -185c-201 0 -338 118 -338 308c0 172 119 288 351 288h317v147c0 174 -109 254 -275 254c-167 0 -247 -77 -270 -204h-78c18 162 130 277 353 277c210 0 351 -110 351 -312v-740h-79v167h-4zM452 55c174 0 320 116 320 292v160h-315
c-185 0 -268 -89 -268 -215c0 -148 111 -237 263 -237zM431 1327c0 43 34 77 75 77c42 0 77 -34 77 -77c0 -42 -35 -75 -77 -75c-41 0 -75 33 -75 75z" />
    <glyph glyph-name="adotbelow" unicode="&#x1ea1;" horiz-adv-x="1014" 
d="M770 167c-27 -67 -129 -185 -328 -185c-201 0 -338 118 -338 308c0 172 119 288 351 288h317v147c0 174 -109 254 -275 254c-167 0 -247 -77 -270 -204h-78c18 162 130 277 353 277c210 0 351 -110 351 -312v-740h-79v167h-4zM452 55c174 0 320 116 320 292v160h-315
c-185 0 -268 -89 -268 -215c0 -148 111 -237 263 -237zM440 -287c0 40 31 70 67 70c40 0 71 -30 71 -70c0 -39 -31 -69 -71 -69c-36 0 -67 30 -67 69z" />
    <glyph glyph-name="ahookabove" unicode="&#x1ea3;" horiz-adv-x="1014" 
d="M770 167c-27 -67 -129 -185 -328 -185c-201 0 -338 118 -338 308c0 172 119 288 351 288h317v147c0 174 -109 254 -275 254c-167 0 -247 -77 -270 -204h-78c18 162 130 277 353 277c210 0 351 -110 351 -312v-740h-79v167h-4zM452 55c174 0 320 116 320 292v160h-315
c-185 0 -268 -89 -268 -215c0 -148 111 -237 263 -237zM388 1413v56c14 11 54 25 94 25c91 0 156 -56 156 -139c0 -69 -50 -111 -100 -138l-34 45c45 25 71 52 71 93c0 45 -38 84 -101 84c-32 0 -63 -12 -86 -26z" />
    <glyph glyph-name="adblgrave" unicode="&#x201;" horiz-adv-x="1014" 
d="M770 167c-27 -67 -129 -185 -328 -185c-201 0 -338 118 -338 308c0 172 119 288 351 288h317v147c0 174 -109 254 -275 254c-167 0 -247 -77 -270 -204h-78c18 162 130 277 353 277c210 0 351 -110 351 -312v-740h-79v167h-4zM452 55c174 0 320 116 320 292v160h-315
c-185 0 -268 -89 -268 -215c0 -148 111 -237 263 -237zM371 1201l-247 294h85l230 -294h-68zM589 1201l-247 294h84l231 -294h-68z" />
    <glyph glyph-name="amacron" unicode="&#x101;" horiz-adv-x="1014" 
d="M770 167c-27 -67 -129 -185 -328 -185c-201 0 -338 118 -338 308c0 172 119 288 351 288h317v147c0 174 -109 254 -275 254c-167 0 -247 -77 -270 -204h-78c18 162 130 277 353 277c210 0 351 -110 351 -312v-740h-79v167h-4zM452 55c174 0 320 116 320 292v160h-315
c-185 0 -268 -89 -268 -215c0 -148 111 -237 263 -237zM784 1270h-553v61h553v-61z" />
    <glyph glyph-name="aogonek" unicode="&#x105;" horiz-adv-x="1014" 
d="M799 -359c-94 0 -176 52 -176 163c0 107 73 173 151 228v135h-4c-27 -67 -129 -185 -328 -185c-201 0 -338 118 -338 308c0 172 119 288 351 288h317v147c0 174 -109 254 -275 254c-167 0 -247 -77 -270 -204h-78c18 162 130 277 353 277c210 0 351 -110 351 -312v-733
c-79 -43 -154 -102 -154 -191c0 -68 43 -106 113 -106c24 0 57 4 80 12v-64c-13 -6 -46 -17 -93 -17zM452 55c174 0 320 116 320 292v160h-315c-185 0 -268 -89 -268 -215c0 -148 111 -237 263 -237z" />
    <glyph glyph-name="b" unicode="b" horiz-adv-x="1113" 
d="M592 -18c-207 0 -303 130 -338 217h-4v-199h-79v1435h81v-598h4c24 65 121 215 338 215c228 0 397 -167 397 -444v-180c0 -295 -185 -446 -399 -446zM590 56c167 0 319 123 319 386v154c0 246 -141 382 -319 382c-218 0 -339 -173 -339 -378v-160
c0 -223 131 -384 339 -384z" />
    <glyph glyph-name="blinebelow" unicode="&#x1e07;" horiz-adv-x="1113" 
d="M833 -303h-553v61h553v-61zM592 -18c-207 0 -303 130 -338 217h-4v-199h-79v1435h81v-598h4c24 65 121 215 338 215c228 0 397 -167 397 -444v-180c0 -295 -185 -446 -399 -446zM590 56c167 0 319 123 319 386v154c0 246 -141 382 -319 382c-218 0 -339 -173 -339 -378
v-160c0 -223 131 -384 339 -384z" />
    <glyph glyph-name="bdotbelow" unicode="&#x1e05;" horiz-adv-x="1113" 
d="M489 -287c0 40 31 70 67 70c40 0 71 -30 71 -70c0 -39 -31 -69 -71 -69c-36 0 -67 30 -67 69zM592 -18c-207 0 -303 130 -338 217h-4v-199h-79v1435h81v-598h4c24 65 121 215 338 215c228 0 397 -167 397 -444v-180c0 -295 -185 -446 -399 -446zM590 56
c167 0 319 123 319 386v154c0 246 -141 382 -319 382c-218 0 -339 -173 -339 -378v-160c0 -223 131 -384 339 -384z" />
    <glyph glyph-name="bdotaccent" unicode="&#x1e03;" horiz-adv-x="1113" 
d="M140 1726c0 41 32 72 73 72s73 -31 73 -72c0 -40 -32 -72 -73 -72s-73 32 -73 72zM592 -18c-207 0 -303 130 -338 217h-4v-199h-79v1435h81v-598h4c24 65 121 215 338 215c228 0 397 -167 397 -444v-180c0 -295 -185 -446 -399 -446zM590 56c167 0 319 123 319 386v154
c0 246 -141 382 -319 382c-218 0 -339 -173 -339 -378v-160c0 -223 131 -384 339 -384z" />
    <glyph glyph-name="c" unicode="c" horiz-adv-x="1032" 
d="M123 446v151c0 290 168 455 407 455c246 0 375 -166 384 -314h-79c-20 121 -122 240 -302 240c-196 0 -330 -140 -330 -393v-132c0 -256 131 -396 337 -396c193 0 278 115 298 222h78c-19 -142 -127 -297 -383 -297c-251 0 -410 169 -410 464z" />
    <glyph glyph-name="cacute" unicode="&#x107;" horiz-adv-x="1032" 
d="M123 446v151c0 290 168 455 407 455c246 0 375 -166 384 -314h-79c-20 121 -122 240 -302 240c-196 0 -330 -140 -330 -393v-132c0 -256 131 -396 337 -396c193 0 278 115 298 222h78c-19 -142 -127 -297 -383 -297c-251 0 -410 169 -410 464zM560 1201h-72l230 294h90z
" />
    <glyph glyph-name="ccaron" unicode="&#x10d;" horiz-adv-x="1032" 
d="M269 1528h74l186 -266h4l186 266h74l-232 -327h-60zM123 446v151c0 290 168 455 407 455c246 0 375 -166 384 -314h-79c-20 121 -122 240 -302 240c-196 0 -330 -140 -330 -393v-132c0 -256 131 -396 337 -396c193 0 278 115 298 222h78c-19 -142 -127 -297 -383 -297
c-251 0 -410 169 -410 464z" />
    <glyph glyph-name="ccircumflex" unicode="&#x109;" horiz-adv-x="1032" 
d="M269 1201l233 327h59l233 -327h-75l-186 266h-3l-187 -266h-74zM123 446v151c0 290 168 455 407 455c246 0 375 -166 384 -314h-79c-20 121 -122 240 -302 240c-196 0 -330 -140 -330 -393v-132c0 -256 131 -396 337 -396c193 0 278 115 298 222h78
c-19 -142 -127 -297 -383 -297c-251 0 -410 169 -410 464z" />
    <glyph glyph-name="cdotaccent" unicode="&#x10b;" horiz-adv-x="1032" 
d="M123 446v151c0 290 168 455 407 455c246 0 375 -166 384 -314h-79c-20 121 -122 240 -302 240c-196 0 -330 -140 -330 -393v-132c0 -256 131 -396 337 -396c193 0 278 115 298 222h78c-19 -142 -127 -297 -383 -297c-251 0 -410 169 -410 464zM455 1327c0 43 34 77 75 77
c42 0 77 -34 77 -77c0 -42 -35 -75 -77 -75c-41 0 -75 33 -75 75z" />
    <glyph glyph-name="ccedilla" unicode="&#xe7;" horiz-adv-x="1032" 
d="M505 -459c-53 -1 -102 8 -124 16v62c26 -9 74 -15 120 -15c73 0 151 30 151 104c0 69 -53 99 -150 99h-50v48l57 128c-236 11 -386 177 -386 463v151c0 290 168 455 407 455c246 0 375 -166 384 -314h-79c-20 121 -122 240 -302 240c-196 0 -330 -140 -330 -393v-132
c0 -256 131 -396 337 -396c193 0 278 115 298 222h78c-17 -133 -114 -279 -339 -295l-52 -118c106 0 204 -43 204 -154c0 -119 -114 -170 -224 -171z" />
    <glyph glyph-name="ccedillaacute" unicode="&#x1e09;" horiz-adv-x="1032" 
d="M560 1201h-72l230 294h90zM505 -459c-53 -1 -102 8 -124 16v62c26 -9 74 -15 120 -15c73 0 151 30 151 104c0 69 -53 99 -150 99h-50v48l57 128c-236 11 -386 177 -386 463v151c0 290 168 455 407 455c246 0 375 -166 384 -314h-79c-20 121 -122 240 -302 240
c-196 0 -330 -140 -330 -393v-132c0 -256 131 -396 337 -396c193 0 278 115 298 222h78c-17 -133 -114 -279 -339 -295l-52 -118c106 0 204 -43 204 -154c0 -119 -114 -170 -224 -171z" />
    <glyph glyph-name="d" unicode="d" horiz-adv-x="1112" 
d="M521 1053c205 0 303 -131 335 -214h4v596h81v-1435h-79v202h-4c-25 -70 -119 -220 -338 -220c-236 0 -397 175 -397 446v178c0 290 182 447 398 447zM525 978c-167 0 -321 -119 -321 -385v-155c0 -247 143 -381 321 -381c216 0 336 176 336 379v158
c0 219 -131 384 -336 384z" />
    <glyph glyph-name="ddotaccent" unicode="&#x1e0b;" horiz-adv-x="1112" 
d="M828 1726c0 41 32 72 73 72s73 -31 73 -72c0 -40 -32 -72 -73 -72s-73 32 -73 72zM521 1053c205 0 303 -131 335 -214h4v596h81v-1435h-79v202h-4c-25 -70 -119 -220 -338 -220c-236 0 -397 175 -397 446v178c0 290 182 447 398 447zM525 978c-167 0 -321 -119 -321 -385
v-155c0 -247 143 -381 321 -381c216 0 336 176 336 379v158c0 219 -131 384 -336 384z" />
    <glyph glyph-name="dcircumflexbelow" unicode="&#x1e13;" horiz-adv-x="1112" 
d="M521 1053c205 0 303 -131 335 -214h4v596h81v-1435h-79v202h-4c-25 -70 -119 -220 -338 -220c-236 0 -397 175 -397 446v178c0 290 182 447 398 447zM525 978c-167 0 -321 -119 -321 -385v-155c0 -247 143 -381 321 -381c216 0 336 176 336 379v158
c0 219 -131 384 -336 384zM297 -413l230 280h62l230 -280h-73l-186 229h-4l-186 -229h-73z" />
    <glyph glyph-name="dcommaaccent" unicode="&#x1e11;" horiz-adv-x="1112" 
d="M496 -481h-60l85 335h89zM521 1053c205 0 303 -131 335 -214h4v596h81v-1435h-79v202h-4c-25 -70 -119 -220 -338 -220c-236 0 -397 175 -397 446v178c0 290 182 447 398 447zM525 978c-167 0 -321 -119 -321 -385v-155c0 -247 143 -381 321 -381c216 0 336 176 336 379
v158c0 219 -131 384 -336 384z" />
    <glyph glyph-name="dlinebelow" unicode="&#x1e0f;" horiz-adv-x="1112" 
d="M835 -303h-553v61h553v-61zM521 1053c205 0 303 -131 335 -214h4v596h81v-1435h-79v202h-4c-25 -70 -119 -220 -338 -220c-236 0 -397 175 -397 446v178c0 290 182 447 398 447zM525 978c-167 0 -321 -119 -321 -385v-155c0 -247 143 -381 321 -381
c216 0 336 176 336 379v158c0 219 -131 384 -336 384z" />
    <glyph glyph-name="dcaron" unicode="&#x10f;" horiz-adv-x="1230" 
d="M1147 1436h81l-26 -488h-55v488zM521 1053c205 0 303 -131 335 -214h4v596h81v-1435h-79v202h-4c-25 -70 -119 -220 -338 -220c-236 0 -397 175 -397 446v178c0 290 182 447 398 447zM525 978c-167 0 -321 -119 -321 -385v-155c0 -247 143 -381 321 -381
c216 0 336 176 336 379v158c0 219 -131 384 -336 384z" />
    <glyph glyph-name="ddotbelow" unicode="&#x1e0d;" horiz-adv-x="1112" 
d="M491 -287c0 40 31 70 67 70c40 0 71 -30 71 -70c0 -39 -31 -69 -71 -69c-36 0 -67 30 -67 69zM521 1053c205 0 303 -131 335 -214h4v596h81v-1435h-79v202h-4c-25 -70 -119 -220 -338 -220c-236 0 -397 175 -397 446v178c0 290 182 447 398 447zM525 978
c-167 0 -321 -119 -321 -385v-155c0 -247 143 -381 321 -381c216 0 336 176 336 379v158c0 219 -131 384 -336 384z" />
    <glyph glyph-name="dcroat" unicode="&#x111;" horiz-adv-x="1113" 
d="M525 978c-167 0 -321 -119 -321 -385v-155c0 -247 143 -381 321 -381c216 0 335 176 335 379v158c0 219 -130 384 -335 384zM859 202c-25 -70 -120 -220 -339 -220c-236 0 -397 175 -397 446v178c0 290 182 447 398 447c205 0 302 -131 334 -214h4v393h-251v67h251v136
h83v-136h124v-67h-124v-1232h-79v202h-4z" />
    <glyph glyph-name="e" unicode="e" horiz-adv-x="1050" 
d="M535 -18c-256 0 -412 175 -412 476v110c0 313 158 484 402 484s403 -170 403 -487v-55h-725v-51c0 -258 130 -404 334 -404c187 0 279 111 295 206h81c-17 -127 -135 -279 -378 -279zM203 581h644v4c0 246 -128 394 -322 394s-322 -148 -322 -394v-4z" />
    <glyph glyph-name="egrave" unicode="&#xe8;" horiz-adv-x="1050" 
d="M568 1201h-72l-248 294h91zM535 -18c-256 0 -412 175 -412 476v110c0 313 158 484 402 484s403 -170 403 -487v-55h-725v-51c0 -258 130 -404 334 -404c187 0 279 111 295 206h81c-17 -127 -135 -279 -378 -279zM203 581h644v4c0 246 -128 394 -322 394
s-322 -148 -322 -394v-4z" />
    <glyph glyph-name="edblgrave" unicode="&#x205;" horiz-adv-x="1050" 
d="M535 -18c-256 0 -412 175 -412 476v110c0 313 158 484 402 484s403 -170 403 -487v-55h-725v-51c0 -258 130 -404 334 -404c187 0 279 111 295 206h81c-17 -127 -135 -279 -378 -279zM203 581h644v4c0 246 -128 394 -322 394s-322 -148 -322 -394v-4zM389 1201l-247 294
h85l230 -294h-68zM607 1201l-247 294h84l231 -294h-68z" />
    <glyph glyph-name="eacute" unicode="&#xe9;" horiz-adv-x="1050" 
d="M554 1201h-72l230 294h90zM535 -18c-256 0 -412 175 -412 476v110c0 313 158 484 402 484s403 -170 403 -487v-55h-725v-51c0 -258 130 -404 334 -404c187 0 279 111 295 206h81c-17 -127 -135 -279 -378 -279zM203 581h644v4c0 246 -128 394 -322 394
s-322 -148 -322 -394v-4z" />
    <glyph glyph-name="ecircumflex" unicode="&#xea;" horiz-adv-x="1050" 
d="M263 1201l233 327h59l233 -327h-75l-186 266h-3l-187 -266h-74zM535 -18c-256 0 -412 175 -412 476v110c0 313 158 484 402 484s403 -170 403 -487v-55h-725v-51c0 -258 130 -404 334 -404c187 0 279 111 295 206h81c-17 -127 -135 -279 -378 -279zM203 581h644v4
c0 246 -128 394 -322 394s-322 -148 -322 -394v-4z" />
    <glyph glyph-name="ecircumflexhookabove" unicode="&#x1ec3;" horiz-adv-x="1050" 
d="M655 1638v55c14 12 53 26 93 26c90 0 155 -56 155 -138c0 -68 -50 -110 -99 -137l-34 44c44 26 70 52 70 93c0 45 -37 83 -100 83c-31 0 -63 -12 -85 -26zM263 1201l233 327h59l233 -327h-75l-186 266h-3l-187 -266h-74zM535 -18c-256 0 -412 175 -412 476v110
c0 313 158 484 402 484s403 -170 403 -487v-55h-725v-51c0 -258 130 -404 334 -404c187 0 279 111 295 206h81c-17 -127 -135 -279 -378 -279zM203 581h644v4c0 246 -128 394 -322 394s-322 -148 -322 -394v-4z" />
    <glyph glyph-name="ecircumflexgrave" unicode="&#x1ec1;" horiz-adv-x="1050" 
d="M928 1435h-71l-248 294h90zM263 1201l233 327h59l233 -327h-75l-186 266h-3l-187 -266h-74zM535 -18c-256 0 -412 175 -412 476v110c0 313 158 484 402 484s403 -170 403 -487v-55h-725v-51c0 -258 130 -404 334 -404c187 0 279 111 295 206h81
c-17 -127 -135 -279 -378 -279zM203 581h644v4c0 246 -128 394 -322 394s-322 -148 -322 -394v-4z" />
    <glyph glyph-name="ecircumflextilde" unicode="&#x1ec5;" horiz-adv-x="1050" 
d="M535 -18c-256 0 -412 175 -412 476v110c0 313 158 484 402 484s403 -170 403 -487v-55h-725v-51c0 -258 130 -404 334 -404c187 0 279 111 295 206h81c-17 -127 -135 -279 -378 -279zM203 581h644v4c0 246 -128 394 -322 394s-322 -148 -322 -394v-4zM312 1643h-61
c0 113 60 184 151 184c129 0 143 -144 243 -144c61 0 91 53 92 128h61c0 -99 -51 -184 -153 -184c-134 0 -150 143 -243 143c-53 0 -90 -49 -90 -127zM263 1201l233 327h59l233 -327h-75l-186 266h-3l-187 -266h-74z" />
    </font>
</defs>
</svg>
